<svg width="1479" height="212" viewBox="0 0 1479 212" fill="none" xmlns="http://www.w3.org/2000/svg">
<rect width="1479" height="212" fill="#FFFDEA"/>
<rect y="50" width="1479" height="110" fill="#FD9584"/>
<path d="M1159.68 119.038L1159.68 119.038L1159.66 119.038L1159.11 119.019L1159.11 119.019L1159.1 119.019C1156.14 118.995 1153.29 120.107 1151.13 122.126C1149.14 123.989 1147.88 126.492 1147.56 129.185C1146.47 128.562 1145.28 128.121 1144.05 127.883C1142.56 127.599 1141.04 127.61 1139.56 127.918C1138.08 128.225 1136.68 128.823 1135.43 129.675C1134.18 130.528 1133.12 131.619 1132.3 132.886L1132.3 132.886L1132.29 132.897L1131.98 133.395L1131.98 133.395L1131.98 133.405C1130.5 135.948 1130.05 138.958 1130.72 141.822C1131.34 144.485 1132.88 146.835 1135.06 148.462C1132.61 149.877 1130.76 152.145 1129.87 154.842C1128.92 157.737 1129.15 160.891 1130.51 163.618C1131.18 164.969 1132.11 166.174 1133.25 167.164C1134.38 168.154 1135.71 168.91 1137.14 169.387L1137.14 169.389L1137.15 169.392L1137.79 169.583L1137.8 169.586L1137.81 169.588C1140.28 170.246 1142.89 170.055 1145.24 169.058C1145.24 171.869 1146.27 174.593 1148.15 176.705C1150.18 178.988 1153.03 180.37 1156.08 180.548L1156.08 180.549L1156.1 180.549L1156.65 180.567L1156.65 180.568L1156.66 180.568C1159.62 180.592 1162.47 179.48 1164.63 177.461C1166.62 175.597 1167.88 173.093 1168.2 170.398C1169.29 171.022 1170.48 171.463 1171.72 171.701C1173.2 171.985 1174.72 171.973 1176.2 171.665C1177.68 171.358 1179.08 170.761 1180.33 169.909C1181.57 169.057 1182.64 167.966 1183.46 166.701L1183.46 166.701L1183.47 166.692L1183.77 166.197L1183.78 166.191L1183.78 166.184C1185.26 163.642 1185.71 160.631 1185.04 157.767C1184.42 155.104 1182.88 152.754 1180.7 151.128C1183.15 149.713 1185 147.446 1185.89 144.75C1186.84 141.855 1186.61 138.699 1185.25 135.972C1184.58 134.621 1183.65 133.416 1182.51 132.426C1181.38 131.436 1180.06 130.681 1178.63 130.203L1178.62 130.2L1178.61 130.198L1177.97 130.006L1177.96 130.004L1177.95 130.002C1175.48 129.342 1172.87 129.533 1170.53 130.529C1170.52 127.718 1169.49 124.994 1167.61 122.882C1165.58 120.599 1162.73 119.216 1159.68 119.038ZM1152.72 143.991C1154.26 142.622 1156.28 141.921 1158.33 142.041C1160.39 142.161 1162.31 143.093 1163.68 144.632C1165.05 146.17 1165.75 148.19 1165.63 150.246C1165.51 152.302 1164.58 154.226 1163.04 155.595C1161.5 156.964 1159.48 157.666 1157.43 157.546C1155.37 157.426 1153.45 156.494 1152.08 154.955C1150.71 153.416 1150.01 151.397 1150.13 149.341C1150.25 147.285 1151.18 145.36 1152.72 143.991Z" fill="#A7D9DD" stroke="#789C9F"/>
<path d="M365.775 153.711L365.775 153.711L365.775 153.698L365.783 153.014L365.783 153.014L365.783 153.001C365.73 149.363 364.281 145.883 361.735 143.283C359.344 140.84 356.156 139.348 352.763 139.069C353.548 137.664 354.088 136.133 354.356 134.542C354.665 132.709 354.608 130.832 354.188 129.021C353.769 127.209 352.994 125.499 351.91 123.989C350.826 122.478 349.453 121.197 347.871 120.22L347.871 120.22L347.859 120.213L347.232 119.849L347.232 119.849L347.222 119.843C344.051 118.097 340.333 117.625 336.827 118.526C333.507 119.378 330.613 121.399 328.67 124.208C326.865 121.157 323.98 118.883 320.575 117.846C316.986 116.752 313.11 117.122 309.791 118.874C308.148 119.737 306.69 120.915 305.504 122.343C304.317 123.77 303.424 125.418 302.876 127.192L302.874 127.199L302.872 127.207L302.652 128.007L302.65 128.014L302.648 128.022C301.892 131.143 302.227 134.422 303.585 137.317C300.058 137.354 296.663 138.706 294.07 141.12C291.317 143.683 289.695 147.236 289.561 150.995L289.561 150.995L289.561 151.008L289.553 151.692L289.553 151.692L289.553 151.705C289.606 155.343 291.055 158.823 293.601 161.423C295.993 163.867 299.183 165.359 302.577 165.637C301.791 167.043 301.251 168.576 300.983 170.168C300.675 172.001 300.733 173.876 301.153 175.686C301.572 177.496 302.346 179.205 303.43 180.715C304.513 182.225 305.885 183.505 307.465 184.482L307.465 184.482L307.474 184.487L308.098 184.855L308.104 184.859L308.11 184.863C311.281 186.609 314.999 187.08 318.506 186.18C321.826 185.328 324.72 183.306 326.663 180.497C328.467 183.547 331.35 185.821 334.754 186.859C338.344 187.954 342.222 187.584 345.541 185.831C347.185 184.969 348.642 183.791 349.828 182.365C351.015 180.938 351.908 179.29 352.456 177.517L352.458 177.51L352.46 177.502L352.681 176.698L352.683 176.691L352.684 176.684C353.442 173.563 353.107 170.284 351.75 167.389C355.277 167.352 358.673 166 361.266 163.586C364.019 161.022 365.641 157.47 365.775 153.711ZM334.813 145.7C336.578 147.595 337.517 150.113 337.425 152.701C337.333 155.288 336.216 157.733 334.321 159.498C332.426 161.262 329.908 162.202 327.32 162.11C324.733 162.018 322.288 160.901 320.523 159.006C318.758 157.111 317.819 154.593 317.911 152.005C318.003 149.418 319.12 146.973 321.015 145.208C322.91 143.443 325.428 142.504 328.016 142.596C330.603 142.688 333.048 143.805 334.813 145.7Z" fill="#C5D146" stroke="#939C35"/>
<path d="M111.98 50.1334L111.98 50.1334L111.98 50.1209L111.985 49.6489L111.985 49.6489L111.985 49.6364C111.948 47.0874 110.933 44.65 109.15 42.8283C107.53 41.1737 105.389 40.1421 103.101 39.8988C103.59 38.972 103.929 37.9717 104.103 36.9352C104.32 35.6507 104.28 34.3359 103.986 33.0669C103.692 31.7978 103.149 30.5996 102.39 29.5414C101.63 28.4831 100.668 27.5858 99.5598 26.9012L99.5599 26.9011L99.5484 26.8944L99.1159 26.6429L99.116 26.6428L99.1058 26.6372C96.8845 25.4137 94.2801 25.0836 91.8238 25.7142C89.5751 26.2916 87.6055 27.6342 86.2473 29.5007C84.977 27.4656 83.0095 25.9505 80.7008 25.2472C78.1863 24.4812 75.471 24.7402 73.1467 25.9678C71.9951 26.5718 70.9743 27.3975 70.1429 28.3975C69.3114 29.3976 68.6858 30.5523 68.3022 31.7951L68.3 31.8024L68.2979 31.8099L68.1461 32.3615L68.144 32.369L68.1422 32.3765C67.6311 34.4864 67.8317 36.6987 68.7007 38.6731C66.3153 38.7553 64.0299 39.6946 62.2718 41.3318C60.3432 43.1277 59.207 45.6162 59.1132 48.2498L59.113 48.2498L59.1129 48.2623L59.1079 48.7342L59.1077 48.7342L59.1079 48.7468C59.1446 51.2958 60.1597 53.7332 61.9431 55.5548C63.5636 57.2101 65.7059 58.2419 67.9952 58.4846C67.5058 59.4124 67.1666 60.4137 66.9921 61.4513C66.7761 62.7351 66.8164 64.0489 67.1105 65.3171C67.4046 66.5853 67.9469 67.7827 68.7059 68.8403C69.465 69.898 70.4259 70.7949 71.5332 71.4795L71.5331 71.4796L71.542 71.4848L71.972 71.7386L71.9784 71.7423L71.9849 71.7459C74.2062 72.9694 76.8106 73.2995 79.2669 72.6688C81.5157 72.0915 83.4854 70.7487 84.8436 68.8821C86.1133 70.9164 88.0797 72.4312 90.3874 73.1349C92.9025 73.9019 95.6188 73.6432 97.944 72.4153C99.0953 71.8115 100.116 70.9862 100.947 69.9867C101.779 68.987 102.404 67.8328 102.788 66.5905L102.791 66.5829L102.793 66.5751L102.945 66.0211L102.947 66.0139L102.948 66.0067C103.46 63.8971 103.26 61.6847 102.392 59.7101C104.778 59.628 107.063 58.6886 108.821 57.0514C110.75 55.2555 111.886 52.767 111.98 50.1334ZM90.36 44.7093C91.5488 45.9859 92.1818 47.6825 92.1197 49.4258C92.0576 51.1691 91.3055 52.8163 90.0289 54.0051C88.7522 55.1939 87.0557 55.8268 85.3123 55.7647C83.569 55.7026 81.9218 54.9505 80.733 53.6739C79.5442 52.3973 78.9113 50.7007 78.9734 48.9574C79.0355 47.2141 79.7876 45.5669 81.0642 44.3781C82.3408 43.1893 84.0374 42.5563 85.7807 42.6184C87.524 42.6805 89.1713 43.4326 90.36 44.7093Z" fill="#FFD5E3" stroke="#C66D7F"/>
<path d="M452.181 48.4898L452.181 48.4898L452.182 48.4774L452.237 48.0365L452.237 48.0365L452.238 48.0241C452.474 45.6283 451.78 43.2336 450.3 41.3352C448.964 39.6223 447.08 38.4317 444.976 37.9544C445.521 37.146 445.937 36.2557 446.207 35.3155C446.547 34.1331 446.649 32.8952 446.507 31.6732C446.366 30.4512 445.984 29.2693 445.383 28.1957C444.782 27.1222 443.975 26.1782 443.007 25.4183L443.008 25.4181L442.997 25.4102L442.619 25.1293L442.619 25.1292L442.61 25.1224C440.655 23.7389 438.246 23.153 435.874 23.4843C433.718 23.7856 431.739 24.8248 430.27 26.4142C429.291 24.3882 427.614 22.7729 425.535 21.8739C423.257 20.8886 420.682 20.8438 418.371 21.7492C417.226 22.1939 416.18 22.8604 415.294 23.7106C414.408 24.5609 413.699 25.5781 413.207 26.7036L413.204 26.7106L413.201 26.7178L413.001 27.2178L412.998 27.225L412.995 27.2322C412.297 29.1443 412.246 31.2254 412.839 33.1586C410.606 32.9943 408.379 33.6338 406.567 34.975C404.567 36.4557 403.237 38.6703 402.87 41.1316L402.87 41.1315L402.868 41.1439L402.814 41.5849L402.814 41.5848L402.812 41.5973C402.577 43.993 403.271 46.3878 404.751 48.2861C406.087 49.9998 407.972 51.1906 410.077 51.6675C409.531 52.4767 409.115 53.368 408.846 54.3093C408.507 55.491 408.405 56.7281 408.547 57.9493C408.688 59.1705 409.07 60.3516 409.67 61.4245C410.27 62.4974 411.077 63.441 412.043 64.2008L412.043 64.2008L412.052 64.2071L412.427 64.4899L412.433 64.4943L412.439 64.4986C414.394 65.8821 416.802 66.468 419.174 66.1367C421.331 65.8354 423.31 64.7961 424.779 63.2066C425.757 65.2318 427.434 66.8466 429.511 67.7459C431.79 68.7322 434.366 68.7775 436.678 67.8718C437.822 67.4274 438.868 66.7612 439.754 65.9114C440.64 65.0615 441.349 64.0448 441.841 62.9198L441.844 62.9124L441.847 62.905L442.048 62.4028L442.051 62.3959L442.053 62.3889C442.752 60.4772 442.804 58.3961 442.212 56.4627C444.444 56.6271 446.672 55.9876 448.483 54.6463C450.483 53.1657 451.813 50.9511 452.181 48.4898ZM432.478 41.1441C433.451 42.4577 433.861 44.1037 433.62 45.7202C433.379 47.3366 432.505 48.791 431.192 49.7634C429.878 50.7359 428.232 51.1467 426.616 50.9055C424.999 50.6642 423.545 49.7908 422.573 48.4772C421.6 47.1637 421.189 45.5176 421.431 43.9012C421.672 42.2848 422.545 40.8304 423.859 39.8579C425.172 38.8855 426.818 38.4747 428.435 38.7159C430.051 38.9571 431.506 39.8306 432.478 41.1441Z" fill="#EDCDFF" stroke="#AD93BC"/>
<path d="M501.006 133.27C500.7 133.27 500.457 133.18 500.277 133C500.097 132.802 500.007 132.532 500.007 132.19V117.34C500.007 116.332 500.304 115.54 500.898 114.964C501.51 114.388 502.356 114.1 503.436 114.1H511.806C512.508 114.1 512.859 114.388 512.859 114.964C512.859 115.216 512.769 115.414 512.589 115.558C512.409 115.702 512.148 115.774 511.806 115.774H503.463C503.031 115.774 502.68 115.918 502.41 116.206C502.158 116.494 502.032 116.872 502.032 117.34V122.767H509.754C510.456 122.767 510.807 123.055 510.807 123.631C510.807 123.901 510.708 124.108 510.51 124.252C510.33 124.396 510.078 124.468 509.754 124.468H502.032V132.19C502.032 132.532 501.942 132.802 501.762 133C501.582 133.18 501.33 133.27 501.006 133.27ZM516.029 133.27C515.723 133.27 515.48 133.18 515.3 133C515.138 132.802 515.057 132.532 515.057 132.19V120.58C515.057 120.238 515.138 119.977 515.3 119.797C515.462 119.599 515.705 119.5 516.029 119.5C516.335 119.5 516.569 119.599 516.731 119.797C516.911 119.977 517.001 120.238 517.001 120.58V122.2C518.225 120.58 519.917 119.77 522.077 119.77H522.752C523.094 119.77 523.364 119.851 523.562 120.013C523.76 120.157 523.859 120.364 523.859 120.634C523.859 120.904 523.76 121.111 523.562 121.255C523.364 121.399 523.094 121.471 522.752 121.471H521.996C520.466 121.471 519.251 121.912 518.351 122.794C517.469 123.658 517.028 124.837 517.028 126.331V132.19C517.028 132.514 516.938 132.775 516.758 132.973C516.596 133.171 516.353 133.27 516.029 133.27ZM532.195 133.27C530.629 133.27 529.288 132.955 528.172 132.325C527.056 131.695 526.21 130.858 525.634 129.814C525.076 128.752 524.797 127.609 524.797 126.385C524.797 125.161 525.076 124.027 525.634 122.983C526.21 121.921 527.056 121.075 528.172 120.445C529.288 119.815 530.629 119.5 532.195 119.5C533.761 119.5 535.093 119.815 536.191 120.445C537.307 121.075 538.144 121.921 538.702 122.983C539.278 124.027 539.566 125.161 539.566 126.385C539.566 127.609 539.278 128.752 538.702 129.814C538.144 130.858 537.307 131.695 536.191 132.325C535.093 132.955 533.761 133.27 532.195 133.27ZM532.195 131.569C533.815 131.569 535.111 131.11 536.083 130.192C537.073 129.274 537.568 128.005 537.568 126.385C537.568 124.765 537.073 123.496 536.083 122.578C535.111 121.66 533.815 121.201 532.195 121.201C530.557 121.201 529.243 121.66 528.253 122.578C527.281 123.496 526.795 124.765 526.795 126.385C526.795 128.005 527.281 129.274 528.253 130.192C529.243 131.11 530.557 131.569 532.195 131.569ZM543.213 133.27C542.907 133.27 542.664 133.18 542.484 133C542.322 132.802 542.241 132.532 542.241 132.19V120.58C542.241 120.238 542.322 119.977 542.484 119.797C542.664 119.599 542.907 119.5 543.213 119.5C543.537 119.5 543.78 119.599 543.942 119.797C544.122 119.995 544.212 120.256 544.212 120.58V122.119C544.698 121.309 545.319 120.67 546.075 120.202C546.849 119.734 547.659 119.5 548.505 119.5C549.351 119.5 550.098 119.734 550.746 120.202C551.394 120.652 551.871 121.291 552.177 122.119C552.807 121.273 553.5 120.625 554.256 120.175C555.03 119.725 555.831 119.5 556.659 119.5C558.081 119.5 559.152 119.941 559.872 120.823C560.592 121.687 560.952 122.974 560.952 124.684V132.19C560.952 132.532 560.862 132.802 560.682 133C560.502 133.18 560.259 133.27 559.953 133.27C559.305 133.27 558.981 132.91 558.981 132.19V124.63C558.981 123.478 558.783 122.623 558.387 122.065C558.009 121.489 557.352 121.201 556.416 121.201C555.624 121.201 554.913 121.444 554.283 121.93C553.653 122.398 553.149 123.082 552.771 123.982V132.19C552.771 132.532 552.681 132.802 552.501 133C552.321 133.18 552.078 133.27 551.772 133.27C551.466 133.27 551.223 133.18 551.043 133C550.881 132.802 550.8 132.532 550.8 132.19V125.035C550.8 123.793 550.575 122.848 550.125 122.2C549.693 121.534 549.072 121.201 548.262 121.201C547.488 121.201 546.795 121.417 546.183 121.849C545.571 122.263 545.085 122.839 544.725 123.577C544.383 124.315 544.212 125.152 544.212 126.088V132.19C544.212 132.514 544.122 132.775 543.942 132.973C543.78 133.171 543.537 133.27 543.213 133.27ZM572.717 141.073C572.411 141.073 572.168 140.974 571.988 140.776C571.826 140.596 571.745 140.335 571.745 139.993V120.58C571.745 120.238 571.826 119.977 571.988 119.797C572.168 119.599 572.411 119.5 572.717 119.5C573.041 119.5 573.284 119.599 573.446 119.797C573.626 119.995 573.716 120.256 573.716 120.58V122.308C575.102 120.436 577.1 119.5 579.71 119.5C581.888 119.5 583.598 120.103 584.84 121.309C586.1 122.515 586.73 124.171 586.73 126.277C586.73 127.699 586.442 128.941 585.866 130.003C585.29 131.047 584.462 131.857 583.382 132.433C582.32 132.991 581.069 133.27 579.629 133.27C578.387 133.27 577.289 133.054 576.335 132.622C575.399 132.172 574.535 131.47 573.743 130.516V139.993C573.743 140.317 573.653 140.578 573.473 140.776C573.293 140.974 573.041 141.073 572.717 141.073ZM579.494 131.569C581.132 131.569 582.41 131.101 583.328 130.165C584.264 129.211 584.732 127.897 584.732 126.223C584.732 124.603 584.273 123.361 583.355 122.497C582.455 121.633 581.159 121.201 579.467 121.201C577.685 121.201 576.281 121.66 575.255 122.578C574.229 123.478 573.716 124.711 573.716 126.277C573.716 127.321 573.95 128.248 574.418 129.058C574.904 129.85 575.579 130.471 576.443 130.921C577.325 131.353 578.342 131.569 579.494 131.569ZM594.722 133.27C592.958 133.27 591.572 132.883 590.564 132.109C589.574 131.335 589.079 130.264 589.079 128.896C589.079 127.546 589.601 126.475 590.645 125.683C591.707 124.891 593.147 124.495 594.965 124.495C596.027 124.495 596.963 124.639 597.773 124.927C598.601 125.215 599.24 125.602 599.69 126.088V124.36C599.69 123.334 599.348 122.551 598.664 122.011C597.998 121.471 597.017 121.201 595.721 121.201C594.047 121.201 592.598 121.597 591.374 122.389C591.068 122.569 590.816 122.659 590.618 122.659C590.438 122.659 590.258 122.587 590.078 122.443C589.88 122.281 589.781 122.074 589.781 121.822C589.781 121.552 589.898 121.327 590.132 121.147C590.78 120.643 591.599 120.247 592.589 119.959C593.597 119.653 594.623 119.5 595.667 119.5C597.575 119.5 599.051 119.932 600.095 120.796C601.157 121.66 601.688 122.875 601.688 124.441V132.217C601.688 132.919 601.364 133.27 600.716 133.27C600.428 133.27 600.194 133.18 600.014 133C599.834 132.802 599.744 132.55 599.744 132.244V131.272C598.628 132.604 596.954 133.27 594.722 133.27ZM594.965 131.623C596.369 131.623 597.512 131.362 598.394 130.84C599.276 130.3 599.717 129.607 599.717 128.761C599.717 127.915 599.303 127.267 598.475 126.817C597.665 126.349 596.513 126.115 595.019 126.115C593.759 126.115 592.787 126.358 592.103 126.844C591.419 127.312 591.077 127.996 591.077 128.896C591.077 129.778 591.41 130.453 592.076 130.921C592.742 131.389 593.705 131.623 594.965 131.623ZM611.089 133.27C609.829 133.27 608.641 133.036 607.525 132.568C606.409 132.082 605.527 131.416 604.879 130.57C604.753 130.39 604.69 130.21 604.69 130.03C604.69 129.85 604.735 129.697 604.825 129.571C604.933 129.427 605.068 129.319 605.23 129.247C605.374 129.193 605.491 129.166 605.581 129.166C605.743 129.166 605.878 129.211 605.986 129.301C606.112 129.373 606.256 129.499 606.418 129.679C607.588 130.921 609.145 131.542 611.089 131.542C612.025 131.542 612.781 131.38 613.357 131.056C613.933 130.732 614.221 130.282 614.221 129.706C614.221 129.292 614.104 128.959 613.87 128.707C613.654 128.437 613.276 128.194 612.736 127.978C612.214 127.744 611.35 127.42 610.144 127.006C608.974 126.61 608.056 126.232 607.39 125.872C606.724 125.512 606.229 125.107 605.905 124.657C605.581 124.189 605.419 123.622 605.419 122.956C605.419 121.912 605.869 121.075 606.769 120.445C607.687 119.815 608.902 119.5 610.414 119.5C611.53 119.5 612.565 119.698 613.519 120.094C614.473 120.472 615.193 120.985 615.679 121.633C615.823 121.831 615.895 122.02 615.895 122.2C615.895 122.47 615.751 122.686 615.463 122.848C615.283 122.956 615.103 123.01 614.923 123.01C614.617 123.01 614.329 122.875 614.059 122.605C613.591 122.137 613.078 121.795 612.52 121.579C611.962 121.345 611.251 121.228 610.387 121.228C609.433 121.228 608.704 121.381 608.2 121.687C607.696 121.993 607.444 122.425 607.444 122.983C607.444 123.397 607.543 123.73 607.741 123.982C607.957 124.216 608.29 124.432 608.74 124.63C609.208 124.81 610.018 125.089 611.17 125.467C612.466 125.899 613.465 126.313 614.167 126.709C614.887 127.087 615.4 127.51 615.706 127.978C616.03 128.446 616.192 129.022 616.192 129.706C616.192 130.786 615.715 131.65 614.761 132.298C613.825 132.946 612.601 133.27 611.089 133.27ZM628.304 130.327C628.502 130.489 628.601 130.678 628.601 130.894C628.601 131.074 628.52 131.29 628.358 131.542C627.98 132.064 627.458 132.487 626.792 132.811C626.126 133.117 625.442 133.27 624.74 133.27C623.552 133.27 622.616 132.919 621.932 132.217C621.248 131.515 620.906 130.552 620.906 129.328V121.417H619.448C618.728 121.417 618.368 121.138 618.368 120.58C618.368 120.328 618.458 120.13 618.638 119.986C618.836 119.842 619.106 119.77 619.448 119.77H620.906V115.153C620.906 114.811 620.987 114.55 621.149 114.37C621.329 114.172 621.581 114.073 621.905 114.073C622.211 114.073 622.445 114.172 622.607 114.37C622.787 114.55 622.877 114.811 622.877 115.153V119.77H626.549C626.873 119.77 627.125 119.842 627.305 119.986C627.503 120.112 627.602 120.31 627.602 120.58C627.602 121.138 627.251 121.417 626.549 121.417H622.877V129.49C622.877 130.876 623.525 131.569 624.821 131.569C625.235 131.569 625.613 131.488 625.955 131.326C626.297 131.164 626.639 130.903 626.981 130.543C627.251 130.255 627.512 130.111 627.764 130.111C627.926 130.111 628.106 130.183 628.304 130.327ZM638.109 133.27C635.769 133.27 633.96 132.667 632.682 131.461C631.404 130.255 630.765 128.545 630.765 126.331C630.765 124.207 631.413 122.542 632.709 121.336C634.005 120.112 635.778 119.5 638.028 119.5C639.414 119.5 640.647 119.725 641.727 120.175C642.807 120.607 643.644 121.228 644.238 122.038C644.85 122.83 645.156 123.739 645.156 124.765C645.156 125.521 644.94 126.106 644.508 126.52C644.094 126.934 643.518 127.141 642.78 127.141H632.79C632.79 128.527 633.258 129.616 634.194 130.408C635.13 131.182 636.435 131.569 638.109 131.569C639.135 131.569 640.017 131.461 640.755 131.245C641.493 131.011 642.186 130.642 642.834 130.138C643.176 129.85 643.455 129.706 643.671 129.706C643.833 129.706 643.986 129.778 644.13 129.922C644.382 130.138 644.508 130.363 644.508 130.597C644.508 130.777 644.4 130.975 644.184 131.191C643.446 131.893 642.582 132.415 641.592 132.757C640.602 133.099 639.441 133.27 638.109 133.27ZM642.186 125.548C642.51 125.548 642.753 125.485 642.915 125.359C643.077 125.215 643.158 124.963 643.158 124.603C643.158 123.955 642.942 123.37 642.51 122.848C642.078 122.326 641.466 121.921 640.674 121.633C639.9 121.345 639.018 121.201 638.028 121.201C636.426 121.201 635.157 121.597 634.221 122.389C633.303 123.163 632.844 124.216 632.844 125.548H642.186ZM649.75 133.27C649.444 133.27 649.201 133.18 649.021 133C648.859 132.802 648.778 132.532 648.778 132.19V113.587C648.778 113.245 648.859 112.984 649.021 112.804C649.201 112.606 649.444 112.507 649.75 112.507C650.056 112.507 650.299 112.606 650.479 112.804C650.659 112.984 650.749 113.245 650.749 113.587V132.19C650.749 132.514 650.659 132.775 650.479 132.973C650.317 133.171 650.074 133.27 649.75 133.27ZM668.797 133.27C666.565 133.27 664.801 132.667 663.505 131.461C662.227 130.237 661.588 128.572 661.588 126.466C661.588 125.134 661.867 123.946 662.425 122.902C663.001 121.84 663.829 121.012 664.909 120.418C666.007 119.806 667.321 119.5 668.851 119.5C670.147 119.5 671.245 119.743 672.145 120.229C673.063 120.715 673.873 121.39 674.575 122.254L674.602 113.587C674.602 113.245 674.683 112.984 674.845 112.804C675.025 112.606 675.277 112.507 675.601 112.507C675.907 112.507 676.141 112.606 676.303 112.804C676.483 112.984 676.573 113.245 676.573 113.587V132.19C676.573 132.532 676.483 132.802 676.303 133C676.141 133.18 675.907 133.27 675.601 133.27C675.295 133.27 675.052 133.18 674.872 133C674.692 132.802 674.602 132.532 674.602 132.19V130.462C673.972 131.38 673.162 132.082 672.172 132.568C671.2 133.036 670.075 133.27 668.797 133.27ZM668.959 131.569C670.705 131.569 672.082 131.11 673.09 130.192C674.098 129.256 674.602 127.987 674.602 126.385C674.602 125.323 674.341 124.405 673.819 123.631C673.315 122.839 672.631 122.236 671.767 121.822C670.921 121.408 669.994 121.201 668.986 121.201C667.294 121.201 665.971 121.687 665.017 122.659C664.063 123.613 663.586 124.882 663.586 126.466C663.586 128.158 664.054 129.436 664.99 130.3C665.926 131.146 667.249 131.569 668.959 131.569ZM681.325 133.27C681.019 133.27 680.776 133.18 680.596 133C680.434 132.802 680.353 132.532 680.353 132.19V120.58C680.353 120.238 680.434 119.977 680.596 119.797C680.758 119.599 681.001 119.5 681.325 119.5C681.631 119.5 681.865 119.599 682.027 119.797C682.207 119.977 682.297 120.238 682.297 120.58V122.2C683.521 120.58 685.213 119.77 687.373 119.77H688.048C688.39 119.77 688.66 119.851 688.858 120.013C689.056 120.157 689.155 120.364 689.155 120.634C689.155 120.904 689.056 121.111 688.858 121.255C688.66 121.399 688.39 121.471 688.048 121.471H687.292C685.762 121.471 684.547 121.912 683.647 122.794C682.765 123.658 682.324 124.837 682.324 126.331V132.19C682.324 132.514 682.234 132.775 682.054 132.973C681.892 133.171 681.649 133.27 681.325 133.27ZM697.383 133.27C695.043 133.27 693.234 132.667 691.956 131.461C690.678 130.255 690.039 128.545 690.039 126.331C690.039 124.207 690.687 122.542 691.983 121.336C693.279 120.112 695.052 119.5 697.302 119.5C698.688 119.5 699.921 119.725 701.001 120.175C702.081 120.607 702.918 121.228 703.512 122.038C704.124 122.83 704.43 123.739 704.43 124.765C704.43 125.521 704.214 126.106 703.782 126.52C703.368 126.934 702.792 127.141 702.054 127.141H692.064C692.064 128.527 692.532 129.616 693.468 130.408C694.404 131.182 695.709 131.569 697.383 131.569C698.409 131.569 699.291 131.461 700.029 131.245C700.767 131.011 701.46 130.642 702.108 130.138C702.45 129.85 702.729 129.706 702.945 129.706C703.107 129.706 703.26 129.778 703.404 129.922C703.656 130.138 703.782 130.363 703.782 130.597C703.782 130.777 703.674 130.975 703.458 131.191C702.72 131.893 701.856 132.415 700.866 132.757C699.876 133.099 698.715 133.27 697.383 133.27ZM701.46 125.548C701.784 125.548 702.027 125.485 702.189 125.359C702.351 125.215 702.432 124.963 702.432 124.603C702.432 123.955 702.216 123.37 701.784 122.848C701.352 122.326 700.74 121.921 699.948 121.633C699.174 121.345 698.292 121.201 697.302 121.201C695.7 121.201 694.431 121.597 693.495 122.389C692.577 123.163 692.118 124.216 692.118 125.548H701.46ZM711.74 133.27C709.976 133.27 708.59 132.883 707.582 132.109C706.592 131.335 706.097 130.264 706.097 128.896C706.097 127.546 706.619 126.475 707.663 125.683C708.725 124.891 710.165 124.495 711.983 124.495C713.045 124.495 713.981 124.639 714.791 124.927C715.619 125.215 716.258 125.602 716.708 126.088V124.36C716.708 123.334 716.366 122.551 715.682 122.011C715.016 121.471 714.035 121.201 712.739 121.201C711.065 121.201 709.616 121.597 708.392 122.389C708.086 122.569 707.834 122.659 707.636 122.659C707.456 122.659 707.276 122.587 707.096 122.443C706.898 122.281 706.799 122.074 706.799 121.822C706.799 121.552 706.916 121.327 707.15 121.147C707.798 120.643 708.617 120.247 709.607 119.959C710.615 119.653 711.641 119.5 712.685 119.5C714.593 119.5 716.069 119.932 717.113 120.796C718.175 121.66 718.706 122.875 718.706 124.441V132.217C718.706 132.919 718.382 133.27 717.734 133.27C717.446 133.27 717.212 133.18 717.032 133C716.852 132.802 716.762 132.55 716.762 132.244V131.272C715.646 132.604 713.972 133.27 711.74 133.27ZM711.983 131.623C713.387 131.623 714.53 131.362 715.412 130.84C716.294 130.3 716.735 129.607 716.735 128.761C716.735 127.915 716.321 127.267 715.493 126.817C714.683 126.349 713.531 126.115 712.037 126.115C710.777 126.115 709.805 126.358 709.121 126.844C708.437 127.312 708.095 127.996 708.095 128.896C708.095 129.778 708.428 130.453 709.094 130.921C709.76 131.389 710.723 131.623 711.983 131.623ZM723.3 133.27C722.994 133.27 722.751 133.18 722.571 133C722.409 132.802 722.328 132.532 722.328 132.19V120.58C722.328 120.238 722.409 119.977 722.571 119.797C722.751 119.599 722.994 119.5 723.3 119.5C723.624 119.5 723.867 119.599 724.029 119.797C724.209 119.995 724.299 120.256 724.299 120.58V122.119C724.785 121.309 725.406 120.67 726.162 120.202C726.936 119.734 727.746 119.5 728.592 119.5C729.438 119.5 730.185 119.734 730.833 120.202C731.481 120.652 731.958 121.291 732.264 122.119C732.894 121.273 733.587 120.625 734.343 120.175C735.117 119.725 735.918 119.5 736.746 119.5C738.168 119.5 739.239 119.941 739.959 120.823C740.679 121.687 741.039 122.974 741.039 124.684V132.19C741.039 132.532 740.949 132.802 740.769 133C740.589 133.18 740.346 133.27 740.04 133.27C739.392 133.27 739.068 132.91 739.068 132.19V124.63C739.068 123.478 738.87 122.623 738.474 122.065C738.096 121.489 737.439 121.201 736.503 121.201C735.711 121.201 735 121.444 734.37 121.93C733.74 122.398 733.236 123.082 732.858 123.982V132.19C732.858 132.532 732.768 132.802 732.588 133C732.408 133.18 732.165 133.27 731.859 133.27C731.553 133.27 731.31 133.18 731.13 133C730.968 132.802 730.887 132.532 730.887 132.19V125.035C730.887 123.793 730.662 122.848 730.212 122.2C729.78 121.534 729.159 121.201 728.349 121.201C727.575 121.201 726.882 121.417 726.27 121.849C725.658 122.263 725.172 122.839 724.812 123.577C724.47 124.315 724.299 125.152 724.299 126.088V132.19C724.299 132.514 724.209 132.775 724.029 132.973C723.867 133.171 723.624 133.27 723.3 133.27ZM750.387 133.27C749.127 133.27 747.939 133.036 746.823 132.568C745.707 132.082 744.825 131.416 744.177 130.57C744.051 130.39 743.988 130.21 743.988 130.03C743.988 129.85 744.033 129.697 744.123 129.571C744.231 129.427 744.366 129.319 744.528 129.247C744.672 129.193 744.789 129.166 744.879 129.166C745.041 129.166 745.176 129.211 745.284 129.301C745.41 129.373 745.554 129.499 745.716 129.679C746.886 130.921 748.443 131.542 750.387 131.542C751.323 131.542 752.079 131.38 752.655 131.056C753.231 130.732 753.519 130.282 753.519 129.706C753.519 129.292 753.402 128.959 753.168 128.707C752.952 128.437 752.574 128.194 752.034 127.978C751.512 127.744 750.648 127.42 749.442 127.006C748.272 126.61 747.354 126.232 746.688 125.872C746.022 125.512 745.527 125.107 745.203 124.657C744.879 124.189 744.717 123.622 744.717 122.956C744.717 121.912 745.167 121.075 746.067 120.445C746.985 119.815 748.2 119.5 749.712 119.5C750.828 119.5 751.863 119.698 752.817 120.094C753.771 120.472 754.491 120.985 754.977 121.633C755.121 121.831 755.193 122.02 755.193 122.2C755.193 122.47 755.049 122.686 754.761 122.848C754.581 122.956 754.401 123.01 754.221 123.01C753.915 123.01 753.627 122.875 753.357 122.605C752.889 122.137 752.376 121.795 751.818 121.579C751.26 121.345 750.549 121.228 749.685 121.228C748.731 121.228 748.002 121.381 747.498 121.687C746.994 121.993 746.742 122.425 746.742 122.983C746.742 123.397 746.841 123.73 747.039 123.982C747.255 124.216 747.588 124.432 748.038 124.63C748.506 124.81 749.316 125.089 750.468 125.467C751.764 125.899 752.763 126.313 753.465 126.709C754.185 127.087 754.698 127.51 755.004 127.978C755.328 128.446 755.49 129.022 755.49 129.706C755.49 130.786 755.013 131.65 754.059 132.298C753.123 132.946 751.899 133.27 750.387 133.27ZM774.827 130.327C775.025 130.489 775.124 130.678 775.124 130.894C775.124 131.074 775.043 131.29 774.881 131.542C774.503 132.064 773.981 132.487 773.315 132.811C772.649 133.117 771.965 133.27 771.263 133.27C770.075 133.27 769.139 132.919 768.455 132.217C767.771 131.515 767.429 130.552 767.429 129.328V121.417H765.971C765.251 121.417 764.891 121.138 764.891 120.58C764.891 120.328 764.981 120.13 765.161 119.986C765.359 119.842 765.629 119.77 765.971 119.77H767.429V115.153C767.429 114.811 767.51 114.55 767.672 114.37C767.852 114.172 768.104 114.073 768.428 114.073C768.734 114.073 768.968 114.172 769.13 114.37C769.31 114.55 769.4 114.811 769.4 115.153V119.77H773.072C773.396 119.77 773.648 119.842 773.828 119.986C774.026 120.112 774.125 120.31 774.125 120.58C774.125 121.138 773.774 121.417 773.072 121.417H769.4V129.49C769.4 130.876 770.048 131.569 771.344 131.569C771.758 131.569 772.136 131.488 772.478 131.326C772.82 131.164 773.162 130.903 773.504 130.543C773.774 130.255 774.035 130.111 774.287 130.111C774.449 130.111 774.629 130.183 774.827 130.327ZM784.054 133.27C782.488 133.27 781.147 132.955 780.031 132.325C778.915 131.695 778.069 130.858 777.493 129.814C776.935 128.752 776.656 127.609 776.656 126.385C776.656 125.161 776.935 124.027 777.493 122.983C778.069 121.921 778.915 121.075 780.031 120.445C781.147 119.815 782.488 119.5 784.054 119.5C785.62 119.5 786.952 119.815 788.05 120.445C789.166 121.075 790.003 121.921 790.561 122.983C791.137 124.027 791.425 125.161 791.425 126.385C791.425 127.609 791.137 128.752 790.561 129.814C790.003 130.858 789.166 131.695 788.05 132.325C786.952 132.955 785.62 133.27 784.054 133.27ZM784.054 131.569C785.674 131.569 786.97 131.11 787.942 130.192C788.932 129.274 789.427 128.005 789.427 126.385C789.427 124.765 788.932 123.496 787.942 122.578C786.97 121.66 785.674 121.201 784.054 121.201C782.416 121.201 781.102 121.66 780.112 122.578C779.14 123.496 778.654 124.765 778.654 126.385C778.654 128.005 779.14 129.274 780.112 130.192C781.102 131.11 782.416 131.569 784.054 131.569ZM802.746 133.27C802.44 133.27 802.197 133.18 802.017 133C801.855 132.802 801.774 132.532 801.774 132.19V120.58C801.774 120.238 801.855 119.977 802.017 119.797C802.179 119.599 802.422 119.5 802.746 119.5C803.052 119.5 803.286 119.599 803.448 119.797C803.628 119.977 803.718 120.238 803.718 120.58V122.2C804.942 120.58 806.634 119.77 808.794 119.77H809.469C809.811 119.77 810.081 119.851 810.279 120.013C810.477 120.157 810.576 120.364 810.576 120.634C810.576 120.904 810.477 121.111 810.279 121.255C810.081 121.399 809.811 121.471 809.469 121.471H808.713C807.183 121.471 805.968 121.912 805.068 122.794C804.186 123.658 803.745 124.837 803.745 126.331V132.19C803.745 132.514 803.655 132.775 803.475 132.973C803.313 133.171 803.07 133.27 802.746 133.27ZM818.803 133.27C816.463 133.27 814.654 132.667 813.376 131.461C812.098 130.255 811.459 128.545 811.459 126.331C811.459 124.207 812.107 122.542 813.403 121.336C814.699 120.112 816.472 119.5 818.722 119.5C820.108 119.5 821.341 119.725 822.421 120.175C823.501 120.607 824.338 121.228 824.932 122.038C825.544 122.83 825.85 123.739 825.85 124.765C825.85 125.521 825.634 126.106 825.202 126.52C824.788 126.934 824.212 127.141 823.474 127.141H813.484C813.484 128.527 813.952 129.616 814.888 130.408C815.824 131.182 817.129 131.569 818.803 131.569C819.829 131.569 820.711 131.461 821.449 131.245C822.187 131.011 822.88 130.642 823.528 130.138C823.87 129.85 824.149 129.706 824.365 129.706C824.527 129.706 824.68 129.778 824.824 129.922C825.076 130.138 825.202 130.363 825.202 130.597C825.202 130.777 825.094 130.975 824.878 131.191C824.14 131.893 823.276 132.415 822.286 132.757C821.296 133.099 820.135 133.27 818.803 133.27ZM822.88 125.548C823.204 125.548 823.447 125.485 823.609 125.359C823.771 125.215 823.852 124.963 823.852 124.603C823.852 123.955 823.636 123.37 823.204 122.848C822.772 122.326 822.16 121.921 821.368 121.633C820.594 121.345 819.712 121.201 818.722 121.201C817.12 121.201 815.851 121.597 814.915 122.389C813.997 123.163 813.538 124.216 813.538 125.548H822.88ZM833.161 133.27C831.397 133.27 830.011 132.883 829.003 132.109C828.013 131.335 827.518 130.264 827.518 128.896C827.518 127.546 828.04 126.475 829.084 125.683C830.146 124.891 831.586 124.495 833.404 124.495C834.466 124.495 835.402 124.639 836.212 124.927C837.04 125.215 837.679 125.602 838.129 126.088V124.36C838.129 123.334 837.787 122.551 837.103 122.011C836.437 121.471 835.456 121.201 834.16 121.201C832.486 121.201 831.037 121.597 829.813 122.389C829.507 122.569 829.255 122.659 829.057 122.659C828.877 122.659 828.697 122.587 828.517 122.443C828.319 122.281 828.22 122.074 828.22 121.822C828.22 121.552 828.337 121.327 828.571 121.147C829.219 120.643 830.038 120.247 831.028 119.959C832.036 119.653 833.062 119.5 834.106 119.5C836.014 119.5 837.49 119.932 838.534 120.796C839.596 121.66 840.127 122.875 840.127 124.441V132.217C840.127 132.919 839.803 133.27 839.155 133.27C838.867 133.27 838.633 133.18 838.453 133C838.273 132.802 838.183 132.55 838.183 132.244V131.272C837.067 132.604 835.393 133.27 833.161 133.27ZM833.404 131.623C834.808 131.623 835.951 131.362 836.833 130.84C837.715 130.3 838.156 129.607 838.156 128.761C838.156 127.915 837.742 127.267 836.914 126.817C836.104 126.349 834.952 126.115 833.458 126.115C832.198 126.115 831.226 126.358 830.542 126.844C829.858 127.312 829.516 127.996 829.516 128.896C829.516 129.778 829.849 130.453 830.515 130.921C831.181 131.389 832.144 131.623 833.404 131.623ZM845.315 133.27C845.009 133.27 844.766 133.18 844.586 133C844.424 132.802 844.343 132.532 844.343 132.19V113.587C844.343 113.245 844.424 112.984 844.586 112.804C844.766 112.606 845.009 112.507 845.315 112.507C845.621 112.507 845.864 112.606 846.044 112.804C846.224 112.984 846.314 113.245 846.314 113.587V132.19C846.314 132.514 846.224 132.775 846.044 132.973C845.882 133.171 845.639 133.27 845.315 133.27ZM864.363 133.27C862.131 133.27 860.367 132.667 859.071 131.461C857.793 130.237 857.154 128.572 857.154 126.466C857.154 125.134 857.433 123.946 857.991 122.902C858.567 121.84 859.395 121.012 860.475 120.418C861.573 119.806 862.887 119.5 864.417 119.5C865.713 119.5 866.811 119.743 867.711 120.229C868.629 120.715 869.439 121.39 870.141 122.254L870.168 113.587C870.168 113.245 870.249 112.984 870.411 112.804C870.591 112.606 870.843 112.507 871.167 112.507C871.473 112.507 871.707 112.606 871.869 112.804C872.049 112.984 872.139 113.245 872.139 113.587V132.19C872.139 132.532 872.049 132.802 871.869 133C871.707 133.18 871.473 133.27 871.167 133.27C870.861 133.27 870.618 133.18 870.438 133C870.258 132.802 870.168 132.532 870.168 132.19V130.462C869.538 131.38 868.728 132.082 867.738 132.568C866.766 133.036 865.641 133.27 864.363 133.27ZM864.525 131.569C866.271 131.569 867.648 131.11 868.656 130.192C869.664 129.256 870.168 127.987 870.168 126.385C870.168 125.323 869.907 124.405 869.385 123.631C868.881 122.839 868.197 122.236 867.333 121.822C866.487 121.408 865.56 121.201 864.552 121.201C862.86 121.201 861.537 121.687 860.583 122.659C859.629 123.613 859.152 124.882 859.152 126.466C859.152 128.158 859.62 129.436 860.556 130.3C861.492 131.146 862.815 131.569 864.525 131.569ZM882.507 133.27C880.167 133.27 878.358 132.667 877.08 131.461C875.802 130.255 875.163 128.545 875.163 126.331C875.163 124.207 875.811 122.542 877.107 121.336C878.403 120.112 880.176 119.5 882.426 119.5C883.812 119.5 885.045 119.725 886.125 120.175C887.205 120.607 888.042 121.228 888.636 122.038C889.248 122.83 889.554 123.739 889.554 124.765C889.554 125.521 889.338 126.106 888.906 126.52C888.492 126.934 887.916 127.141 887.178 127.141H877.188C877.188 128.527 877.656 129.616 878.592 130.408C879.528 131.182 880.833 131.569 882.507 131.569C883.533 131.569 884.415 131.461 885.153 131.245C885.891 131.011 886.584 130.642 887.232 130.138C887.574 129.85 887.853 129.706 888.069 129.706C888.231 129.706 888.384 129.778 888.528 129.922C888.78 130.138 888.906 130.363 888.906 130.597C888.906 130.777 888.798 130.975 888.582 131.191C887.844 131.893 886.98 132.415 885.99 132.757C885 133.099 883.839 133.27 882.507 133.27ZM886.584 125.548C886.908 125.548 887.151 125.485 887.313 125.359C887.475 125.215 887.556 124.963 887.556 124.603C887.556 123.955 887.34 123.37 886.908 122.848C886.476 122.326 885.864 121.921 885.072 121.633C884.298 121.345 883.416 121.201 882.426 121.201C880.824 121.201 879.555 121.597 878.619 122.389C877.701 123.163 877.242 124.216 877.242 125.548H886.584ZM898.359 133.27C897.099 133.27 895.911 133.036 894.795 132.568C893.679 132.082 892.797 131.416 892.149 130.57C892.023 130.39 891.96 130.21 891.96 130.03C891.96 129.85 892.005 129.697 892.095 129.571C892.203 129.427 892.338 129.319 892.5 129.247C892.644 129.193 892.761 129.166 892.851 129.166C893.013 129.166 893.148 129.211 893.256 129.301C893.382 129.373 893.526 129.499 893.688 129.679C894.858 130.921 896.415 131.542 898.359 131.542C899.295 131.542 900.051 131.38 900.627 131.056C901.203 130.732 901.491 130.282 901.491 129.706C901.491 129.292 901.374 128.959 901.14 128.707C900.924 128.437 900.546 128.194 900.006 127.978C899.484 127.744 898.62 127.42 897.414 127.006C896.244 126.61 895.326 126.232 894.66 125.872C893.994 125.512 893.499 125.107 893.175 124.657C892.851 124.189 892.689 123.622 892.689 122.956C892.689 121.912 893.139 121.075 894.039 120.445C894.957 119.815 896.172 119.5 897.684 119.5C898.8 119.5 899.835 119.698 900.789 120.094C901.743 120.472 902.463 120.985 902.949 121.633C903.093 121.831 903.165 122.02 903.165 122.2C903.165 122.47 903.021 122.686 902.733 122.848C902.553 122.956 902.373 123.01 902.193 123.01C901.887 123.01 901.599 122.875 901.329 122.605C900.861 122.137 900.348 121.795 899.79 121.579C899.232 121.345 898.521 121.228 897.657 121.228C896.703 121.228 895.974 121.381 895.47 121.687C894.966 121.993 894.714 122.425 894.714 122.983C894.714 123.397 894.813 123.73 895.011 123.982C895.227 124.216 895.56 124.432 896.01 124.63C896.478 124.81 897.288 125.089 898.44 125.467C899.736 125.899 900.735 126.313 901.437 126.709C902.157 127.087 902.67 127.51 902.976 127.978C903.3 128.446 903.462 129.022 903.462 129.706C903.462 130.786 902.985 131.65 902.031 132.298C901.095 132.946 899.871 133.27 898.359 133.27ZM912.308 133.27C911.048 133.27 909.86 133.036 908.744 132.568C907.628 132.082 906.746 131.416 906.098 130.57C905.972 130.39 905.909 130.21 905.909 130.03C905.909 129.85 905.954 129.697 906.044 129.571C906.152 129.427 906.287 129.319 906.449 129.247C906.593 129.193 906.71 129.166 906.8 129.166C906.962 129.166 907.097 129.211 907.205 129.301C907.331 129.373 907.475 129.499 907.637 129.679C908.807 130.921 910.364 131.542 912.308 131.542C913.244 131.542 914 131.38 914.576 131.056C915.152 130.732 915.44 130.282 915.44 129.706C915.44 129.292 915.323 128.959 915.089 128.707C914.873 128.437 914.495 128.194 913.955 127.978C913.433 127.744 912.569 127.42 911.363 127.006C910.193 126.61 909.275 126.232 908.609 125.872C907.943 125.512 907.448 125.107 907.124 124.657C906.8 124.189 906.638 123.622 906.638 122.956C906.638 121.912 907.088 121.075 907.988 120.445C908.906 119.815 910.121 119.5 911.633 119.5C912.749 119.5 913.784 119.698 914.738 120.094C915.692 120.472 916.412 120.985 916.898 121.633C917.042 121.831 917.114 122.02 917.114 122.2C917.114 122.47 916.97 122.686 916.682 122.848C916.502 122.956 916.322 123.01 916.142 123.01C915.836 123.01 915.548 122.875 915.278 122.605C914.81 122.137 914.297 121.795 913.739 121.579C913.181 121.345 912.47 121.228 911.606 121.228C910.652 121.228 909.923 121.381 909.419 121.687C908.915 121.993 908.663 122.425 908.663 122.983C908.663 123.397 908.762 123.73 908.96 123.982C909.176 124.216 909.509 124.432 909.959 124.63C910.427 124.81 911.237 125.089 912.389 125.467C913.685 125.899 914.684 126.313 915.386 126.709C916.106 127.087 916.619 127.51 916.925 127.978C917.249 128.446 917.411 129.022 917.411 129.706C917.411 130.786 916.934 131.65 915.98 132.298C915.044 132.946 913.82 133.27 912.308 133.27ZM927.12 133.27C924.78 133.27 922.971 132.667 921.693 131.461C920.415 130.255 919.776 128.545 919.776 126.331C919.776 124.207 920.424 122.542 921.72 121.336C923.016 120.112 924.789 119.5 927.039 119.5C928.425 119.5 929.658 119.725 930.738 120.175C931.818 120.607 932.655 121.228 933.249 122.038C933.861 122.83 934.167 123.739 934.167 124.765C934.167 125.521 933.951 126.106 933.519 126.52C933.105 126.934 932.529 127.141 931.791 127.141H921.801C921.801 128.527 922.269 129.616 923.205 130.408C924.141 131.182 925.446 131.569 927.12 131.569C928.146 131.569 929.028 131.461 929.766 131.245C930.504 131.011 931.197 130.642 931.845 130.138C932.187 129.85 932.466 129.706 932.682 129.706C932.844 129.706 932.997 129.778 933.141 129.922C933.393 130.138 933.519 130.363 933.519 130.597C933.519 130.777 933.411 130.975 933.195 131.191C932.457 131.893 931.593 132.415 930.603 132.757C929.613 133.099 928.452 133.27 927.12 133.27ZM931.197 125.548C931.521 125.548 931.764 125.485 931.926 125.359C932.088 125.215 932.169 124.963 932.169 124.603C932.169 123.955 931.953 123.37 931.521 122.848C931.089 122.326 930.477 121.921 929.685 121.633C928.911 121.345 928.029 121.201 927.039 121.201C925.437 121.201 924.168 121.597 923.232 122.389C922.314 123.163 921.855 124.216 921.855 125.548H931.197ZM938.221 133.27C937.915 133.27 937.672 133.18 937.492 133C937.33 132.802 937.249 132.532 937.249 132.19V120.58C937.249 120.238 937.33 119.977 937.492 119.797C937.654 119.599 937.897 119.5 938.221 119.5C938.527 119.5 938.761 119.599 938.923 119.797C939.103 119.977 939.193 120.238 939.193 120.58V122.2C940.417 120.58 942.109 119.77 944.269 119.77H944.944C945.286 119.77 945.556 119.851 945.754 120.013C945.952 120.157 946.051 120.364 946.051 120.634C946.051 120.904 945.952 121.111 945.754 121.255C945.556 121.399 945.286 121.471 944.944 121.471H944.188C942.658 121.471 941.443 121.912 940.543 122.794C939.661 123.658 939.22 124.837 939.22 126.331V132.19C939.22 132.514 939.13 132.775 938.95 132.973C938.788 133.171 938.545 133.27 938.221 133.27ZM957.208 130.327C957.406 130.489 957.505 130.678 957.505 130.894C957.505 131.074 957.424 131.29 957.262 131.542C956.884 132.064 956.362 132.487 955.696 132.811C955.03 133.117 954.346 133.27 953.644 133.27C952.456 133.27 951.52 132.919 950.836 132.217C950.152 131.515 949.81 130.552 949.81 129.328V121.417H948.352C947.632 121.417 947.272 121.138 947.272 120.58C947.272 120.328 947.362 120.13 947.542 119.986C947.74 119.842 948.01 119.77 948.352 119.77H949.81V115.153C949.81 114.811 949.891 114.55 950.053 114.37C950.233 114.172 950.485 114.073 950.809 114.073C951.115 114.073 951.349 114.172 951.511 114.37C951.691 114.55 951.781 114.811 951.781 115.153V119.77H955.453C955.777 119.77 956.029 119.842 956.209 119.986C956.407 120.112 956.506 120.31 956.506 120.58C956.506 121.138 956.155 121.417 955.453 121.417H951.781V129.49C951.781 130.876 952.429 131.569 953.725 131.569C954.139 131.569 954.517 131.488 954.859 131.326C955.201 131.164 955.543 130.903 955.885 130.543C956.155 130.255 956.416 130.111 956.668 130.111C956.83 130.111 957.01 130.183 957.208 130.327ZM966.149 133.27C964.889 133.27 963.701 133.036 962.585 132.568C961.469 132.082 960.587 131.416 959.939 130.57C959.813 130.39 959.75 130.21 959.75 130.03C959.75 129.85 959.795 129.697 959.885 129.571C959.993 129.427 960.128 129.319 960.29 129.247C960.434 129.193 960.551 129.166 960.641 129.166C960.803 129.166 960.938 129.211 961.046 129.301C961.172 129.373 961.316 129.499 961.478 129.679C962.648 130.921 964.205 131.542 966.149 131.542C967.085 131.542 967.841 131.38 968.417 131.056C968.993 130.732 969.281 130.282 969.281 129.706C969.281 129.292 969.164 128.959 968.93 128.707C968.714 128.437 968.336 128.194 967.796 127.978C967.274 127.744 966.41 127.42 965.204 127.006C964.034 126.61 963.116 126.232 962.45 125.872C961.784 125.512 961.289 125.107 960.965 124.657C960.641 124.189 960.479 123.622 960.479 122.956C960.479 121.912 960.929 121.075 961.829 120.445C962.747 119.815 963.962 119.5 965.474 119.5C966.59 119.5 967.625 119.698 968.579 120.094C969.533 120.472 970.253 120.985 970.739 121.633C970.883 121.831 970.955 122.02 970.955 122.2C970.955 122.47 970.811 122.686 970.523 122.848C970.343 122.956 970.163 123.01 969.983 123.01C969.677 123.01 969.389 122.875 969.119 122.605C968.651 122.137 968.138 121.795 967.58 121.579C967.022 121.345 966.311 121.228 965.447 121.228C964.493 121.228 963.764 121.381 963.26 121.687C962.756 121.993 962.504 122.425 962.504 122.983C962.504 123.397 962.603 123.73 962.801 123.982C963.017 124.216 963.35 124.432 963.8 124.63C964.268 124.81 965.078 125.089 966.23 125.467C967.526 125.899 968.525 126.313 969.227 126.709C969.947 127.087 970.46 127.51 970.766 127.978C971.09 128.446 971.252 129.022 971.252 129.706C971.252 130.786 970.775 131.65 969.821 132.298C968.885 132.946 967.661 133.27 966.149 133.27ZM976.102 128.599C975.49 128.599 975.184 128.257 975.184 127.573L975.022 114.91C975.022 114.568 975.121 114.307 975.319 114.127C975.517 113.929 975.778 113.83 976.102 113.83C976.426 113.83 976.687 113.929 976.885 114.127C977.101 114.325 977.209 114.586 977.209 114.91L977.02 127.573C977.02 128.257 976.714 128.599 976.102 128.599ZM976.102 133.27C975.616 133.27 975.22 133.135 974.914 132.865C974.608 132.577 974.455 132.217 974.455 131.785C974.455 131.335 974.608 130.966 974.914 130.678C975.238 130.372 975.634 130.219 976.102 130.219C976.57 130.219 976.957 130.372 977.263 130.678C977.587 130.966 977.749 131.335 977.749 131.785C977.749 132.217 977.596 132.577 977.29 132.865C976.984 133.135 976.588 133.27 976.102 133.27Z" fill="#FFFEFB"/>
<path d="M1395.97 63.2135L1395.97 63.2135L1395.98 63.201L1396.01 62.5131L1396.01 62.5131L1396.01 62.5006C1396.08 58.8404 1394.74 55.292 1392.28 52.5892C1389.95 50.0488 1386.8 48.4381 1383.4 48.0406C1384.24 46.654 1384.83 45.132 1385.16 43.5403C1385.53 41.7077 1385.54 39.8191 1385.18 37.9834C1384.82 36.1477 1384.1 34.4013 1383.06 32.845C1382.03 31.2888 1380.69 29.9534 1379.14 28.916L1379.14 28.9159L1379.12 28.9088L1378.51 28.5203L1378.51 28.5202L1378.5 28.5142C1375.37 26.6481 1371.65 26.0452 1368.09 26.8284C1364.72 27.5705 1361.74 29.5036 1359.69 32.2619C1357.98 29.1293 1355.16 26.7414 1351.77 25.5798C1348.2 24.3557 1344.29 24.5929 1340.89 26.2396C1339.21 27.0493 1337.7 28.1836 1336.46 29.5774C1335.22 30.9714 1334.26 32.5973 1333.65 34.3618L1333.65 34.369L1333.65 34.3764L1333.4 35.1732L1333.39 35.1806L1333.39 35.1881C1332.52 38.3018 1332.75 41.6117 1334.01 44.5703C1330.46 44.4841 1327 45.7247 1324.31 48.063C1321.45 50.5449 1319.7 54.0599 1319.43 57.835L1319.43 57.835L1319.43 57.8475L1319.4 58.5355L1319.4 58.5355L1319.4 58.548C1319.33 62.2081 1320.66 65.7566 1323.13 68.4594C1325.45 71.0007 1328.61 72.6116 1332.02 73.0084C1331.18 74.3963 1330.58 75.9199 1330.25 77.5132C1329.88 79.3447 1329.87 81.2321 1330.23 83.0666C1330.59 84.901 1331.31 86.6462 1332.35 88.2016C1333.38 89.7569 1334.72 91.0917 1336.27 92.129L1336.27 92.1291L1336.28 92.1346L1336.9 92.5263L1336.9 92.5303L1336.91 92.5341C1340.04 94.4002 1343.76 95.0032 1347.31 94.2199C1350.68 93.4778 1353.66 91.5445 1355.72 88.786C1357.42 91.9173 1360.24 94.3048 1363.63 95.4669C1367.2 96.6925 1371.11 96.4559 1374.51 94.8087C1376.19 93.9994 1377.7 92.8656 1378.94 91.4725C1380.19 90.0791 1381.14 88.4539 1381.75 86.6901L1381.76 86.6826L1381.76 86.6749L1382.01 85.8746L1382.01 85.8675L1382.01 85.8604C1382.88 82.747 1382.66 79.4372 1381.39 76.4782C1384.94 76.5645 1388.41 75.3239 1391.1 72.9855C1393.96 70.5037 1395.71 66.9886 1395.97 63.2135ZM1365.12 54.0798C1366.83 56.0474 1367.69 58.6133 1367.51 61.2131C1367.32 63.8129 1366.12 66.2337 1364.15 67.9429C1362.18 69.652 1359.61 70.5096 1357.02 70.3269C1354.42 70.1442 1351.99 68.9362 1350.29 66.9687C1348.58 65.0012 1347.72 62.4353 1347.9 59.8354C1348.08 57.2356 1349.29 54.8149 1351.26 53.1057C1353.23 51.3965 1355.79 50.539 1358.39 50.7216C1360.99 50.9043 1363.41 52.1123 1365.12 54.0798Z" fill="#FFEBA2" stroke="#C19758"/>
<path d="M695.762 99.07C694.152 99.07 692.88 98.2883 691.947 96.725C691.037 95.1617 690.5 93.1083 690.337 90.565C690.15 87.415 690.488 84.6383 691.352 82.235C692.238 79.8083 693.568 77.9183 695.342 76.565C697.115 75.2117 699.227 74.535 701.677 74.535C704.15 74.535 706.262 75.2117 708.012 76.565C709.785 77.9183 711.103 79.7967 711.967 82.2C712.853 84.6033 713.192 87.3917 712.982 90.565C712.818 93.1783 712.27 95.2433 711.337 96.76C710.427 98.2767 709.167 99.035 707.557 99.035C706.647 99.035 705.947 98.8717 705.457 98.545C704.967 98.195 704.617 97.7633 704.407 97.25C704.22 96.7133 704.127 96.1767 704.127 95.64C704.127 95.08 704.162 94.6017 704.232 94.205C703.485 94.2283 702.61 94.2517 701.607 94.275C700.603 94.275 699.763 94.2517 699.087 94.205C699.157 94.6017 699.192 95.08 699.192 95.64C699.192 96.1767 699.087 96.7133 698.877 97.25C698.69 97.7633 698.352 98.195 697.862 98.545C697.372 98.895 696.672 99.07 695.762 99.07ZM698.842 87.975C700.685 87.905 702.528 87.905 704.372 87.975C704.488 87.1583 704.477 86.3767 704.337 85.63C704.197 84.8833 703.905 84.2767 703.462 83.81C703.018 83.3433 702.388 83.11 701.572 83.11C700.755 83.11 700.125 83.3433 699.682 83.81C699.262 84.2767 698.982 84.8833 698.842 85.63C698.725 86.3533 698.725 87.135 698.842 87.975ZM724.819 99C723.139 99 721.728 98.7667 720.584 98.3C719.441 97.81 718.496 97.18 717.749 96.41C717.026 95.64 716.454 94.8 716.034 93.89C715.638 92.98 715.346 92.0817 715.159 91.195C714.973 90.3083 714.856 89.5033 714.809 88.78C714.786 88.0567 714.774 87.52 714.774 87.17C714.774 86.0967 714.833 84.9767 714.949 83.81C715.066 82.6433 715.253 81.5117 715.509 80.415C715.766 79.295 716.104 78.2917 716.524 77.405C716.968 76.5183 717.493 75.8067 718.099 75.27C718.706 74.7333 719.429 74.465 720.269 74.465C721.016 74.465 721.693 74.71 722.299 75.2C722.929 75.69 723.244 76.4483 723.244 77.475C723.244 78.4783 723.081 79.47 722.754 80.45C722.451 81.4067 722.253 82.3867 722.159 83.39C722.696 83.0867 723.268 82.8767 723.874 82.76C724.481 82.62 725.076 82.55 725.659 82.55C726.896 82.55 728.086 82.8417 729.229 83.425C730.373 83.985 731.306 84.8483 732.029 86.015C732.776 87.1817 733.149 88.675 733.149 90.495C733.149 91.9183 732.811 93.2833 732.134 94.59C731.481 95.8967 730.524 96.9583 729.264 97.775C728.028 98.5917 726.546 99 724.819 99ZM724.609 93.47C725.239 93.47 725.788 93.2367 726.254 92.77C726.744 92.28 726.989 91.7083 726.989 91.055C726.989 90.4017 726.744 89.83 726.254 89.34C725.788 88.85 725.239 88.605 724.609 88.605C723.979 88.605 723.431 88.85 722.964 89.34C722.498 89.83 722.264 90.4017 722.264 91.055C722.264 91.7083 722.498 92.28 722.964 92.77C723.431 93.2367 723.979 93.47 724.609 93.47ZM742.973 99.035C741.246 99.0583 739.729 98.7083 738.423 97.985C737.139 97.2383 736.124 96.235 735.378 94.975C734.654 93.6917 734.269 92.28 734.223 90.74C734.199 89.1533 734.561 87.7533 735.308 86.54C736.054 85.3033 737.093 84.3233 738.423 83.6C739.753 82.8767 741.269 82.515 742.973 82.515C744.653 82.4917 746.134 82.8417 747.418 83.565C748.724 84.2883 749.763 85.2683 750.533 86.505C751.303 87.7417 751.711 89.1533 751.758 90.74C751.781 92.2567 751.419 93.645 750.673 94.905C749.926 96.1417 748.888 97.1333 747.558 97.88C746.228 98.6033 744.699 98.9883 742.973 99.035ZM743.078 93.925C743.708 93.925 744.256 93.68 744.723 93.19C745.189 92.7 745.423 92.1283 745.423 91.475C745.423 90.8217 745.189 90.2617 744.723 89.795C744.256 89.305 743.708 89.06 743.078 89.06C742.448 89.06 741.899 89.305 741.433 89.795C740.966 90.2617 740.733 90.8217 740.733 91.475C740.733 92.1283 740.966 92.7 741.433 93.19C741.899 93.68 742.448 93.925 743.078 93.925ZM761.286 99C759.56 99 758.055 98.58 756.771 97.74C755.511 96.8767 754.531 95.6867 753.831 94.17C753.155 92.63 752.816 90.8567 752.816 88.85C752.816 86.89 753.12 85.35 753.726 84.23C754.356 83.11 755.243 82.55 756.386 82.55C757.203 82.55 757.821 82.7017 758.241 83.005C758.685 83.3083 758.976 83.6933 759.116 84.16C759.28 84.6033 759.361 85.0817 759.361 85.595C759.361 86.2483 759.315 86.9133 759.221 87.59C759.151 88.2667 759.116 88.99 759.116 89.76C759.116 90.8567 759.338 91.6617 759.781 92.175C760.248 92.665 760.75 92.91 761.286 92.91C761.87 92.91 762.371 92.665 762.791 92.175C763.235 91.6617 763.456 90.8567 763.456 89.76C763.456 88.99 763.421 88.3017 763.351 87.695C763.281 87.0883 763.246 86.4 763.246 85.63C763.246 84.8133 763.445 84.1017 763.841 83.495C764.238 82.865 765.031 82.55 766.221 82.55C767.365 82.55 768.24 83.11 768.846 84.23C769.453 85.35 769.756 86.89 769.756 88.85C769.756 90.8567 769.441 92.63 768.811 94.17C768.181 95.6867 767.236 96.8767 765.976 97.74C764.74 98.58 763.176 99 761.286 99ZM782.535 99C781.719 99 780.89 98.8367 780.05 98.51C779.21 98.1833 778.452 97.705 777.775 97.075C777.122 96.445 776.644 95.6867 776.34 94.8C776.13 94.2167 775.979 93.4933 775.885 92.63C775.792 91.7667 775.722 90.845 775.675 89.865C775.652 88.885 775.64 87.9283 775.64 86.995C774.73 86.9717 773.855 86.89 773.015 86.75C772.199 86.61 771.522 86.3533 770.985 85.98C770.472 85.5833 770.215 85.0117 770.215 84.265C770.215 83.355 770.46 82.6783 770.95 82.235C771.44 81.7683 772.094 81.465 772.91 81.325C773.75 81.1617 774.66 81.0683 775.64 81.045C775.664 80.3217 775.722 79.5867 775.815 78.84C775.932 78.07 776.119 77.3583 776.375 76.705C776.632 76.0517 776.994 75.5267 777.46 75.13C777.927 74.71 778.534 74.5 779.28 74.5C780.284 74.5 781.007 74.815 781.45 75.445C781.917 76.075 782.209 76.8917 782.325 77.895C782.442 78.8983 782.489 79.9483 782.465 81.045C783.679 81.0217 784.752 81.0683 785.685 81.185C786.619 81.3017 787.354 81.5583 787.89 81.955C788.427 82.3517 788.695 82.9817 788.695 83.845C788.695 84.7317 788.392 85.3967 787.785 85.84C787.179 86.2833 786.385 86.5867 785.405 86.75C784.425 86.89 783.387 86.9717 782.29 86.995C782.29 87.4383 782.279 87.905 782.255 88.395C782.255 88.8617 782.255 89.34 782.255 89.83C782.255 91.16 782.349 92.105 782.535 92.665C782.675 93.085 782.862 93.3533 783.095 93.47C783.352 93.5867 783.667 93.6567 784.04 93.68C784.414 93.68 784.869 93.75 785.405 93.89C785.942 94.0067 786.362 94.2983 786.665 94.765C786.969 95.2083 787.12 95.78 787.12 96.48C787.12 97.2733 786.7 97.8917 785.86 98.335C785.044 98.7783 783.935 99 782.535 99Z" fill="#FFFEFB"/>
</svg>
