<svg width="1479" height="212" viewBox="0 0 1479 212" fill="none" xmlns="http://www.w3.org/2000/svg">
<rect width="1479" height="212" fill="#FFFDEA"/>
<rect y="50" width="1479" height="110" fill="#FD9584"/>
<path d="M113.676 19.0383L113.676 19.0382L113.664 19.0378L113.113 19.0194L113.113 19.0192L113.1 19.0191C110.145 18.9946 107.293 20.107 105.134 22.1263C103.143 23.989 101.882 26.4921 101.564 29.1853C100.472 28.5617 99.2841 28.1213 98.0463 27.8835C96.563 27.5986 95.0381 27.6102 93.5594 27.9178C92.0807 28.2253 90.6775 28.8227 89.4309 29.6753C88.1843 30.528 87.1188 31.6192 86.2961 32.8858L86.296 32.8857L86.289 32.897L85.9839 33.3953L85.9838 33.3953L85.978 33.4053C84.5012 35.948 84.05 38.9583 84.7164 41.8222C85.3359 44.485 86.8781 46.8348 89.0589 48.4616C86.6126 49.8767 84.7631 52.1447 83.8739 54.8424C82.9197 57.737 83.1485 60.8914 84.5104 63.618C85.1802 64.9688 86.1104 66.1739 87.2475 67.1639C88.3849 68.154 89.7068 68.9095 91.1372 69.3869L91.1445 69.3893L91.1519 69.3915L91.792 69.5835L91.7995 69.5857L91.8069 69.5877C94.2795 70.2464 96.8942 70.0553 99.2352 69.0577C99.2377 71.8694 100.269 74.5925 102.149 76.7049C104.18 78.9878 107.034 80.3703 110.084 80.5484L110.084 80.5486L110.097 80.549L110.648 80.5674L110.648 80.5676L110.66 80.5677C113.616 80.5922 116.468 79.4798 118.627 77.4605C120.619 75.597 121.879 73.0928 122.198 70.3983C123.29 71.0225 124.48 71.463 125.719 71.7005C127.201 71.9847 128.725 71.9726 130.203 71.6651C131.68 71.3575 133.082 70.7605 134.328 69.9086C135.574 69.0566 136.639 67.9665 137.462 66.701L137.462 66.7011L137.467 66.6923L137.775 66.1969L137.779 66.1906L137.783 66.1842C139.259 63.6415 139.711 60.6313 139.044 57.7673C138.425 55.1044 136.882 52.7545 134.702 51.1277C137.147 49.7132 138.996 47.4464 139.886 44.75C140.841 41.8547 140.613 38.6991 139.25 35.9715C138.581 34.6211 137.651 33.4162 136.514 32.4263C135.378 31.4361 134.056 30.6805 132.626 30.2029L132.619 30.2003L132.611 30.198L131.968 30.0059L131.961 30.0038L131.954 30.0019C129.482 29.3424 126.867 29.5326 124.526 30.5293C124.523 27.7176 123.492 24.9944 121.612 22.8819C119.581 20.599 116.727 19.2165 113.676 19.0383ZM106.719 43.9915C108.257 42.6225 110.277 41.9209 112.333 42.0409C114.389 42.161 116.313 43.0929 117.682 44.6317C119.051 46.1705 119.753 48.19 119.633 50.2461C119.513 52.3022 118.581 54.2264 117.042 55.5953C115.503 56.9643 113.484 57.6659 111.428 57.5459C109.372 57.4258 107.447 56.4939 106.079 54.9551C104.71 53.4163 104.008 51.3968 104.128 49.3407C104.248 47.2846 105.18 45.3604 106.719 43.9915Z" fill="#A7D9DD" stroke="#789C9F"/>
<path d="M345.171 155.322L345.171 155.322L345.172 155.309L345.213 154.626L345.213 154.626L345.213 154.613C345.338 150.977 344.061 147.431 341.645 144.709C339.375 142.153 336.264 140.508 332.889 140.063C333.741 138.698 334.355 137.195 334.7 135.619C335.098 133.803 335.133 131.926 334.802 130.096C334.471 128.267 333.781 126.521 332.771 124.959C331.762 123.398 330.453 122.052 328.921 120.998L328.921 120.998L328.91 120.991L328.301 120.596L328.301 120.596L328.291 120.59C325.209 118.691 321.519 118.039 317.973 118.767C314.615 119.457 311.626 121.335 309.548 124.045C307.894 120.91 305.124 118.498 301.774 117.296C298.242 116.029 294.352 116.209 290.952 117.798C289.268 118.579 287.755 119.685 286.501 121.053C285.246 122.421 284.273 124.023 283.64 125.769L283.637 125.776L283.635 125.783L283.376 126.571L283.374 126.579L283.371 126.586C282.464 129.667 282.639 132.958 283.854 135.916C280.33 135.781 276.872 136.965 274.165 139.251C271.29 141.677 269.497 145.146 269.18 148.894L269.18 148.894L269.179 148.907L269.139 149.59L269.138 149.59L269.138 149.603C269.013 153.239 270.291 156.785 272.707 159.507C274.977 162.064 278.09 163.71 281.467 164.153C280.613 165.52 280 167.024 279.654 168.602C279.257 170.417 279.223 172.293 279.554 174.121C279.885 175.949 280.575 177.694 281.584 179.255C282.592 180.816 283.9 182.161 285.431 183.214L285.43 183.214L285.439 183.22L286.044 183.618L286.05 183.622L286.057 183.626C289.139 185.525 292.829 186.177 296.375 185.448C299.733 184.759 302.723 182.881 304.8 180.17C306.453 183.304 309.222 185.716 312.571 186.918C316.104 188.187 319.995 188.007 323.396 186.418C325.079 185.637 326.592 184.532 327.846 183.164C329.101 181.797 330.074 180.195 330.707 178.451L330.71 178.443L330.713 178.436L330.972 177.644L330.974 177.637L330.976 177.63C331.885 174.549 331.711 171.258 330.496 168.3C334.021 168.435 337.479 167.251 340.186 164.966C343.061 162.539 344.854 159.07 345.171 155.322ZM314.636 145.811C316.306 147.79 317.122 150.351 316.904 152.931C316.686 155.511 315.451 157.899 313.473 159.569C311.494 161.239 308.933 162.055 306.353 161.836C303.773 161.618 301.385 160.384 299.715 158.405C298.045 156.426 297.229 153.865 297.447 151.285C297.666 148.705 298.9 146.317 300.878 144.647C302.857 142.977 305.418 142.161 307.998 142.38C310.579 142.598 312.966 143.832 314.636 145.811Z" fill="#C5D146" stroke="#939C35"/>
<path d="M1335.98 160.133L1335.98 160.133L1335.98 160.121L1335.98 159.649L1335.98 159.649L1335.98 159.636C1335.95 157.087 1334.93 154.65 1333.15 152.828C1331.53 151.174 1329.39 150.142 1327.1 149.899C1327.59 148.972 1327.93 147.972 1328.1 146.935C1328.32 145.651 1328.28 144.336 1327.99 143.067C1327.69 141.798 1327.15 140.6 1326.39 139.541C1325.63 138.483 1324.67 137.586 1323.56 136.901L1323.56 136.901L1323.55 136.894L1323.12 136.643L1323.12 136.643L1323.11 136.637C1320.88 135.414 1318.28 135.084 1315.82 135.714C1313.57 136.292 1311.61 137.634 1310.25 139.501C1308.98 137.466 1307.01 135.95 1304.7 135.247C1302.19 134.481 1299.47 134.74 1297.15 135.968C1295.99 136.572 1294.97 137.398 1294.14 138.397C1293.31 139.398 1292.69 140.552 1292.3 141.795L1292.3 141.802L1292.3 141.81L1292.15 142.362L1292.14 142.369L1292.14 142.377C1291.63 144.486 1291.83 146.699 1292.7 148.673C1290.31 148.755 1288.03 149.695 1286.27 151.332C1284.34 153.128 1283.21 155.616 1283.11 158.25L1283.11 158.25L1283.11 158.262L1283.11 158.734L1283.11 158.734L1283.11 158.747C1283.14 161.296 1284.16 163.733 1285.94 165.555C1287.56 167.21 1289.71 168.242 1291.99 168.485C1291.51 169.412 1291.17 170.414 1290.99 171.451C1290.78 172.735 1290.82 174.049 1291.11 175.317C1291.4 176.585 1291.95 177.783 1292.71 178.84C1293.46 179.898 1294.43 180.795 1295.53 181.479L1295.53 181.48L1295.54 181.485L1295.97 181.739L1295.98 181.742L1295.98 181.746C1298.21 182.969 1300.81 183.299 1303.27 182.669C1305.52 182.091 1307.48 180.749 1308.84 178.882C1310.11 180.916 1312.08 182.431 1314.39 183.135C1316.9 183.902 1319.62 183.643 1321.94 182.415C1323.09 181.812 1324.12 180.986 1324.95 179.987C1325.78 178.987 1326.4 177.833 1326.79 176.591L1326.79 176.583L1326.79 176.575L1326.94 176.021L1326.95 176.014L1326.95 176.007C1327.46 173.897 1327.26 171.685 1326.39 169.71C1328.78 169.628 1331.06 168.689 1332.82 167.051C1334.75 165.255 1335.89 162.767 1335.98 160.133ZM1314.36 154.709C1315.55 155.986 1316.18 157.682 1316.12 159.426C1316.06 161.169 1315.31 162.816 1314.03 164.005C1312.75 165.194 1311.06 165.827 1309.31 165.765C1307.57 165.703 1305.92 164.951 1304.73 163.674C1303.54 162.397 1302.91 160.701 1302.97 158.957C1303.04 157.214 1303.79 155.567 1305.06 154.378C1306.34 153.189 1308.04 152.556 1309.78 152.618C1311.52 152.681 1313.17 153.433 1314.36 154.709Z" fill="#FFD5E3" stroke="#C66D7F"/>
<path d="M471.181 54.4898L471.181 54.4898L471.182 54.4774L471.237 54.0365L471.237 54.0365L471.238 54.0241C471.474 51.6283 470.78 49.2336 469.3 47.3352C467.964 45.6223 466.08 44.4317 463.976 43.9544C464.521 43.146 464.937 42.2557 465.207 41.3155C465.546 40.1331 465.648 38.8952 465.507 37.6732C465.365 36.4512 464.983 35.2693 464.383 34.1957C463.782 33.1222 462.975 32.1782 462.007 31.4183L462.007 31.4181L461.997 31.4102L461.619 31.1293L461.619 31.1292L461.609 31.1224C459.655 29.7389 457.246 29.153 454.874 29.4843C452.718 29.7856 450.739 30.8248 449.27 32.4142C448.291 30.3882 446.613 28.7729 444.535 27.8739C442.257 26.8886 439.681 26.8438 437.37 27.7492C436.226 28.1939 435.18 28.8604 434.294 29.7106C433.408 30.5609 432.698 31.5781 432.207 32.7036L432.204 32.7106L432.201 32.7178L432 33.2178L431.998 33.225L431.995 33.2322C431.297 35.1443 431.246 37.2254 431.839 39.1586C429.606 38.9943 427.379 39.6338 425.567 40.975C423.567 42.4557 422.237 44.6703 421.87 47.1316L421.87 47.1315L421.868 47.1439L421.814 47.5849L421.814 47.5848L421.812 47.5973C421.576 49.993 422.271 52.3878 423.751 54.2861C425.087 55.9998 426.972 57.1906 429.077 57.6675C428.531 58.4767 428.115 59.368 427.845 60.3093C427.507 61.491 427.405 62.7281 427.547 63.9493C427.688 65.1705 428.07 66.3516 428.67 67.4245C429.27 68.4974 430.077 69.441 431.043 70.2008L431.043 70.2008L431.051 70.2071L431.427 70.4899L431.433 70.4943L431.439 70.4986C433.393 71.8821 435.802 72.468 438.174 72.1367C440.331 71.8354 442.309 70.7961 443.779 69.2066C444.757 71.2318 446.434 72.8466 448.511 73.7459C450.79 74.7322 453.366 74.7775 455.678 73.8718C456.822 73.4274 457.867 72.7612 458.754 71.9114C459.64 71.0615 460.349 70.0448 460.841 68.9198L460.844 68.9124L460.847 68.905L461.048 68.4028L461.051 68.3959L461.053 68.3889C461.752 66.4772 461.804 64.3961 461.212 62.4627C463.444 62.6271 465.671 61.9876 467.483 60.6463C469.483 59.1657 470.813 56.9511 471.181 54.4898ZM451.478 47.1441C452.45 48.4577 452.861 50.1037 452.62 51.7202C452.379 53.3366 451.505 54.791 450.192 55.7634C448.878 56.7359 447.232 57.1467 445.616 56.9055C443.999 56.6642 442.545 55.7908 441.572 54.4772C440.6 53.1637 440.189 51.5176 440.43 49.9012C440.672 48.2848 441.545 46.8304 442.859 45.8579C444.172 44.8855 445.818 44.4747 447.435 44.7159C449.051 44.9571 450.506 45.8306 451.478 47.1441Z" fill="#EDCDFF" stroke="#AD93BC"/>
<path d="M539.206 133C538.108 133 537.253 132.712 536.641 132.136C536.029 131.542 535.723 130.732 535.723 129.706V114.91C535.723 114.568 535.813 114.307 535.993 114.127C536.173 113.929 536.416 113.83 536.722 113.83C537.046 113.83 537.298 113.929 537.478 114.127C537.658 114.307 537.748 114.568 537.748 114.91V129.76C537.748 130.228 537.874 130.606 538.126 130.894C538.396 131.182 538.747 131.326 539.179 131.326H548.17C548.872 131.326 549.223 131.605 549.223 132.163C549.223 132.433 549.133 132.64 548.953 132.784C548.773 132.928 548.512 133 548.17 133H539.206ZM557.729 133.27C555.389 133.27 553.58 132.667 552.302 131.461C551.024 130.255 550.385 128.545 550.385 126.331C550.385 124.207 551.033 122.542 552.329 121.336C553.625 120.112 555.398 119.5 557.648 119.5C559.034 119.5 560.267 119.725 561.347 120.175C562.427 120.607 563.264 121.228 563.858 122.038C564.47 122.83 564.776 123.739 564.776 124.765C564.776 125.521 564.56 126.106 564.128 126.52C563.714 126.934 563.138 127.141 562.4 127.141H552.41C552.41 128.527 552.878 129.616 553.814 130.408C554.75 131.182 556.055 131.569 557.729 131.569C558.755 131.569 559.637 131.461 560.375 131.245C561.113 131.011 561.806 130.642 562.454 130.138C562.796 129.85 563.075 129.706 563.291 129.706C563.453 129.706 563.606 129.778 563.75 129.922C564.002 130.138 564.128 130.363 564.128 130.597C564.128 130.777 564.02 130.975 563.804 131.191C563.066 131.893 562.202 132.415 561.212 132.757C560.222 133.099 559.061 133.27 557.729 133.27ZM561.806 125.548C562.13 125.548 562.373 125.485 562.535 125.359C562.697 125.215 562.778 124.963 562.778 124.603C562.778 123.955 562.562 123.37 562.13 122.848C561.698 122.326 561.086 121.921 560.294 121.633C559.52 121.345 558.638 121.201 557.648 121.201C556.046 121.201 554.777 121.597 553.841 122.389C552.923 123.163 552.464 124.216 552.464 125.548H561.806ZM576.163 130.327C576.361 130.489 576.46 130.678 576.46 130.894C576.46 131.074 576.379 131.29 576.217 131.542C575.839 132.064 575.317 132.487 574.651 132.811C573.985 133.117 573.301 133.27 572.599 133.27C571.411 133.27 570.475 132.919 569.791 132.217C569.107 131.515 568.765 130.552 568.765 129.328V121.417H567.307C566.587 121.417 566.227 121.138 566.227 120.58C566.227 120.328 566.317 120.13 566.497 119.986C566.695 119.842 566.965 119.77 567.307 119.77H568.765V115.153C568.765 114.811 568.846 114.55 569.008 114.37C569.188 114.172 569.44 114.073 569.764 114.073C570.07 114.073 570.304 114.172 570.466 114.37C570.646 114.55 570.736 114.811 570.736 115.153V119.77H574.408C574.732 119.77 574.984 119.842 575.164 119.986C575.362 120.112 575.461 120.31 575.461 120.58C575.461 121.138 575.11 121.417 574.408 121.417H570.736V129.49C570.736 130.876 571.384 131.569 572.68 131.569C573.094 131.569 573.472 131.488 573.814 131.326C574.156 131.164 574.498 130.903 574.84 130.543C575.11 130.255 575.371 130.111 575.623 130.111C575.785 130.111 575.965 130.183 576.163 130.327ZM592.113 133.27C590.349 133.27 588.963 132.766 587.955 131.758C586.965 130.75 586.47 129.346 586.47 127.546V120.58C586.47 120.238 586.56 119.977 586.74 119.797C586.92 119.599 587.163 119.5 587.469 119.5C587.775 119.5 588.009 119.599 588.171 119.797C588.351 119.977 588.441 120.238 588.441 120.58V127.546C588.441 128.824 588.783 129.814 589.467 130.516C590.151 131.218 591.105 131.569 592.329 131.569C593.301 131.569 594.165 131.353 594.921 130.921C595.677 130.489 596.262 129.886 596.676 129.112C597.108 128.338 597.324 127.447 597.324 126.439V120.58C597.324 120.238 597.405 119.977 597.567 119.797C597.747 119.599 597.999 119.5 598.323 119.5C598.629 119.5 598.863 119.599 599.025 119.797C599.205 119.977 599.295 120.238 599.295 120.58V132.19C599.295 132.532 599.205 132.802 599.025 133C598.863 133.18 598.629 133.27 598.323 133.27C597.999 133.27 597.747 133.171 597.567 132.973C597.405 132.775 597.324 132.514 597.324 132.19V130.597C596.658 131.461 595.884 132.127 595.002 132.595C594.12 133.045 593.157 133.27 592.113 133.27ZM608.834 133.27C607.574 133.27 606.386 133.036 605.27 132.568C604.154 132.082 603.272 131.416 602.624 130.57C602.498 130.39 602.435 130.21 602.435 130.03C602.435 129.85 602.48 129.697 602.57 129.571C602.678 129.427 602.813 129.319 602.975 129.247C603.119 129.193 603.236 129.166 603.326 129.166C603.488 129.166 603.623 129.211 603.731 129.301C603.857 129.373 604.001 129.499 604.163 129.679C605.333 130.921 606.89 131.542 608.834 131.542C609.77 131.542 610.526 131.38 611.102 131.056C611.678 130.732 611.966 130.282 611.966 129.706C611.966 129.292 611.849 128.959 611.615 128.707C611.399 128.437 611.021 128.194 610.481 127.978C609.959 127.744 609.095 127.42 607.889 127.006C606.719 126.61 605.801 126.232 605.135 125.872C604.469 125.512 603.974 125.107 603.65 124.657C603.326 124.189 603.164 123.622 603.164 122.956C603.164 121.912 603.614 121.075 604.514 120.445C605.432 119.815 606.647 119.5 608.159 119.5C609.275 119.5 610.31 119.698 611.264 120.094C612.218 120.472 612.938 120.985 613.424 121.633C613.568 121.831 613.64 122.02 613.64 122.2C613.64 122.47 613.496 122.686 613.208 122.848C613.028 122.956 612.848 123.01 612.668 123.01C612.362 123.01 612.074 122.875 611.804 122.605C611.336 122.137 610.823 121.795 610.265 121.579C609.707 121.345 608.996 121.228 608.132 121.228C607.178 121.228 606.449 121.381 605.945 121.687C605.441 121.993 605.189 122.425 605.189 122.983C605.189 123.397 605.288 123.73 605.486 123.982C605.702 124.216 606.035 124.432 606.485 124.63C606.953 124.81 607.763 125.089 608.915 125.467C610.211 125.899 611.21 126.313 611.912 126.709C612.632 127.087 613.145 127.51 613.451 127.978C613.775 128.446 613.937 129.022 613.937 129.706C613.937 130.786 613.46 131.65 612.506 132.298C611.57 132.946 610.346 133.27 608.834 133.27ZM630.817 133.27C629.377 133.27 628.108 132.991 627.01 132.433C625.912 131.857 625.066 131.047 624.472 130.003C623.878 128.959 623.581 127.744 623.581 126.358C623.581 124.99 623.878 123.793 624.472 122.767C625.066 121.723 625.912 120.922 627.01 120.364C628.108 119.788 629.377 119.5 630.817 119.5C632.167 119.5 633.337 119.689 634.327 120.067C635.317 120.445 636.1 121.003 636.676 121.741C636.82 121.939 636.892 122.128 636.892 122.308C636.892 122.578 636.757 122.821 636.487 123.037C636.361 123.145 636.199 123.199 636.001 123.199C635.695 123.199 635.407 123.064 635.137 122.794C634.183 121.732 632.743 121.201 630.817 121.201C629.143 121.201 627.847 121.651 626.929 122.551C626.029 123.433 625.579 124.702 625.579 126.358C625.579 127.996 626.038 129.274 626.956 130.192C627.874 131.11 629.161 131.569 630.817 131.569C631.735 131.569 632.581 131.434 633.355 131.164C634.129 130.876 634.768 130.471 635.272 129.949C635.578 129.643 635.866 129.49 636.136 129.49C636.298 129.49 636.478 129.562 636.676 129.706C636.928 129.922 637.054 130.156 637.054 130.408C637.054 130.642 636.955 130.84 636.757 131.002C635.875 131.794 634.957 132.37 634.003 132.73C633.049 133.09 631.987 133.27 630.817 133.27ZM641.128 133.27C640.822 133.27 640.579 133.18 640.399 133C640.237 132.802 640.156 132.532 640.156 132.19V120.58C640.156 120.238 640.237 119.977 640.399 119.797C640.561 119.599 640.804 119.5 641.128 119.5C641.434 119.5 641.668 119.599 641.83 119.797C642.01 119.977 642.1 120.238 642.1 120.58V122.2C643.324 120.58 645.016 119.77 647.176 119.77H647.851C648.193 119.77 648.463 119.851 648.661 120.013C648.859 120.157 648.958 120.364 648.958 120.634C648.958 120.904 648.859 121.111 648.661 121.255C648.463 121.399 648.193 121.471 647.851 121.471H647.095C645.565 121.471 644.35 121.912 643.45 122.794C642.568 123.658 642.127 124.837 642.127 126.331V132.19C642.127 132.514 642.037 132.775 641.857 132.973C641.695 133.171 641.452 133.27 641.128 133.27ZM655.512 133.27C653.748 133.27 652.362 132.883 651.354 132.109C650.364 131.335 649.869 130.264 649.869 128.896C649.869 127.546 650.391 126.475 651.435 125.683C652.497 124.891 653.937 124.495 655.755 124.495C656.817 124.495 657.753 124.639 658.563 124.927C659.391 125.215 660.03 125.602 660.48 126.088V124.36C660.48 123.334 660.138 122.551 659.454 122.011C658.788 121.471 657.807 121.201 656.511 121.201C654.837 121.201 653.388 121.597 652.164 122.389C651.858 122.569 651.606 122.659 651.408 122.659C651.228 122.659 651.048 122.587 650.868 122.443C650.67 122.281 650.571 122.074 650.571 121.822C650.571 121.552 650.688 121.327 650.922 121.147C651.57 120.643 652.389 120.247 653.379 119.959C654.387 119.653 655.413 119.5 656.457 119.5C658.365 119.5 659.841 119.932 660.885 120.796C661.947 121.66 662.478 122.875 662.478 124.441V132.217C662.478 132.919 662.154 133.27 661.506 133.27C661.218 133.27 660.984 133.18 660.804 133C660.624 132.802 660.534 132.55 660.534 132.244V131.272C659.418 132.604 657.744 133.27 655.512 133.27ZM655.755 131.623C657.159 131.623 658.302 131.362 659.184 130.84C660.066 130.3 660.507 129.607 660.507 128.761C660.507 127.915 660.093 127.267 659.265 126.817C658.455 126.349 657.303 126.115 655.809 126.115C654.549 126.115 653.577 126.358 652.893 126.844C652.209 127.312 651.867 127.996 651.867 128.896C651.867 129.778 652.2 130.453 652.866 130.921C653.532 131.389 654.495 131.623 655.755 131.623ZM675.091 114.262C675.271 114.424 675.361 114.622 675.361 114.856C675.361 115.09 675.262 115.306 675.064 115.504C674.884 115.648 674.713 115.72 674.551 115.72C674.317 115.72 674.002 115.603 673.606 115.369C672.958 114.991 672.265 114.802 671.527 114.802C670.195 114.802 669.529 115.522 669.529 116.962V119.77H673.363C674.065 119.77 674.416 120.049 674.416 120.607C674.416 120.859 674.326 121.057 674.146 121.201C673.966 121.345 673.705 121.417 673.363 121.417H669.529V132.19C669.529 132.532 669.439 132.802 669.259 133C669.097 133.18 668.863 133.27 668.557 133.27C668.251 133.27 668.008 133.18 667.828 133C667.648 132.802 667.558 132.532 667.558 132.19V121.417H666.262C665.92 121.417 665.65 121.345 665.452 121.201C665.272 121.057 665.182 120.859 665.182 120.607C665.182 120.049 665.542 119.77 666.262 119.77H667.558V117.07C667.558 115.864 667.909 114.901 668.611 114.181C669.331 113.443 670.276 113.074 671.446 113.074C672.184 113.074 672.868 113.182 673.498 113.398C674.128 113.596 674.659 113.884 675.091 114.262ZM686.035 130.327C686.233 130.489 686.332 130.678 686.332 130.894C686.332 131.074 686.251 131.29 686.089 131.542C685.711 132.064 685.189 132.487 684.523 132.811C683.857 133.117 683.173 133.27 682.471 133.27C681.283 133.27 680.347 132.919 679.663 132.217C678.979 131.515 678.637 130.552 678.637 129.328V121.417H677.179C676.459 121.417 676.099 121.138 676.099 120.58C676.099 120.328 676.189 120.13 676.369 119.986C676.567 119.842 676.837 119.77 677.179 119.77H678.637V115.153C678.637 114.811 678.718 114.55 678.88 114.37C679.06 114.172 679.312 114.073 679.636 114.073C679.942 114.073 680.176 114.172 680.338 114.37C680.518 114.55 680.608 114.811 680.608 115.153V119.77H684.28C684.604 119.77 684.856 119.842 685.036 119.986C685.234 120.112 685.333 120.31 685.333 120.58C685.333 121.138 684.982 121.417 684.28 121.417H680.608V129.49C680.608 130.876 681.256 131.569 682.552 131.569C682.966 131.569 683.344 131.488 683.686 131.326C684.028 131.164 684.37 130.903 684.712 130.543C684.982 130.255 685.243 130.111 685.495 130.111C685.657 130.111 685.837 130.183 686.035 130.327ZM702.498 139.75C701.166 139.75 699.978 139.552 698.934 139.156C697.89 138.76 697.125 138.22 696.639 137.536C696.513 137.356 696.45 137.176 696.45 136.996C696.45 136.708 696.594 136.456 696.882 136.24C696.99 136.15 697.152 136.105 697.368 136.105C697.674 136.105 697.962 136.249 698.232 136.537C698.628 137.005 699.204 137.374 699.96 137.644C700.734 137.932 701.553 138.076 702.417 138.076C704.037 138.076 705.315 137.59 706.251 136.618C707.205 135.646 707.682 134.332 707.682 132.676V130.84C707.124 131.578 706.413 132.145 705.549 132.541C704.685 132.919 703.731 133.108 702.687 133.108C700.491 133.108 698.772 132.487 697.53 131.245C696.306 129.985 695.694 128.239 695.694 126.007V120.499C695.694 120.229 695.793 120.004 695.991 119.824C696.189 119.626 696.432 119.527 696.72 119.527C697.008 119.527 697.242 119.626 697.422 119.824C697.62 120.004 697.719 120.229 697.719 120.499V126.007C697.719 127.735 698.151 129.085 699.015 130.057C699.897 131.011 701.121 131.488 702.687 131.488C704.235 131.488 705.432 131.029 706.278 130.111C707.124 129.193 707.547 127.888 707.547 126.196V120.769C707.547 120.373 707.637 120.067 707.817 119.851C708.015 119.617 708.285 119.5 708.627 119.5C708.951 119.5 709.203 119.617 709.383 119.851C709.581 120.067 709.68 120.373 709.68 120.769V132.541C709.68 133.963 709.374 135.214 708.762 136.294C708.168 137.392 707.331 138.238 706.251 138.832C705.171 139.444 703.92 139.75 702.498 139.75ZM720.074 133.27C718.508 133.27 717.167 132.955 716.051 132.325C714.935 131.695 714.089 130.858 713.513 129.814C712.955 128.752 712.676 127.609 712.676 126.385C712.676 125.161 712.955 124.027 713.513 122.983C714.089 121.921 714.935 121.075 716.051 120.445C717.167 119.815 718.508 119.5 720.074 119.5C721.64 119.5 722.972 119.815 724.07 120.445C725.186 121.075 726.023 121.921 726.581 122.983C727.157 124.027 727.445 125.161 727.445 126.385C727.445 127.609 727.157 128.752 726.581 129.814C726.023 130.858 725.186 131.695 724.07 132.325C722.972 132.955 721.64 133.27 720.074 133.27ZM720.074 131.569C721.694 131.569 722.99 131.11 723.962 130.192C724.952 129.274 725.447 128.005 725.447 126.385C725.447 124.765 724.952 123.496 723.962 122.578C722.99 121.66 721.694 121.201 720.074 121.201C718.436 121.201 717.122 121.66 716.132 122.578C715.16 123.496 714.674 124.765 714.674 126.385C714.674 128.005 715.16 129.274 716.132 130.192C717.122 131.11 718.436 131.569 720.074 131.569ZM736.077 133.27C734.313 133.27 732.927 132.766 731.919 131.758C730.929 130.75 730.434 129.346 730.434 127.546V120.58C730.434 120.238 730.524 119.977 730.704 119.797C730.884 119.599 731.127 119.5 731.433 119.5C731.739 119.5 731.973 119.599 732.135 119.797C732.315 119.977 732.405 120.238 732.405 120.58V127.546C732.405 128.824 732.747 129.814 733.431 130.516C734.115 131.218 735.069 131.569 736.293 131.569C737.265 131.569 738.129 131.353 738.885 130.921C739.641 130.489 740.226 129.886 740.64 129.112C741.072 128.338 741.288 127.447 741.288 126.439V120.58C741.288 120.238 741.369 119.977 741.531 119.797C741.711 119.599 741.963 119.5 742.287 119.5C742.593 119.5 742.827 119.599 742.989 119.797C743.169 119.977 743.259 120.238 743.259 120.58V132.19C743.259 132.532 743.169 132.802 742.989 133C742.827 133.18 742.593 133.27 742.287 133.27C741.963 133.27 741.711 133.171 741.531 132.973C741.369 132.775 741.288 132.514 741.288 132.19V130.597C740.622 131.461 739.848 132.127 738.966 132.595C738.084 133.045 737.121 133.27 736.077 133.27ZM748.047 133.27C747.741 133.27 747.498 133.18 747.318 133C747.156 132.802 747.075 132.532 747.075 132.19V120.58C747.075 120.238 747.156 119.977 747.318 119.797C747.48 119.599 747.723 119.5 748.047 119.5C748.353 119.5 748.587 119.599 748.749 119.797C748.929 119.977 749.019 120.238 749.019 120.58V122.2C750.243 120.58 751.935 119.77 754.095 119.77H754.77C755.112 119.77 755.382 119.851 755.58 120.013C755.778 120.157 755.877 120.364 755.877 120.634C755.877 120.904 755.778 121.111 755.58 121.255C755.382 121.399 755.112 121.471 754.77 121.471H754.014C752.484 121.471 751.269 121.912 750.369 122.794C749.487 123.658 749.046 124.837 749.046 126.331V132.19C749.046 132.514 748.956 132.775 748.776 132.973C748.614 133.171 748.371 133.27 748.047 133.27ZM766.872 141.073C766.566 141.073 766.323 140.974 766.143 140.776C765.981 140.596 765.9 140.335 765.9 139.993V120.58C765.9 120.238 765.981 119.977 766.143 119.797C766.323 119.599 766.566 119.5 766.872 119.5C767.196 119.5 767.439 119.599 767.601 119.797C767.781 119.995 767.871 120.256 767.871 120.58V122.308C769.257 120.436 771.255 119.5 773.865 119.5C776.043 119.5 777.753 120.103 778.995 121.309C780.255 122.515 780.885 124.171 780.885 126.277C780.885 127.699 780.597 128.941 780.021 130.003C779.445 131.047 778.617 131.857 777.537 132.433C776.475 132.991 775.224 133.27 773.784 133.27C772.542 133.27 771.444 133.054 770.49 132.622C769.554 132.172 768.69 131.47 767.898 130.516V139.993C767.898 140.317 767.808 140.578 767.628 140.776C767.448 140.974 767.196 141.073 766.872 141.073ZM773.649 131.569C775.287 131.569 776.565 131.101 777.483 130.165C778.419 129.211 778.887 127.897 778.887 126.223C778.887 124.603 778.428 123.361 777.51 122.497C776.61 121.633 775.314 121.201 773.622 121.201C771.84 121.201 770.436 121.66 769.41 122.578C768.384 123.478 767.871 124.711 767.871 126.277C767.871 127.321 768.105 128.248 768.573 129.058C769.059 129.85 769.734 130.471 770.598 130.921C771.48 131.353 772.497 131.569 773.649 131.569ZM790.551 133.27C788.211 133.27 786.402 132.667 785.124 131.461C783.846 130.255 783.207 128.545 783.207 126.331C783.207 124.207 783.855 122.542 785.151 121.336C786.447 120.112 788.22 119.5 790.47 119.5C791.856 119.5 793.089 119.725 794.169 120.175C795.249 120.607 796.086 121.228 796.68 122.038C797.292 122.83 797.598 123.739 797.598 124.765C797.598 125.521 797.382 126.106 796.95 126.52C796.536 126.934 795.96 127.141 795.222 127.141H785.232C785.232 128.527 785.7 129.616 786.636 130.408C787.572 131.182 788.877 131.569 790.551 131.569C791.577 131.569 792.459 131.461 793.197 131.245C793.935 131.011 794.628 130.642 795.276 130.138C795.618 129.85 795.897 129.706 796.113 129.706C796.275 129.706 796.428 129.778 796.572 129.922C796.824 130.138 796.95 130.363 796.95 130.597C796.95 130.777 796.842 130.975 796.626 131.191C795.888 131.893 795.024 132.415 794.034 132.757C793.044 133.099 791.883 133.27 790.551 133.27ZM794.628 125.548C794.952 125.548 795.195 125.485 795.357 125.359C795.519 125.215 795.6 124.963 795.6 124.603C795.6 123.955 795.384 123.37 794.952 122.848C794.52 122.326 793.908 121.921 793.116 121.633C792.342 121.345 791.46 121.201 790.47 121.201C788.868 121.201 787.599 121.597 786.663 122.389C785.745 123.163 785.286 124.216 785.286 125.548H794.628ZM801.652 133.27C801.346 133.27 801.103 133.18 800.923 133C800.761 132.802 800.68 132.532 800.68 132.19V120.58C800.68 120.238 800.761 119.977 800.923 119.797C801.085 119.599 801.328 119.5 801.652 119.5C801.958 119.5 802.192 119.599 802.354 119.797C802.534 119.977 802.624 120.238 802.624 120.58V122.2C803.848 120.58 805.54 119.77 807.7 119.77H808.375C808.717 119.77 808.987 119.851 809.185 120.013C809.383 120.157 809.482 120.364 809.482 120.634C809.482 120.904 809.383 121.111 809.185 121.255C808.987 121.399 808.717 121.471 808.375 121.471H807.619C806.089 121.471 804.874 121.912 803.974 122.794C803.092 123.658 802.651 124.837 802.651 126.331V132.19C802.651 132.514 802.561 132.775 802.381 132.973C802.219 133.171 801.976 133.27 801.652 133.27ZM820.586 114.262C820.766 114.424 820.856 114.622 820.856 114.856C820.856 115.09 820.757 115.306 820.559 115.504C820.379 115.648 820.208 115.72 820.046 115.72C819.812 115.72 819.497 115.603 819.101 115.369C818.453 114.991 817.76 114.802 817.022 114.802C815.69 114.802 815.024 115.522 815.024 116.962V119.77H818.858C819.56 119.77 819.911 120.049 819.911 120.607C819.911 120.859 819.821 121.057 819.641 121.201C819.461 121.345 819.2 121.417 818.858 121.417H815.024V132.19C815.024 132.532 814.934 132.802 814.754 133C814.592 133.18 814.358 133.27 814.052 133.27C813.746 133.27 813.503 133.18 813.323 133C813.143 132.802 813.053 132.532 813.053 132.19V121.417H811.757C811.415 121.417 811.145 121.345 810.947 121.201C810.767 121.057 810.677 120.859 810.677 120.607C810.677 120.049 811.037 119.77 811.757 119.77H813.053V117.07C813.053 115.864 813.404 114.901 814.106 114.181C814.826 113.443 815.771 113.074 816.941 113.074C817.679 113.074 818.363 113.182 818.993 113.398C819.623 113.596 820.154 113.884 820.586 114.262ZM827.781 133.27C825.441 133.27 823.632 132.667 822.354 131.461C821.076 130.255 820.437 128.545 820.437 126.331C820.437 124.207 821.085 122.542 822.381 121.336C823.677 120.112 825.45 119.5 827.7 119.5C829.086 119.5 830.319 119.725 831.399 120.175C832.479 120.607 833.316 121.228 833.91 122.038C834.522 122.83 834.828 123.739 834.828 124.765C834.828 125.521 834.612 126.106 834.18 126.52C833.766 126.934 833.19 127.141 832.452 127.141H822.462C822.462 128.527 822.93 129.616 823.866 130.408C824.802 131.182 826.107 131.569 827.781 131.569C828.807 131.569 829.689 131.461 830.427 131.245C831.165 131.011 831.858 130.642 832.506 130.138C832.848 129.85 833.127 129.706 833.343 129.706C833.505 129.706 833.658 129.778 833.802 129.922C834.054 130.138 834.18 130.363 834.18 130.597C834.18 130.777 834.072 130.975 833.856 131.191C833.118 131.893 832.254 132.415 831.264 132.757C830.274 133.099 829.113 133.27 827.781 133.27ZM831.858 125.548C832.182 125.548 832.425 125.485 832.587 125.359C832.749 125.215 832.83 124.963 832.83 124.603C832.83 123.955 832.614 123.37 832.182 122.848C831.75 122.326 831.138 121.921 830.346 121.633C829.572 121.345 828.69 121.201 827.7 121.201C826.098 121.201 824.829 121.597 823.893 122.389C822.975 123.163 822.516 124.216 822.516 125.548H831.858ZM844.444 133.27C843.004 133.27 841.735 132.991 840.637 132.433C839.539 131.857 838.693 131.047 838.099 130.003C837.505 128.959 837.208 127.744 837.208 126.358C837.208 124.99 837.505 123.793 838.099 122.767C838.693 121.723 839.539 120.922 840.637 120.364C841.735 119.788 843.004 119.5 844.444 119.5C845.794 119.5 846.964 119.689 847.954 120.067C848.944 120.445 849.727 121.003 850.303 121.741C850.447 121.939 850.519 122.128 850.519 122.308C850.519 122.578 850.384 122.821 850.114 123.037C849.988 123.145 849.826 123.199 849.628 123.199C849.322 123.199 849.034 123.064 848.764 122.794C847.81 121.732 846.37 121.201 844.444 121.201C842.77 121.201 841.474 121.651 840.556 122.551C839.656 123.433 839.206 124.702 839.206 126.358C839.206 127.996 839.665 129.274 840.583 130.192C841.501 131.11 842.788 131.569 844.444 131.569C845.362 131.569 846.208 131.434 846.982 131.164C847.756 130.876 848.395 130.471 848.899 129.949C849.205 129.643 849.493 129.49 849.763 129.49C849.925 129.49 850.105 129.562 850.303 129.706C850.555 129.922 850.681 130.156 850.681 130.408C850.681 130.642 850.582 130.84 850.384 131.002C849.502 131.794 848.584 132.37 847.63 132.73C846.676 133.09 845.614 133.27 844.444 133.27ZM862.089 130.327C862.287 130.489 862.386 130.678 862.386 130.894C862.386 131.074 862.305 131.29 862.143 131.542C861.765 132.064 861.243 132.487 860.577 132.811C859.911 133.117 859.227 133.27 858.525 133.27C857.337 133.27 856.401 132.919 855.717 132.217C855.033 131.515 854.691 130.552 854.691 129.328V121.417H853.233C852.513 121.417 852.153 121.138 852.153 120.58C852.153 120.328 852.243 120.13 852.423 119.986C852.621 119.842 852.891 119.77 853.233 119.77H854.691V115.153C854.691 114.811 854.772 114.55 854.934 114.37C855.114 114.172 855.366 114.073 855.69 114.073C855.996 114.073 856.23 114.172 856.392 114.37C856.572 114.55 856.662 114.811 856.662 115.153V119.77H860.334C860.658 119.77 860.91 119.842 861.09 119.986C861.288 120.112 861.387 120.31 861.387 120.58C861.387 121.138 861.036 121.417 860.334 121.417H856.662V129.49C856.662 130.876 857.31 131.569 858.606 131.569C859.02 131.569 859.398 131.488 859.74 131.326C860.082 131.164 860.424 130.903 860.766 130.543C861.036 130.255 861.297 130.111 861.549 130.111C861.711 130.111 861.891 130.183 862.089 130.327ZM881.521 130.327C881.719 130.489 881.818 130.678 881.818 130.894C881.818 131.074 881.737 131.29 881.575 131.542C881.197 132.064 880.675 132.487 880.009 132.811C879.343 133.117 878.659 133.27 877.957 133.27C876.769 133.27 875.833 132.919 875.149 132.217C874.465 131.515 874.123 130.552 874.123 129.328V121.417H872.665C871.945 121.417 871.585 121.138 871.585 120.58C871.585 120.328 871.675 120.13 871.855 119.986C872.053 119.842 872.323 119.77 872.665 119.77H874.123V115.153C874.123 114.811 874.204 114.55 874.366 114.37C874.546 114.172 874.798 114.073 875.122 114.073C875.428 114.073 875.662 114.172 875.824 114.37C876.004 114.55 876.094 114.811 876.094 115.153V119.77H879.766C880.09 119.77 880.342 119.842 880.522 119.986C880.72 120.112 880.819 120.31 880.819 120.58C880.819 121.138 880.468 121.417 879.766 121.417H876.094V129.49C876.094 130.876 876.742 131.569 878.038 131.569C878.452 131.569 878.83 131.488 879.172 131.326C879.514 131.164 879.856 130.903 880.198 130.543C880.468 130.255 880.729 130.111 880.981 130.111C881.143 130.111 881.323 130.183 881.521 130.327ZM885.71 133.27C885.404 133.27 885.161 133.18 884.981 133C884.819 132.802 884.738 132.532 884.738 132.19V120.58C884.738 120.238 884.819 119.977 884.981 119.797C885.143 119.599 885.386 119.5 885.71 119.5C886.016 119.5 886.25 119.599 886.412 119.797C886.592 119.977 886.682 120.238 886.682 120.58V122.2C887.906 120.58 889.598 119.77 891.758 119.77H892.433C892.775 119.77 893.045 119.851 893.243 120.013C893.441 120.157 893.54 120.364 893.54 120.634C893.54 120.904 893.441 121.111 893.243 121.255C893.045 121.399 892.775 121.471 892.433 121.471H891.677C890.147 121.471 888.932 121.912 888.032 122.794C887.15 123.658 886.709 124.837 886.709 126.331V132.19C886.709 132.514 886.619 132.775 886.439 132.973C886.277 133.171 886.034 133.27 885.71 133.27ZM901.768 133.27C899.428 133.27 897.619 132.667 896.341 131.461C895.063 130.255 894.424 128.545 894.424 126.331C894.424 124.207 895.072 122.542 896.368 121.336C897.664 120.112 899.437 119.5 901.687 119.5C903.073 119.5 904.306 119.725 905.386 120.175C906.466 120.607 907.303 121.228 907.897 122.038C908.509 122.83 908.815 123.739 908.815 124.765C908.815 125.521 908.599 126.106 908.167 126.52C907.753 126.934 907.177 127.141 906.439 127.141H896.449C896.449 128.527 896.917 129.616 897.853 130.408C898.789 131.182 900.094 131.569 901.768 131.569C902.794 131.569 903.676 131.461 904.414 131.245C905.152 131.011 905.845 130.642 906.493 130.138C906.835 129.85 907.114 129.706 907.33 129.706C907.492 129.706 907.645 129.778 907.789 129.922C908.041 130.138 908.167 130.363 908.167 130.597C908.167 130.777 908.059 130.975 907.843 131.191C907.105 131.893 906.241 132.415 905.251 132.757C904.261 133.099 903.1 133.27 901.768 133.27ZM905.845 125.548C906.169 125.548 906.412 125.485 906.574 125.359C906.736 125.215 906.817 124.963 906.817 124.603C906.817 123.955 906.601 123.37 906.169 122.848C905.737 122.326 905.125 121.921 904.333 121.633C903.559 121.345 902.677 121.201 901.687 121.201C900.085 121.201 898.816 121.597 897.88 122.389C896.962 123.163 896.503 124.216 896.503 125.548H905.845ZM916.125 133.27C914.361 133.27 912.975 132.883 911.967 132.109C910.977 131.335 910.482 130.264 910.482 128.896C910.482 127.546 911.004 126.475 912.048 125.683C913.11 124.891 914.55 124.495 916.368 124.495C917.43 124.495 918.366 124.639 919.176 124.927C920.004 125.215 920.643 125.602 921.093 126.088V124.36C921.093 123.334 920.751 122.551 920.067 122.011C919.401 121.471 918.42 121.201 917.124 121.201C915.45 121.201 914.001 121.597 912.777 122.389C912.471 122.569 912.219 122.659 912.021 122.659C911.841 122.659 911.661 122.587 911.481 122.443C911.283 122.281 911.184 122.074 911.184 121.822C911.184 121.552 911.301 121.327 911.535 121.147C912.183 120.643 913.002 120.247 913.992 119.959C915 119.653 916.026 119.5 917.07 119.5C918.978 119.5 920.454 119.932 921.498 120.796C922.56 121.66 923.091 122.875 923.091 124.441V132.217C923.091 132.919 922.767 133.27 922.119 133.27C921.831 133.27 921.597 133.18 921.417 133C921.237 132.802 921.147 132.55 921.147 132.244V131.272C920.031 132.604 918.357 133.27 916.125 133.27ZM916.368 131.623C917.772 131.623 918.915 131.362 919.797 130.84C920.679 130.3 921.12 129.607 921.12 128.761C921.12 127.915 920.706 127.267 919.878 126.817C919.068 126.349 917.916 126.115 916.422 126.115C915.162 126.115 914.19 126.358 913.506 126.844C912.822 127.312 912.48 127.996 912.48 128.896C912.48 129.778 912.813 130.453 913.479 130.921C914.145 131.389 915.108 131.623 916.368 131.623ZM935.495 130.327C935.693 130.489 935.792 130.678 935.792 130.894C935.792 131.074 935.711 131.29 935.549 131.542C935.171 132.064 934.649 132.487 933.983 132.811C933.317 133.117 932.633 133.27 931.931 133.27C930.743 133.27 929.807 132.919 929.123 132.217C928.439 131.515 928.097 130.552 928.097 129.328V121.417H926.639C925.919 121.417 925.559 121.138 925.559 120.58C925.559 120.328 925.649 120.13 925.829 119.986C926.027 119.842 926.297 119.77 926.639 119.77H928.097V115.153C928.097 114.811 928.178 114.55 928.34 114.37C928.52 114.172 928.772 114.073 929.096 114.073C929.402 114.073 929.636 114.172 929.798 114.37C929.978 114.55 930.068 114.811 930.068 115.153V119.77H933.74C934.064 119.77 934.316 119.842 934.496 119.986C934.694 120.112 934.793 120.31 934.793 120.58C934.793 121.138 934.442 121.417 933.74 121.417H930.068V129.49C930.068 130.876 930.716 131.569 932.012 131.569C932.426 131.569 932.804 131.488 933.146 131.326C933.488 131.164 933.83 130.903 934.172 130.543C934.442 130.255 934.703 130.111 934.955 130.111C935.117 130.111 935.297 130.183 935.495 130.327ZM940.44 128.599C939.828 128.599 939.522 128.257 939.522 127.573L939.36 114.91C939.36 114.568 939.459 114.307 939.657 114.127C939.855 113.929 940.116 113.83 940.44 113.83C940.764 113.83 941.025 113.929 941.223 114.127C941.439 114.325 941.547 114.586 941.547 114.91L941.358 127.573C941.358 128.257 941.052 128.599 940.44 128.599ZM940.44 133.27C939.954 133.27 939.558 133.135 939.252 132.865C938.946 132.577 938.793 132.217 938.793 131.785C938.793 131.335 938.946 130.966 939.252 130.678C939.576 130.372 939.972 130.219 940.44 130.219C940.908 130.219 941.295 130.372 941.601 130.678C941.925 130.966 942.087 131.335 942.087 131.785C942.087 132.217 941.934 132.577 941.628 132.865C941.322 133.135 940.926 133.27 940.44 133.27Z" fill="#FFFEFB"/>
<path d="M1103.97 60.2135L1103.97 60.2135L1103.98 60.201L1104.01 59.5131L1104.01 59.5131L1104.01 59.5006C1104.08 55.8404 1102.74 52.292 1100.28 49.5892C1097.95 47.0488 1094.8 45.4381 1091.4 45.0406C1092.24 43.654 1092.83 42.132 1093.16 40.5403C1093.53 38.7077 1093.54 36.8191 1093.18 34.9834C1092.82 33.1477 1092.1 31.4013 1091.07 29.845C1090.03 28.2888 1088.69 26.9534 1087.14 25.916L1087.14 25.9159L1087.12 25.9088L1086.51 25.5203L1086.51 25.5202L1086.5 25.5142C1083.37 23.6481 1079.65 23.0452 1076.09 23.8284C1072.72 24.5705 1069.74 26.5036 1067.69 29.2619C1065.98 26.1293 1063.16 23.7414 1059.77 22.5798C1056.2 21.3557 1052.29 21.5929 1048.89 23.2396C1047.21 24.0493 1045.7 25.1836 1044.46 26.5774C1043.22 27.9714 1042.26 29.5973 1041.65 31.3618L1041.65 31.369L1041.65 31.3764L1041.4 32.1732L1041.39 32.1806L1041.39 32.1881C1040.52 35.3018 1040.75 38.6117 1042.01 41.5703C1038.46 41.4841 1035 42.7247 1032.31 45.063C1029.45 47.5449 1027.7 51.0599 1027.43 54.835L1027.43 54.835L1027.43 54.8475L1027.4 55.5355L1027.4 55.5355L1027.4 55.548C1027.33 59.2081 1028.66 62.7566 1031.13 65.4594C1033.45 68.0007 1036.61 69.6116 1040.02 70.0084C1039.18 71.3963 1038.58 72.9199 1038.25 74.5132C1037.88 76.3447 1037.87 78.2321 1038.23 80.0666C1038.59 81.901 1039.31 83.6462 1040.35 85.2016C1041.38 86.7569 1042.72 88.0917 1044.27 89.129L1044.27 89.1291L1044.28 89.1346L1044.9 89.5263L1044.9 89.5303L1044.91 89.5341C1048.04 91.4002 1051.76 92.0032 1055.31 91.2199C1058.68 90.4778 1061.67 88.5445 1063.72 85.786C1065.42 88.9173 1068.24 91.3048 1071.63 92.4669C1075.2 93.6925 1079.11 93.4559 1082.51 91.8087C1084.2 90.9994 1085.7 89.8656 1086.94 88.4725C1088.19 87.0791 1089.14 85.4539 1089.75 83.6901L1089.76 83.6826L1089.76 83.6749L1090.01 82.8746L1090.01 82.8675L1090.01 82.8604C1090.88 79.747 1090.66 76.4372 1089.39 73.4782C1092.94 73.5645 1096.41 72.3239 1099.1 69.9855C1101.96 67.5037 1103.71 63.9886 1103.97 60.2135ZM1073.12 51.0798C1074.83 53.0474 1075.69 55.6133 1075.51 58.2131C1075.32 60.8129 1074.12 63.2337 1072.15 64.9429C1070.18 66.652 1067.62 67.5096 1065.02 67.3269C1062.42 67.1442 1059.99 65.9362 1058.29 63.9687C1056.58 62.0012 1055.72 59.4353 1055.9 56.8354C1056.08 54.2356 1057.29 51.8149 1059.26 50.1057C1061.23 48.3965 1063.79 47.539 1066.39 47.7216C1068.99 47.9043 1071.41 49.1123 1073.12 51.0798Z" fill="#FFEBA2" stroke="#C19758"/>
<path d="M688.242 98.93C686.025 98.93 684.007 98.4867 682.187 97.6C680.367 96.69 678.92 95.325 677.847 93.505C676.773 91.685 676.237 89.41 676.237 86.68C676.237 85.07 676.517 83.5417 677.077 82.095C677.637 80.625 678.418 79.3183 679.422 78.175C680.448 77.0317 681.65 76.1333 683.027 75.48C684.403 74.8267 685.92 74.5 687.577 74.5C689.653 74.5 691.473 74.885 693.037 75.655C694.6 76.4017 695.813 77.4283 696.677 78.735C697.563 80.0417 698.007 81.5 698.007 83.11C698.007 83.74 697.878 84.3467 697.622 84.93C697.388 85.49 697.015 85.9567 696.502 86.33C696.012 86.7033 695.37 86.89 694.577 86.89C693.83 86.89 693.235 86.7733 692.792 86.54C692.372 86.3067 692.01 86.0267 691.707 85.7C691.427 85.35 691.135 85 690.832 84.65C690.528 84.3 690.155 84.0083 689.712 83.775C689.268 83.5417 688.662 83.425 687.892 83.425C687.168 83.425 686.503 83.6117 685.897 83.985C685.29 84.3583 684.8 84.8717 684.427 85.525C684.077 86.155 683.902 86.8783 683.902 87.695C683.902 88.9083 684.217 89.97 684.847 90.88C685.5 91.79 686.422 92.245 687.612 92.245C688.545 92.245 689.28 92.105 689.817 91.825C690.377 91.545 690.843 91.23 691.217 90.88C691.613 90.5067 692.033 90.18 692.477 89.9C692.943 89.62 693.538 89.48 694.262 89.48C695.288 89.48 696.058 89.8183 696.572 90.495C697.108 91.1717 697.33 92 697.237 92.98C697.143 93.9833 696.7 94.94 695.907 95.85C695.137 96.76 694.087 97.5067 692.757 98.09C691.45 98.65 689.945 98.93 688.242 98.93ZM707.101 99.035C705.374 99.0583 703.858 98.7083 702.551 97.985C701.268 97.2383 700.253 96.235 699.506 94.975C698.783 93.6917 698.398 92.28 698.351 90.74C698.328 89.1533 698.689 87.7533 699.436 86.54C700.183 85.3033 701.221 84.3233 702.551 83.6C703.881 82.8767 705.398 82.515 707.101 82.515C708.781 82.4917 710.263 82.8417 711.546 83.565C712.853 84.2883 713.891 85.2683 714.661 86.505C715.431 87.7417 715.839 89.1533 715.886 90.74C715.909 92.2567 715.548 93.645 714.801 94.905C714.054 96.1417 713.016 97.1333 711.686 97.88C710.356 98.6033 708.828 98.9883 707.101 99.035ZM707.206 93.925C707.836 93.925 708.384 93.68 708.851 93.19C709.318 92.7 709.551 92.1283 709.551 91.475C709.551 90.8217 709.318 90.2617 708.851 89.795C708.384 89.305 707.836 89.06 707.206 89.06C706.576 89.06 706.028 89.305 705.561 89.795C705.094 90.2617 704.861 90.8217 704.861 91.475C704.861 92.1283 705.094 92.7 705.561 93.19C706.028 93.68 706.576 93.925 707.206 93.925ZM730.77 99C729.836 99 729.171 98.7433 728.775 98.23C728.401 97.6933 728.18 97.0283 728.11 96.235C728.04 95.4183 728.005 94.6017 728.005 93.785C728.005 92.5483 727.83 91.5567 727.48 90.81C727.13 90.04 726.511 89.655 725.625 89.655C724.831 89.655 724.248 90.04 723.875 90.81C723.501 91.5567 723.315 92.5483 723.315 93.785C723.315 94.6017 723.28 95.4067 723.21 96.2C723.163 96.9933 722.953 97.6583 722.58 98.195C722.206 98.7083 721.53 98.965 720.55 98.965C719.826 98.965 719.22 98.6967 718.73 98.16C718.263 97.6233 717.901 96.9233 717.645 96.06C717.388 95.1967 717.201 94.2633 717.085 93.26C716.991 92.2567 716.945 91.2883 716.945 90.355C716.945 89.4217 716.991 88.465 717.085 87.485C717.178 86.505 717.341 85.595 717.575 84.755C717.831 83.915 718.193 83.2383 718.66 82.725C719.126 82.2117 719.733 81.955 720.48 81.955C721.81 81.955 722.638 82.5617 722.965 83.775C723.245 83.4717 723.688 83.1917 724.295 82.935C724.925 82.655 725.636 82.515 726.43 82.515C728.226 82.515 729.696 82.97 730.84 83.88C731.983 84.79 732.811 86.05 733.325 87.66C733.861 89.2467 734.118 91.09 734.095 93.19C734.095 94.2633 733.99 95.2433 733.78 96.13C733.593 96.9933 733.255 97.6933 732.765 98.23C732.298 98.7433 731.633 99 730.77 99ZM745.365 99C744.548 99 743.72 98.8367 742.88 98.51C742.04 98.1833 741.281 97.705 740.605 97.075C739.951 96.445 739.473 95.6867 739.17 94.8C738.96 94.2167 738.808 93.4933 738.715 92.63C738.621 91.7667 738.551 90.845 738.505 89.865C738.481 88.885 738.47 87.9283 738.47 86.995C737.56 86.9717 736.685 86.89 735.845 86.75C735.028 86.61 734.351 86.3533 733.815 85.98C733.301 85.5833 733.045 85.0117 733.045 84.265C733.045 83.355 733.29 82.6783 733.78 82.235C734.27 81.7683 734.923 81.465 735.74 81.325C736.58 81.1617 737.49 81.0683 738.47 81.045C738.493 80.3217 738.551 79.5867 738.645 78.84C738.761 78.07 738.948 77.3583 739.205 76.705C739.461 76.0517 739.823 75.5267 740.29 75.13C740.756 74.71 741.363 74.5 742.11 74.5C743.113 74.5 743.836 74.815 744.28 75.445C744.746 76.075 745.038 76.8917 745.155 77.895C745.271 78.8983 745.318 79.9483 745.295 81.045C746.508 81.0217 747.581 81.0683 748.515 81.185C749.448 81.3017 750.183 81.5583 750.72 81.955C751.256 82.3517 751.525 82.9817 751.525 83.845C751.525 84.7317 751.221 85.3967 750.615 85.84C750.008 86.2833 749.215 86.5867 748.235 86.75C747.255 86.89 746.216 86.9717 745.12 86.995C745.12 87.4383 745.108 87.905 745.085 88.395C745.085 88.8617 745.085 89.34 745.085 89.83C745.085 91.16 745.178 92.105 745.365 92.665C745.505 93.085 745.691 93.3533 745.925 93.47C746.181 93.5867 746.496 93.6567 746.87 93.68C747.243 93.68 747.698 93.75 748.235 93.89C748.771 94.0067 749.191 94.2983 749.495 94.765C749.798 95.2083 749.95 95.78 749.95 96.48C749.95 97.2733 749.53 97.8917 748.69 98.335C747.873 98.7783 746.765 99 745.365 99ZM758.176 99C757.033 99 755.983 98.825 755.026 98.475C754.093 98.125 753.346 97.6 752.786 96.9C752.226 96.1767 751.946 95.2667 751.946 94.17C751.946 93.2367 752.226 92.4433 752.786 91.79C753.346 91.1367 754.093 90.635 755.026 90.285C755.983 89.935 757.033 89.76 758.176 89.76C758.853 89.76 759.471 89.8183 760.031 89.935C760.591 90.0283 760.976 90.145 761.186 90.285C761.186 89.7483 760.965 89.2817 760.521 88.885C760.078 88.465 759.308 88.255 758.211 88.255C757.698 88.255 757.29 88.3017 756.986 88.395C756.706 88.465 756.45 88.5583 756.216 88.675C755.983 88.7917 755.715 88.8967 755.411 88.99C755.131 89.06 754.746 89.095 754.256 89.095C753.533 89.095 752.95 88.9083 752.506 88.535C752.086 88.1383 751.876 87.5433 751.876 86.75C751.876 86.0267 752.075 85.4083 752.471 84.895C752.891 84.3583 753.428 83.915 754.081 83.565C754.735 83.215 755.435 82.9583 756.181 82.795C756.951 82.6317 757.686 82.55 758.386 82.55C760.463 82.55 762.155 82.935 763.461 83.705C764.768 84.4517 765.736 85.4317 766.366 86.645C766.996 87.8583 767.311 89.1767 767.311 90.6C767.311 91.3933 767.241 92.1283 767.101 92.805C766.985 93.4817 766.821 94.0067 766.611 94.38C766.938 94.66 767.183 94.9867 767.346 95.36C767.533 95.7333 767.626 96.1183 767.626 96.515C767.626 97.1683 767.405 97.7517 766.961 98.265C766.541 98.755 765.935 99 765.141 99C764.535 99 764.056 98.9067 763.706 98.72C763.356 98.5333 763.006 98.2883 762.656 97.985C762.096 98.3117 761.478 98.5683 760.801 98.755C760.125 98.9183 759.25 99 758.176 99ZM758.876 95.465C759.413 95.465 759.81 95.36 760.066 95.15C760.346 94.9167 760.486 94.66 760.486 94.38C760.486 94.1 760.346 93.855 760.066 93.645C759.81 93.4117 759.413 93.295 758.876 93.295C758.363 93.295 757.966 93.4117 757.686 93.645C757.406 93.855 757.266 94.1 757.266 94.38C757.266 94.66 757.406 94.9167 757.686 95.15C757.966 95.36 758.363 95.465 758.876 95.465ZM777.268 98.965C775.775 98.9417 774.375 98.58 773.068 97.88C771.761 97.1567 770.7 96.165 769.883 94.905C769.09 93.645 768.693 92.2217 768.693 90.635C768.693 88.9317 769.09 87.485 769.883 86.295C770.7 85.0817 771.75 84.16 773.033 83.53C774.34 82.8767 775.716 82.55 777.163 82.55C778.656 82.55 779.963 82.8417 781.083 83.425C782.203 83.985 783.066 84.72 783.673 85.63C784.303 86.5167 784.618 87.4383 784.618 88.395C784.618 89.1883 784.373 89.8183 783.883 90.285C783.416 90.7283 782.67 90.95 781.643 90.95C781.083 90.95 780.651 90.845 780.348 90.635C780.068 90.4017 779.823 90.145 779.613 89.865C779.426 89.585 779.193 89.34 778.913 89.13C778.656 88.8967 778.271 88.78 777.758 88.78C777.151 88.78 776.615 88.99 776.148 89.41C775.705 89.83 775.483 90.39 775.483 91.09C775.483 91.8133 775.705 92.385 776.148 92.805C776.591 93.2017 777.128 93.4 777.758 93.4C778.248 93.4 778.621 93.33 778.878 93.19C779.135 93.0267 779.356 92.84 779.543 92.63C779.753 92.42 780.01 92.245 780.313 92.105C780.616 91.9417 781.06 91.86 781.643 91.86C782.67 91.86 783.416 92.14 783.883 92.7C784.373 93.2367 784.618 93.8083 784.618 94.415C784.618 95.185 784.315 95.92 783.708 96.62C783.101 97.32 782.25 97.8917 781.153 98.335C780.056 98.755 778.761 98.965 777.268 98.965ZM796.6 99C795.784 99 794.955 98.8367 794.115 98.51C793.275 98.1833 792.517 97.705 791.84 97.075C791.187 96.445 790.709 95.6867 790.405 94.8C790.195 94.2167 790.044 93.4933 789.95 92.63C789.857 91.7667 789.787 90.845 789.74 89.865C789.717 88.885 789.705 87.9283 789.705 86.995C788.795 86.9717 787.92 86.89 787.08 86.75C786.264 86.61 785.587 86.3533 785.05 85.98C784.537 85.5833 784.28 85.0117 784.28 84.265C784.28 83.355 784.525 82.6783 785.015 82.235C785.505 81.7683 786.159 81.465 786.975 81.325C787.815 81.1617 788.725 81.0683 789.705 81.045C789.729 80.3217 789.787 79.5867 789.88 78.84C789.997 78.07 790.184 77.3583 790.44 76.705C790.697 76.0517 791.059 75.5267 791.525 75.13C791.992 74.71 792.599 74.5 793.345 74.5C794.349 74.5 795.072 74.815 795.515 75.445C795.982 76.075 796.274 76.8917 796.39 77.895C796.507 78.8983 796.554 79.9483 796.53 81.045C797.744 81.0217 798.817 81.0683 799.75 81.185C800.684 81.3017 801.419 81.5583 801.955 81.955C802.492 82.3517 802.76 82.9817 802.76 83.845C802.76 84.7317 802.457 85.3967 801.85 85.84C801.244 86.2833 800.45 86.5867 799.47 86.75C798.49 86.89 797.452 86.9717 796.355 86.995C796.355 87.4383 796.344 87.905 796.32 88.395C796.32 88.8617 796.32 89.34 796.32 89.83C796.32 91.16 796.414 92.105 796.6 92.665C796.74 93.085 796.927 93.3533 797.16 93.47C797.417 93.5867 797.732 93.6567 798.105 93.68C798.479 93.68 798.934 93.75 799.47 93.89C800.007 94.0067 800.427 94.2983 800.73 94.765C801.034 95.2083 801.185 95.78 801.185 96.48C801.185 97.2733 800.765 97.8917 799.925 98.335C799.109 98.7783 798 99 796.6 99Z" fill="#FFFEFB"/>
</svg>
