<svg width="292" height="42" viewBox="0 0 292 42" fill="none" xmlns="http://www.w3.org/2000/svg">
<rect x="0.640625" y="0.602051" width="290.487" height="40.5798" rx="20.089" fill="#FD9584"/>
<path d="M65.3275 18.9712C63.7078 18.9712 62.4021 20.2895 62.4021 21.8966C62.4021 23.5037 63.7204 24.8221 65.3275 24.8221C66.9346 24.8221 68.253 23.5037 68.253 21.8966C68.253 20.2895 66.9346 18.9712 65.3275 18.9712ZM74.1165 21.8966C74.1165 20.6787 74.1165 19.4859 74.0537 18.268C73.9909 16.8618 73.6645 15.6062 72.6349 14.5892C71.6053 13.5597 70.3623 13.2332 68.9561 13.1704C67.7382 13.1077 66.5454 13.1077 65.3275 13.1077C64.1096 13.1077 62.9168 13.1077 61.6989 13.1704C60.2927 13.2332 59.0371 13.5597 58.0201 14.5892C56.9906 15.6188 56.6641 16.8618 56.6014 18.268C56.5386 19.4859 56.5386 20.6787 56.5386 21.8966C56.5386 23.1145 56.5386 24.3073 56.6014 25.5252C56.6641 26.9314 56.9906 28.187 58.0201 29.204C59.0497 30.2336 60.2927 30.56 61.6989 30.6228C62.9168 30.6856 64.1096 30.6856 65.3275 30.6856C66.5454 30.6856 67.7382 30.6856 68.9561 30.6228C70.3623 30.56 71.6179 30.2336 72.6349 29.204C73.6645 28.1744 73.9909 26.9314 74.0537 25.5252C74.129 24.3199 74.1165 23.1145 74.1165 21.8966ZM65.3275 26.4041C62.829 26.4041 60.82 24.3952 60.82 21.8966C60.82 19.398 62.829 17.3891 65.3275 17.3891C67.8261 17.3891 69.835 19.398 69.835 21.8966C69.835 24.3952 67.8261 26.4041 65.3275 26.4041ZM70.0233 18.2555C69.4458 18.2555 68.9687 17.7909 68.9687 17.2008C68.9687 16.6107 69.4332 16.1461 70.0233 16.1461C70.6134 16.1461 71.078 16.6107 71.078 17.2008C71.0812 17.3383 71.0561 17.4751 71.0042 17.6025C70.9524 17.7299 70.875 17.8453 70.7767 17.9416C70.6804 18.0399 70.565 18.1173 70.4376 18.1692C70.3101 18.221 70.1734 18.2461 70.0359 18.2429L70.0233 18.2555Z" fill="#FFFDEA"/>
<path d="M154.841 15.2671C154.196 15.5601 153.501 15.7526 152.782 15.8447C153.518 15.401 154.087 14.6979 154.355 13.8525C153.661 14.271 152.89 14.564 152.079 14.7314C151.417 14.0115 150.488 13.593 149.433 13.593C147.466 13.593 145.859 15.2001 145.859 17.1839C145.859 17.4685 145.893 17.7448 145.951 18.0042C142.972 17.8536 140.318 16.4222 138.552 14.2543C138.242 14.7816 138.066 15.401 138.066 16.0539C138.066 17.3011 138.694 18.406 139.665 19.0338C139.071 19.0338 138.518 18.8664 138.033 18.6153V18.6404C138.033 20.3814 139.272 21.8379 140.912 22.1643C140.386 22.3091 139.833 22.3292 139.297 22.2229C139.524 22.9365 139.969 23.5609 140.57 24.0083C141.171 24.4557 141.896 24.7037 142.645 24.7173C141.376 25.7222 139.802 26.2653 138.184 26.2575C137.899 26.2575 137.614 26.2407 137.33 26.2073C138.92 27.2284 140.812 27.8227 142.838 27.8227C149.433 27.8227 153.058 22.3485 153.058 17.6025C153.058 17.4434 153.058 17.2927 153.049 17.1337C153.753 16.6315 154.355 15.9953 154.841 15.2671Z" fill="#FFFDEA"/>
<path d="M234.293 11.9189H219.394C219.149 11.9189 218.915 12.016 218.743 12.1886C218.57 12.3613 218.473 12.5955 218.473 12.8397V27.7391C218.473 27.9833 218.57 28.2174 218.743 28.3901C218.915 28.5628 219.149 28.6598 219.394 28.6598H227.413V22.1727H225.236V19.6616H227.413V17.7782C227.367 17.3361 227.42 16.8894 227.565 16.4696C227.711 16.0497 227.947 15.6668 228.257 15.3478C228.566 15.0288 228.942 14.7813 229.357 14.6228C229.772 14.4643 230.217 14.3985 230.66 14.4301C231.312 14.4256 231.963 14.4591 232.611 14.5305V16.7905H231.28C230.225 16.7905 230.024 17.2928 230.024 18.021V19.6365H232.535L232.209 22.1476H230.024V28.6598H234.293C234.414 28.6598 234.534 28.636 234.645 28.5897C234.757 28.5434 234.859 28.4756 234.944 28.3901C235.03 28.3046 235.097 28.2031 235.144 28.0914C235.19 27.9797 235.214 27.86 235.214 27.7391V12.8397C235.214 12.7188 235.19 12.599 235.144 12.4873C235.097 12.3756 235.03 12.2741 234.944 12.1886C234.859 12.1031 234.757 12.0353 234.645 11.989C234.534 11.9428 234.414 11.9189 234.293 11.9189Z" fill="#FFFDEA"/>
</svg>
