<svg width="1479" height="212" viewBox="0 0 1479 212" fill="none" xmlns="http://www.w3.org/2000/svg">
<rect width="1479" height="212" fill="#FFFDEA"/>
<rect y="50" width="1479" height="110" fill="#FD9584"/>
<path d="M180.676 130.038L180.676 130.038L180.664 130.038L180.113 130.019L180.113 130.019L180.1 130.019C177.145 129.995 174.293 131.107 172.134 133.126C170.143 134.989 168.882 137.492 168.564 140.185C167.472 139.562 166.284 139.121 165.046 138.883C163.563 138.599 162.038 138.61 160.559 138.918C159.081 139.225 157.677 139.823 156.431 140.675C155.184 141.528 154.119 142.619 153.296 143.886L153.296 143.886L153.289 143.897L152.984 144.395L152.984 144.395L152.978 144.405C151.501 146.948 151.05 149.958 151.716 152.822C152.336 155.485 153.878 157.835 156.059 159.462C153.612 160.877 151.763 163.145 150.874 165.842C149.92 168.737 150.148 171.891 151.51 174.618C152.18 175.969 153.11 177.174 154.247 178.164C155.385 179.154 156.707 179.91 158.137 180.387L158.144 180.389L158.152 180.392L158.792 180.583L158.799 180.586L158.807 180.588C161.279 181.246 163.894 181.055 166.235 180.058C166.238 182.869 167.269 185.593 169.148 187.705C171.179 189.988 174.034 191.37 177.084 191.548L177.084 191.549L177.097 191.549L177.648 191.567L177.648 191.568L177.66 191.568C180.616 191.592 183.468 190.48 185.627 188.461C187.619 186.597 188.879 184.093 189.197 181.398C190.29 182.022 191.479 182.463 192.718 182.701C194.201 182.985 195.725 182.973 197.202 182.665C198.68 182.358 200.082 181.761 201.328 180.909C202.574 180.057 203.639 178.966 204.462 177.701L204.462 177.701L204.467 177.692L204.775 177.197L204.779 177.191L204.783 177.184C206.259 174.642 206.711 171.631 206.044 168.767C205.425 166.104 203.882 163.754 201.701 162.128C204.147 160.713 205.996 158.446 206.885 155.75C207.841 152.855 207.612 149.699 206.25 146.972C205.581 145.621 204.651 144.416 203.514 143.426C202.377 142.436 201.056 141.681 199.626 141.203L199.619 141.2L199.611 141.198L198.968 141.006L198.961 141.004L198.954 141.002C196.482 140.342 193.867 140.533 191.526 141.529C191.523 138.718 190.492 135.994 188.612 133.882C186.581 131.599 183.727 130.216 180.676 130.038ZM173.719 154.991C175.257 153.622 177.277 152.921 179.333 153.041C181.389 153.161 183.313 154.093 184.682 155.632C186.051 157.17 186.753 159.19 186.633 161.246C186.513 163.302 185.581 165.226 184.042 166.595C182.503 167.964 180.484 168.666 178.428 168.546C176.372 168.426 174.447 167.494 173.078 165.955C171.709 164.416 171.008 162.397 171.128 160.341C171.248 158.285 172.18 156.36 173.719 154.991Z" fill="#A7D9DD" stroke="#789C9F"/>
<path d="M1360.26 150.191L1360.26 150.191L1360.26 150.178L1360.26 149.494L1360.26 149.494L1360.26 149.481C1360.21 145.843 1358.76 142.363 1356.22 139.763C1353.82 137.32 1350.64 135.829 1347.24 135.549C1348.03 134.144 1348.57 132.613 1348.84 131.022C1349.15 129.189 1349.09 127.312 1348.67 125.501C1348.25 123.69 1347.47 121.979 1346.39 120.469C1345.31 118.958 1343.93 117.678 1342.35 116.701L1342.35 116.7L1342.34 116.694L1341.71 116.329L1341.71 116.329L1341.7 116.323C1338.53 114.577 1334.81 114.106 1331.31 115.006C1327.99 115.858 1325.09 117.88 1323.15 120.688C1321.35 117.637 1318.46 115.363 1315.06 114.326C1311.47 113.232 1307.59 113.602 1304.27 115.355C1302.63 116.217 1301.17 117.395 1299.98 118.823C1298.8 120.25 1297.9 121.898 1297.36 123.672L1297.35 123.68L1297.35 123.687L1297.13 124.487L1297.13 124.494L1297.13 124.502C1296.37 127.624 1296.71 130.902 1298.07 133.797C1294.54 133.835 1291.14 135.186 1288.55 137.6C1285.8 140.164 1284.18 143.716 1284.04 147.475L1284.04 147.475L1284.04 147.488L1284.03 148.172L1284.03 148.172L1284.03 148.185C1284.09 151.824 1285.54 155.303 1288.08 157.903C1290.47 160.347 1293.66 161.839 1297.06 162.117C1296.27 163.524 1295.73 165.056 1295.46 166.649C1295.16 168.481 1295.21 170.356 1295.63 172.166C1296.05 173.977 1296.83 175.686 1297.91 177.195C1298.99 178.705 1300.37 179.985 1301.95 180.962L1301.95 180.962L1301.95 180.968L1302.58 181.335L1302.58 181.339L1302.59 181.343C1305.76 183.089 1309.48 183.561 1312.99 182.66C1316.31 181.808 1319.2 179.786 1321.14 176.978C1322.95 180.028 1325.83 182.301 1329.23 183.339C1332.82 184.434 1336.7 184.065 1340.02 182.311C1341.67 181.45 1343.12 180.272 1344.31 178.845C1345.5 177.418 1346.39 175.771 1346.94 173.997L1346.94 173.99L1346.94 173.982L1347.16 173.179L1347.16 173.172L1347.17 173.164C1347.92 170.043 1347.59 166.764 1346.23 163.869C1349.76 163.832 1353.15 162.481 1355.75 160.066C1358.5 157.503 1360.12 153.95 1360.26 150.191ZM1329.29 142.18C1331.06 144.075 1332 146.593 1331.91 149.181C1331.81 151.768 1330.7 154.214 1328.8 155.978C1326.91 157.743 1324.39 158.682 1321.8 158.59C1319.21 158.498 1316.77 157.381 1315 155.486C1313.24 153.592 1312.3 151.073 1312.39 148.486C1312.48 145.898 1313.6 143.453 1315.5 141.688C1317.39 139.924 1319.91 138.984 1322.5 139.076C1325.08 139.168 1327.53 140.285 1329.29 142.18Z" fill="#C5D146" stroke="#939C35"/>
<path d="M1238.98 56.1334L1238.98 56.1334L1238.98 56.1209L1238.99 55.6489L1238.99 55.6489L1238.99 55.6364C1238.95 53.0874 1237.93 50.65 1236.15 48.8283C1234.53 47.1737 1232.39 46.1421 1230.1 45.8988C1230.59 44.972 1230.93 43.9717 1231.1 42.9352C1231.32 41.6507 1231.28 40.3359 1230.99 39.0669C1230.69 37.7978 1230.15 36.5996 1229.39 35.5414C1228.63 34.4831 1227.67 33.5858 1226.56 32.9012L1226.56 32.9011L1226.55 32.8944L1226.12 32.6429L1226.12 32.6428L1226.11 32.6372C1223.88 31.4137 1221.28 31.0836 1218.82 31.7142C1216.58 32.2916 1214.61 33.6342 1213.25 35.5007C1211.98 33.4656 1210.01 31.9505 1207.7 31.2472C1205.19 30.4812 1202.47 30.7402 1200.15 31.9678C1199 32.5718 1197.97 33.3975 1197.14 34.3975C1196.31 35.3976 1195.69 36.5523 1195.3 37.7951L1195.3 37.8024L1195.3 37.8099L1195.15 38.3615L1195.14 38.369L1195.14 38.3765C1194.63 40.4864 1194.83 42.6987 1195.7 44.6731C1193.32 44.7553 1191.03 45.6946 1189.27 47.3318C1187.34 49.1277 1186.21 51.6162 1186.11 54.2498L1186.11 54.2498L1186.11 54.2623L1186.11 54.7342L1186.11 54.7342L1186.11 54.7468C1186.14 57.2958 1187.16 59.7332 1188.94 61.5548C1190.56 63.2101 1192.71 64.2419 1195 64.4846C1194.51 65.4124 1194.17 66.4137 1193.99 67.4513C1193.78 68.7351 1193.82 70.0489 1194.11 71.3171C1194.4 72.5853 1194.95 73.7827 1195.71 74.8403C1196.47 75.898 1197.43 76.7949 1198.53 77.4795L1198.53 77.4796L1198.54 77.4848L1198.97 77.7386L1198.98 77.7423L1198.98 77.7459C1201.21 78.9694 1203.81 79.2995 1206.27 78.6688C1208.52 78.0915 1210.49 76.7487 1211.84 74.8821C1213.11 76.9164 1215.08 78.4312 1217.39 79.1349C1219.9 79.9019 1222.62 79.6432 1224.94 78.4153C1226.1 77.8115 1227.12 76.9862 1227.95 75.9867C1228.78 74.987 1229.4 73.8328 1229.79 72.5905L1229.79 72.5829L1229.79 72.5751L1229.94 72.0211L1229.95 72.0139L1229.95 72.0067C1230.46 69.8971 1230.26 67.6847 1229.39 65.7101C1231.78 65.628 1234.06 64.6886 1235.82 63.0514C1237.75 61.2555 1238.89 58.767 1238.98 56.1334ZM1217.36 50.7093C1218.55 51.9859 1219.18 53.6825 1219.12 55.4258C1219.06 57.1691 1218.31 58.8163 1217.03 60.0051C1215.75 61.1939 1214.06 61.8268 1212.31 61.7647C1210.57 61.7026 1208.92 60.9505 1207.73 59.6739C1206.54 58.3973 1205.91 56.7007 1205.97 54.9574C1206.04 53.2141 1206.79 51.5669 1208.06 50.3781C1209.34 49.1893 1211.04 48.5563 1212.78 48.6184C1214.52 48.6805 1216.17 49.4326 1217.36 50.7093Z" fill="#FFD5E3" stroke="#C66D7F"/>
<path d="M1106.18 163.49L1106.18 163.49L1106.18 163.477L1106.24 163.036L1106.24 163.037L1106.24 163.024C1106.47 160.628 1105.78 158.234 1104.3 156.335C1102.96 154.622 1101.08 153.432 1098.98 152.954C1099.52 152.146 1099.94 151.256 1100.21 150.316C1100.55 149.133 1100.65 147.895 1100.51 146.673C1100.37 145.451 1099.98 144.269 1099.38 143.196C1098.78 142.122 1097.97 141.178 1097.01 140.418L1097.01 140.418L1097 140.41L1096.62 140.129L1096.62 140.129L1096.61 140.122C1094.65 138.739 1092.25 138.153 1089.87 138.484C1087.72 138.786 1085.74 139.825 1084.27 141.414C1083.29 139.388 1081.61 137.773 1079.53 136.874C1077.26 135.889 1074.68 135.844 1072.37 136.749C1071.23 137.194 1070.18 137.86 1069.29 138.711C1068.41 139.561 1067.7 140.578 1067.21 141.704L1067.2 141.711L1067.2 141.718L1067 142.218L1067 142.225L1066.99 142.232C1066.3 144.144 1066.25 146.225 1066.84 148.159C1064.61 147.994 1062.38 148.634 1060.57 149.975C1058.57 151.456 1057.24 153.67 1056.87 156.132L1056.87 156.132L1056.87 156.144L1056.81 156.585L1056.81 156.585L1056.81 156.597C1056.58 158.993 1057.27 161.388 1058.75 163.286C1060.09 165 1061.97 166.191 1064.08 166.668C1063.53 167.477 1063.12 168.368 1062.85 169.309C1062.51 170.491 1062.41 171.728 1062.55 172.949C1062.69 174.171 1063.07 175.352 1063.67 176.425C1064.27 177.497 1065.08 178.441 1066.04 179.201L1066.04 179.201L1066.05 179.207L1066.43 179.49L1066.43 179.494L1066.44 179.499C1068.39 180.882 1070.8 181.468 1073.17 181.137C1075.33 180.835 1077.31 179.796 1078.78 178.207C1079.76 180.232 1081.43 181.847 1083.51 182.746C1085.79 183.732 1088.37 183.777 1090.68 182.872C1091.82 182.427 1092.87 181.761 1093.75 180.911C1094.64 180.062 1095.35 179.045 1095.84 177.92L1095.84 177.912L1095.85 177.905L1096.05 177.403L1096.05 177.396L1096.05 177.389C1096.75 175.477 1096.8 173.396 1096.21 171.463C1098.44 171.627 1100.67 170.988 1102.48 169.646C1104.48 168.166 1105.81 165.951 1106.18 163.49ZM1086.48 156.144C1087.45 157.458 1087.86 159.104 1087.62 160.72C1087.38 162.337 1086.51 163.791 1085.19 164.763C1083.88 165.736 1082.23 166.147 1080.62 165.905C1079 165.664 1077.54 164.791 1076.57 163.477C1075.6 162.164 1075.19 160.518 1075.43 158.901C1075.67 157.285 1076.55 155.83 1077.86 154.858C1079.17 153.885 1080.82 153.475 1082.43 153.716C1084.05 153.957 1085.51 154.831 1086.48 156.144Z" fill="#EDCDFF" stroke="#AD93BC"/>
<path d="M454.763 133.27C453.989 133.27 453.368 133.018 452.9 132.514C452.432 132.01 452.099 131.227 451.901 130.165L448.958 115.018C448.922 114.838 448.904 114.712 448.904 114.64C448.904 114.1 449.21 113.83 449.822 113.83C450.2 113.83 450.47 113.911 450.632 114.073C450.794 114.235 450.902 114.478 450.956 114.802L453.818 130.219C453.908 130.723 454.025 131.074 454.169 131.272C454.313 131.452 454.52 131.542 454.79 131.542C455.078 131.542 455.294 131.443 455.438 131.245C455.582 131.029 455.69 130.696 455.762 130.246L457.895 116.341C458.021 115.513 458.282 114.892 458.678 114.478C459.092 114.046 459.614 113.83 460.244 113.83C461.54 113.83 462.314 114.667 462.566 116.341L464.699 130.246C464.771 130.714 464.879 131.047 465.023 131.245C465.167 131.443 465.383 131.542 465.671 131.542C465.923 131.542 466.121 131.443 466.265 131.245C466.427 131.047 466.553 130.705 466.643 130.219L469.505 114.802C469.559 114.46 469.667 114.217 469.829 114.073C470.009 113.911 470.279 113.83 470.639 113.83C471.251 113.83 471.557 114.1 471.557 114.64C471.557 114.712 471.539 114.838 471.503 115.018L468.56 130.165C468.362 131.173 468.038 131.947 467.588 132.487C467.156 133.009 466.526 133.27 465.698 133.27C464.924 133.27 464.312 133.018 463.862 132.514C463.43 132.01 463.133 131.236 462.971 130.192L460.865 116.557C460.811 116.197 460.73 115.945 460.622 115.801C460.532 115.639 460.406 115.558 460.244 115.558C460.064 115.558 459.92 115.639 459.812 115.801C459.722 115.945 459.65 116.197 459.596 116.557L457.49 130.192C457.328 131.236 457.022 132.01 456.572 132.514C456.14 133.018 455.537 133.27 454.763 133.27ZM475.912 133.27C475.606 133.27 475.363 133.18 475.183 133C475.021 132.802 474.94 132.532 474.94 132.19V113.587C474.94 113.245 475.021 112.984 475.183 112.804C475.363 112.606 475.606 112.507 475.912 112.507C476.218 112.507 476.461 112.606 476.641 112.804C476.821 112.984 476.911 113.245 476.911 113.587V122.173C477.577 121.291 478.378 120.625 479.314 120.175C480.268 119.725 481.303 119.5 482.419 119.5C484.129 119.5 485.443 119.977 486.361 120.931C487.297 121.885 487.765 123.253 487.765 125.035V132.19C487.765 132.532 487.675 132.802 487.495 133C487.315 133.18 487.072 133.27 486.766 133.27C486.442 133.27 486.199 133.18 486.037 133C485.875 132.802 485.794 132.532 485.794 132.19V125.035C485.794 122.479 484.588 121.201 482.176 121.201C480.592 121.201 479.314 121.669 478.342 122.605C477.388 123.541 476.911 124.783 476.911 126.331V132.19C476.911 132.514 476.821 132.775 476.641 132.973C476.479 133.171 476.236 133.27 475.912 133.27ZM492.876 116.638C492.48 116.638 492.138 116.512 491.85 116.26C491.58 115.99 491.445 115.666 491.445 115.288C491.445 114.91 491.58 114.586 491.85 114.316C492.138 114.046 492.48 113.911 492.876 113.911C493.272 113.911 493.614 114.055 493.902 114.343C494.208 114.613 494.361 114.928 494.361 115.288C494.361 115.648 494.208 115.963 493.902 116.233C493.614 116.503 493.272 116.638 492.876 116.638ZM492.876 133.27C492.57 133.27 492.327 133.18 492.147 133C491.985 132.802 491.904 132.532 491.904 132.19V120.58C491.904 120.238 491.985 119.977 492.147 119.797C492.327 119.599 492.57 119.5 492.876 119.5C493.2 119.5 493.443 119.599 493.605 119.797C493.785 119.977 493.875 120.238 493.875 120.58V132.19C493.875 132.532 493.785 132.802 493.605 133C493.443 133.18 493.2 133.27 492.876 133.27ZM503.919 133.27C502.659 133.27 501.471 133.036 500.355 132.568C499.239 132.082 498.357 131.416 497.709 130.57C497.583 130.39 497.52 130.21 497.52 130.03C497.52 129.85 497.565 129.697 497.655 129.571C497.763 129.427 497.898 129.319 498.06 129.247C498.204 129.193 498.321 129.166 498.411 129.166C498.573 129.166 498.708 129.211 498.816 129.301C498.942 129.373 499.086 129.499 499.248 129.679C500.418 130.921 501.975 131.542 503.919 131.542C504.855 131.542 505.611 131.38 506.187 131.056C506.763 130.732 507.051 130.282 507.051 129.706C507.051 129.292 506.934 128.959 506.7 128.707C506.484 128.437 506.106 128.194 505.566 127.978C505.044 127.744 504.18 127.42 502.974 127.006C501.804 126.61 500.886 126.232 500.22 125.872C499.554 125.512 499.059 125.107 498.735 124.657C498.411 124.189 498.249 123.622 498.249 122.956C498.249 121.912 498.699 121.075 499.599 120.445C500.517 119.815 501.732 119.5 503.244 119.5C504.36 119.5 505.395 119.698 506.349 120.094C507.303 120.472 508.023 120.985 508.509 121.633C508.653 121.831 508.725 122.02 508.725 122.2C508.725 122.47 508.581 122.686 508.293 122.848C508.113 122.956 507.933 123.01 507.753 123.01C507.447 123.01 507.159 122.875 506.889 122.605C506.421 122.137 505.908 121.795 505.35 121.579C504.792 121.345 504.081 121.228 503.217 121.228C502.263 121.228 501.534 121.381 501.03 121.687C500.526 121.993 500.274 122.425 500.274 122.983C500.274 123.397 500.373 123.73 500.571 123.982C500.787 124.216 501.12 124.432 501.57 124.63C502.038 124.81 502.848 125.089 504 125.467C505.296 125.899 506.295 126.313 506.997 126.709C507.717 127.087 508.23 127.51 508.536 127.978C508.86 128.446 509.022 129.022 509.022 129.706C509.022 130.786 508.545 131.65 507.591 132.298C506.655 132.946 505.431 133.27 503.919 133.27ZM513.17 133.27C512.864 133.27 512.621 133.18 512.441 133C512.279 132.802 512.198 132.532 512.198 132.19V113.587C512.198 113.245 512.279 112.984 512.441 112.804C512.621 112.606 512.864 112.507 513.17 112.507C513.476 112.507 513.719 112.606 513.899 112.804C514.079 112.984 514.169 113.245 514.169 113.587V125.683L523.133 119.635C523.313 119.509 523.502 119.446 523.7 119.446C524.006 119.446 524.231 119.572 524.375 119.824C524.465 119.95 524.51 120.121 524.51 120.337C524.51 120.661 524.366 120.913 524.078 121.093L519.245 124.306C520.811 125.368 522.026 126.538 522.89 127.816C523.754 129.076 524.348 130.543 524.672 132.217C524.726 132.505 524.672 132.757 524.51 132.973C524.348 133.171 524.114 133.27 523.808 133.27C523.214 133.27 522.863 133.018 522.755 132.514C522.377 130.786 521.819 129.418 521.081 128.41C520.361 127.384 519.218 126.367 517.652 125.359L514.169 127.708V132.19C514.169 132.514 514.079 132.775 513.899 132.973C513.737 133.171 513.494 133.27 513.17 133.27ZM533.761 133.27C531.421 133.27 529.612 132.667 528.334 131.461C527.056 130.255 526.417 128.545 526.417 126.331C526.417 124.207 527.065 122.542 528.361 121.336C529.657 120.112 531.43 119.5 533.68 119.5C535.066 119.5 536.299 119.725 537.379 120.175C538.459 120.607 539.296 121.228 539.89 122.038C540.502 122.83 540.808 123.739 540.808 124.765C540.808 125.521 540.592 126.106 540.16 126.52C539.746 126.934 539.17 127.141 538.432 127.141H528.442C528.442 128.527 528.91 129.616 529.846 130.408C530.782 131.182 532.087 131.569 533.761 131.569C534.787 131.569 535.669 131.461 536.407 131.245C537.145 131.011 537.838 130.642 538.486 130.138C538.828 129.85 539.107 129.706 539.323 129.706C539.485 129.706 539.638 129.778 539.782 129.922C540.034 130.138 540.16 130.363 540.16 130.597C540.16 130.777 540.052 130.975 539.836 131.191C539.098 131.893 538.234 132.415 537.244 132.757C536.254 133.099 535.093 133.27 533.761 133.27ZM537.838 125.548C538.162 125.548 538.405 125.485 538.567 125.359C538.729 125.215 538.81 124.963 538.81 124.603C538.81 123.955 538.594 123.37 538.162 122.848C537.73 122.326 537.118 121.921 536.326 121.633C535.552 121.345 534.67 121.201 533.68 121.201C532.078 121.201 530.809 121.597 529.873 122.389C528.955 123.163 528.496 124.216 528.496 125.548H537.838ZM549.868 133.27C547.636 133.27 545.872 132.667 544.576 131.461C543.298 130.237 542.659 128.572 542.659 126.466C542.659 125.134 542.938 123.946 543.496 122.902C544.072 121.84 544.9 121.012 545.98 120.418C547.078 119.806 548.392 119.5 549.922 119.5C551.218 119.5 552.316 119.743 553.216 120.229C554.134 120.715 554.944 121.39 555.646 122.254L555.673 113.587C555.673 113.245 555.754 112.984 555.916 112.804C556.096 112.606 556.348 112.507 556.672 112.507C556.978 112.507 557.212 112.606 557.374 112.804C557.554 112.984 557.644 113.245 557.644 113.587V132.19C557.644 132.532 557.554 132.802 557.374 133C557.212 133.18 556.978 133.27 556.672 133.27C556.366 133.27 556.123 133.18 555.943 133C555.763 132.802 555.673 132.532 555.673 132.19V130.462C555.043 131.38 554.233 132.082 553.243 132.568C552.271 133.036 551.146 133.27 549.868 133.27ZM550.03 131.569C551.776 131.569 553.153 131.11 554.161 130.192C555.169 129.256 555.673 127.987 555.673 126.385C555.673 125.323 555.412 124.405 554.89 123.631C554.386 122.839 553.702 122.236 552.838 121.822C551.992 121.408 551.065 121.201 550.057 121.201C548.365 121.201 547.042 121.687 546.088 122.659C545.134 123.613 544.657 124.882 544.657 126.466C544.657 128.158 545.125 129.436 546.061 130.3C546.997 131.146 548.32 131.569 550.03 131.569ZM577.586 114.262C577.766 114.424 577.856 114.622 577.856 114.856C577.856 115.09 577.757 115.306 577.559 115.504C577.379 115.648 577.208 115.72 577.046 115.72C576.812 115.72 576.497 115.603 576.101 115.369C575.453 114.991 574.76 114.802 574.022 114.802C572.69 114.802 572.024 115.522 572.024 116.962V119.77H575.858C576.56 119.77 576.911 120.049 576.911 120.607C576.911 120.859 576.821 121.057 576.641 121.201C576.461 121.345 576.2 121.417 575.858 121.417H572.024V132.19C572.024 132.532 571.934 132.802 571.754 133C571.592 133.18 571.358 133.27 571.052 133.27C570.746 133.27 570.503 133.18 570.323 133C570.143 132.802 570.053 132.532 570.053 132.19V121.417H568.757C568.415 121.417 568.145 121.345 567.947 121.201C567.767 121.057 567.677 120.859 567.677 120.607C567.677 120.049 568.037 119.77 568.757 119.77H570.053V117.07C570.053 115.864 570.404 114.901 571.106 114.181C571.826 113.443 572.771 113.074 573.941 113.074C574.679 113.074 575.363 113.182 575.993 113.398C576.623 113.596 577.154 113.884 577.586 114.262ZM580.51 133.27C580.204 133.27 579.961 133.18 579.781 133C579.619 132.802 579.538 132.532 579.538 132.19V120.58C579.538 120.238 579.619 119.977 579.781 119.797C579.943 119.599 580.186 119.5 580.51 119.5C580.816 119.5 581.05 119.599 581.212 119.797C581.392 119.977 581.482 120.238 581.482 120.58V122.2C582.706 120.58 584.398 119.77 586.558 119.77H587.233C587.575 119.77 587.845 119.851 588.043 120.013C588.241 120.157 588.34 120.364 588.34 120.634C588.34 120.904 588.241 121.111 588.043 121.255C587.845 121.399 587.575 121.471 587.233 121.471H586.477C584.947 121.471 583.732 121.912 582.832 122.794C581.95 123.658 581.509 124.837 581.509 126.331V132.19C581.509 132.514 581.419 132.775 581.239 132.973C581.077 133.171 580.834 133.27 580.51 133.27ZM596.676 133.27C595.11 133.27 593.769 132.955 592.653 132.325C591.537 131.695 590.691 130.858 590.115 129.814C589.557 128.752 589.278 127.609 589.278 126.385C589.278 125.161 589.557 124.027 590.115 122.983C590.691 121.921 591.537 121.075 592.653 120.445C593.769 119.815 595.11 119.5 596.676 119.5C598.242 119.5 599.574 119.815 600.672 120.445C601.788 121.075 602.625 121.921 603.183 122.983C603.759 124.027 604.047 125.161 604.047 126.385C604.047 127.609 603.759 128.752 603.183 129.814C602.625 130.858 601.788 131.695 600.672 132.325C599.574 132.955 598.242 133.27 596.676 133.27ZM596.676 131.569C598.296 131.569 599.592 131.11 600.564 130.192C601.554 129.274 602.049 128.005 602.049 126.385C602.049 124.765 601.554 123.496 600.564 122.578C599.592 121.66 598.296 121.201 596.676 121.201C595.038 121.201 593.724 121.66 592.734 122.578C591.762 123.496 591.276 124.765 591.276 126.385C591.276 128.005 591.762 129.274 592.734 130.192C593.724 131.11 595.038 131.569 596.676 131.569ZM607.693 133.27C607.387 133.27 607.144 133.18 606.964 133C606.802 132.802 606.721 132.532 606.721 132.19V120.58C606.721 120.238 606.802 119.977 606.964 119.797C607.144 119.599 607.387 119.5 607.693 119.5C608.017 119.5 608.26 119.599 608.422 119.797C608.602 119.995 608.692 120.256 608.692 120.58V122.119C609.178 121.309 609.799 120.67 610.555 120.202C611.329 119.734 612.139 119.5 612.985 119.5C613.831 119.5 614.578 119.734 615.226 120.202C615.874 120.652 616.351 121.291 616.657 122.119C617.287 121.273 617.98 120.625 618.736 120.175C619.51 119.725 620.311 119.5 621.139 119.5C622.561 119.5 623.632 119.941 624.352 120.823C625.072 121.687 625.432 122.974 625.432 124.684V132.19C625.432 132.532 625.342 132.802 625.162 133C624.982 133.18 624.739 133.27 624.433 133.27C623.785 133.27 623.461 132.91 623.461 132.19V124.63C623.461 123.478 623.263 122.623 622.867 122.065C622.489 121.489 621.832 121.201 620.896 121.201C620.104 121.201 619.393 121.444 618.763 121.93C618.133 122.398 617.629 123.082 617.251 123.982V132.19C617.251 132.532 617.161 132.802 616.981 133C616.801 133.18 616.558 133.27 616.252 133.27C615.946 133.27 615.703 133.18 615.523 133C615.361 132.802 615.28 132.532 615.28 132.19V125.035C615.28 123.793 615.055 122.848 614.605 122.2C614.173 121.534 613.552 121.201 612.742 121.201C611.968 121.201 611.275 121.417 610.663 121.849C610.051 122.263 609.565 122.839 609.205 123.577C608.863 124.315 608.692 125.152 608.692 126.088V132.19C608.692 132.514 608.602 132.775 608.422 132.973C608.26 133.171 608.017 133.27 607.693 133.27ZM645.271 130.327C645.469 130.489 645.568 130.678 645.568 130.894C645.568 131.074 645.487 131.29 645.325 131.542C644.947 132.064 644.425 132.487 643.759 132.811C643.093 133.117 642.409 133.27 641.707 133.27C640.519 133.27 639.583 132.919 638.899 132.217C638.215 131.515 637.873 130.552 637.873 129.328V121.417H636.415C635.695 121.417 635.335 121.138 635.335 120.58C635.335 120.328 635.425 120.13 635.605 119.986C635.803 119.842 636.073 119.77 636.415 119.77H637.873V115.153C637.873 114.811 637.954 114.55 638.116 114.37C638.296 114.172 638.548 114.073 638.872 114.073C639.178 114.073 639.412 114.172 639.574 114.37C639.754 114.55 639.844 114.811 639.844 115.153V119.77H643.516C643.84 119.77 644.092 119.842 644.272 119.986C644.47 120.112 644.569 120.31 644.569 120.58C644.569 121.138 644.218 121.417 643.516 121.417H639.844V129.49C639.844 130.876 640.492 131.569 641.788 131.569C642.202 131.569 642.58 131.488 642.922 131.326C643.264 131.164 643.606 130.903 643.948 130.543C644.218 130.255 644.479 130.111 644.731 130.111C644.893 130.111 645.073 130.183 645.271 130.327ZM649.46 133.27C649.154 133.27 648.911 133.18 648.731 133C648.569 132.802 648.488 132.532 648.488 132.19V113.587C648.488 113.245 648.569 112.984 648.731 112.804C648.911 112.606 649.154 112.507 649.46 112.507C649.766 112.507 650.009 112.606 650.189 112.804C650.369 112.984 650.459 113.245 650.459 113.587V122.173C651.125 121.291 651.926 120.625 652.862 120.175C653.816 119.725 654.851 119.5 655.967 119.5C657.677 119.5 658.991 119.977 659.909 120.931C660.845 121.885 661.313 123.253 661.313 125.035V132.19C661.313 132.532 661.223 132.802 661.043 133C660.863 133.18 660.62 133.27 660.314 133.27C659.99 133.27 659.747 133.18 659.585 133C659.423 132.802 659.342 132.532 659.342 132.19V125.035C659.342 122.479 658.136 121.201 655.724 121.201C654.14 121.201 652.862 121.669 651.89 122.605C650.936 123.541 650.459 124.783 650.459 126.331V132.19C650.459 132.514 650.369 132.775 650.189 132.973C650.027 133.171 649.784 133.27 649.46 133.27ZM671.582 133.27C669.242 133.27 667.433 132.667 666.155 131.461C664.877 130.255 664.238 128.545 664.238 126.331C664.238 124.207 664.886 122.542 666.182 121.336C667.478 120.112 669.251 119.5 671.501 119.5C672.887 119.5 674.12 119.725 675.2 120.175C676.28 120.607 677.117 121.228 677.711 122.038C678.323 122.83 678.629 123.739 678.629 124.765C678.629 125.521 678.413 126.106 677.981 126.52C677.567 126.934 676.991 127.141 676.253 127.141H666.263C666.263 128.527 666.731 129.616 667.667 130.408C668.603 131.182 669.908 131.569 671.582 131.569C672.608 131.569 673.49 131.461 674.228 131.245C674.966 131.011 675.659 130.642 676.307 130.138C676.649 129.85 676.928 129.706 677.144 129.706C677.306 129.706 677.459 129.778 677.603 129.922C677.855 130.138 677.981 130.363 677.981 130.597C677.981 130.777 677.873 130.975 677.657 131.191C676.919 131.893 676.055 132.415 675.065 132.757C674.075 133.099 672.914 133.27 671.582 133.27ZM675.659 125.548C675.983 125.548 676.226 125.485 676.388 125.359C676.55 125.215 676.631 124.963 676.631 124.603C676.631 123.955 676.415 123.37 675.983 122.848C675.551 122.326 674.939 121.921 674.147 121.633C673.373 121.345 672.491 121.201 671.501 121.201C669.899 121.201 668.63 121.597 667.694 122.389C666.776 123.163 666.317 124.216 666.317 125.548H675.659ZM695.47 133.27C694.03 133.27 692.761 132.991 691.663 132.433C690.565 131.857 689.719 131.047 689.125 130.003C688.531 128.959 688.234 127.744 688.234 126.358C688.234 124.99 688.531 123.793 689.125 122.767C689.719 121.723 690.565 120.922 691.663 120.364C692.761 119.788 694.03 119.5 695.47 119.5C696.82 119.5 697.99 119.689 698.98 120.067C699.97 120.445 700.753 121.003 701.329 121.741C701.473 121.939 701.545 122.128 701.545 122.308C701.545 122.578 701.41 122.821 701.14 123.037C701.014 123.145 700.852 123.199 700.654 123.199C700.348 123.199 700.06 123.064 699.79 122.794C698.836 121.732 697.396 121.201 695.47 121.201C693.796 121.201 692.5 121.651 691.582 122.551C690.682 123.433 690.232 124.702 690.232 126.358C690.232 127.996 690.691 129.274 691.609 130.192C692.527 131.11 693.814 131.569 695.47 131.569C696.388 131.569 697.234 131.434 698.008 131.164C698.782 130.876 699.421 130.471 699.925 129.949C700.231 129.643 700.519 129.49 700.789 129.49C700.951 129.49 701.131 129.562 701.329 129.706C701.581 129.922 701.707 130.156 701.707 130.408C701.707 130.642 701.608 130.84 701.41 131.002C700.528 131.794 699.61 132.37 698.656 132.73C697.702 133.09 696.64 133.27 695.47 133.27ZM706.321 133.27C706.015 133.27 705.772 133.18 705.592 133C705.43 132.802 705.349 132.532 705.349 132.19V113.587C705.349 113.245 705.43 112.984 705.592 112.804C705.772 112.606 706.015 112.507 706.321 112.507C706.627 112.507 706.87 112.606 707.05 112.804C707.23 112.984 707.32 113.245 707.32 113.587V132.19C707.32 132.514 707.23 132.775 707.05 132.973C706.888 133.171 706.645 133.27 706.321 133.27ZM718.386 133.27C716.82 133.27 715.479 132.955 714.363 132.325C713.247 131.695 712.401 130.858 711.825 129.814C711.267 128.752 710.988 127.609 710.988 126.385C710.988 125.161 711.267 124.027 711.825 122.983C712.401 121.921 713.247 121.075 714.363 120.445C715.479 119.815 716.82 119.5 718.386 119.5C719.952 119.5 721.284 119.815 722.382 120.445C723.498 121.075 724.335 121.921 724.893 122.983C725.469 124.027 725.757 125.161 725.757 126.385C725.757 127.609 725.469 128.752 724.893 129.814C724.335 130.858 723.498 131.695 722.382 132.325C721.284 132.955 719.952 133.27 718.386 133.27ZM718.386 131.569C720.006 131.569 721.302 131.11 722.274 130.192C723.264 129.274 723.759 128.005 723.759 126.385C723.759 124.765 723.264 123.496 722.274 122.578C721.302 121.66 720.006 121.201 718.386 121.201C716.748 121.201 715.434 121.66 714.444 122.578C713.472 123.496 712.986 124.765 712.986 126.385C712.986 128.005 713.472 129.274 714.444 130.192C715.434 131.11 716.748 131.569 718.386 131.569ZM734.39 133.27C732.626 133.27 731.24 132.766 730.232 131.758C729.242 130.75 728.747 129.346 728.747 127.546V120.58C728.747 120.238 728.837 119.977 729.017 119.797C729.197 119.599 729.44 119.5 729.746 119.5C730.052 119.5 730.286 119.599 730.448 119.797C730.628 119.977 730.718 120.238 730.718 120.58V127.546C730.718 128.824 731.06 129.814 731.744 130.516C732.428 131.218 733.382 131.569 734.606 131.569C735.578 131.569 736.442 131.353 737.198 130.921C737.954 130.489 738.539 129.886 738.953 129.112C739.385 128.338 739.601 127.447 739.601 126.439V120.58C739.601 120.238 739.682 119.977 739.844 119.797C740.024 119.599 740.276 119.5 740.6 119.5C740.906 119.5 741.14 119.599 741.302 119.797C741.482 119.977 741.572 120.238 741.572 120.58V132.19C741.572 132.532 741.482 132.802 741.302 133C741.14 133.18 740.906 133.27 740.6 133.27C740.276 133.27 740.024 133.171 739.844 132.973C739.682 132.775 739.601 132.514 739.601 132.19V130.597C738.935 131.461 738.161 132.127 737.279 132.595C736.397 133.045 735.434 133.27 734.39 133.27ZM751.841 133.27C749.609 133.27 747.845 132.667 746.549 131.461C745.271 130.237 744.632 128.572 744.632 126.466C744.632 125.134 744.911 123.946 745.469 122.902C746.045 121.84 746.873 121.012 747.953 120.418C749.051 119.806 750.365 119.5 751.895 119.5C753.191 119.5 754.289 119.743 755.189 120.229C756.107 120.715 756.917 121.39 757.619 122.254L757.646 113.587C757.646 113.245 757.727 112.984 757.889 112.804C758.069 112.606 758.321 112.507 758.645 112.507C758.951 112.507 759.185 112.606 759.347 112.804C759.527 112.984 759.617 113.245 759.617 113.587V132.19C759.617 132.532 759.527 132.802 759.347 133C759.185 133.18 758.951 133.27 758.645 133.27C758.339 133.27 758.096 133.18 757.916 133C757.736 132.802 757.646 132.532 757.646 132.19V130.462C757.016 131.38 756.206 132.082 755.216 132.568C754.244 133.036 753.119 133.27 751.841 133.27ZM752.003 131.569C753.749 131.569 755.126 131.11 756.134 130.192C757.142 129.256 757.646 127.987 757.646 126.385C757.646 125.323 757.385 124.405 756.863 123.631C756.359 122.839 755.675 122.236 754.811 121.822C753.965 121.408 753.038 121.201 752.03 121.201C750.338 121.201 749.015 121.687 748.061 122.659C747.107 123.613 746.63 124.882 746.63 126.466C746.63 128.158 747.098 129.436 748.034 130.3C748.97 131.146 750.293 131.569 752.003 131.569ZM769.121 133.27C767.861 133.27 766.673 133.036 765.557 132.568C764.441 132.082 763.559 131.416 762.911 130.57C762.785 130.39 762.722 130.21 762.722 130.03C762.722 129.85 762.767 129.697 762.857 129.571C762.965 129.427 763.1 129.319 763.262 129.247C763.406 129.193 763.523 129.166 763.613 129.166C763.775 129.166 763.91 129.211 764.018 129.301C764.144 129.373 764.288 129.499 764.45 129.679C765.62 130.921 767.177 131.542 769.121 131.542C770.057 131.542 770.813 131.38 771.389 131.056C771.965 130.732 772.253 130.282 772.253 129.706C772.253 129.292 772.136 128.959 771.902 128.707C771.686 128.437 771.308 128.194 770.768 127.978C770.246 127.744 769.382 127.42 768.176 127.006C767.006 126.61 766.088 126.232 765.422 125.872C764.756 125.512 764.261 125.107 763.937 124.657C763.613 124.189 763.451 123.622 763.451 122.956C763.451 121.912 763.901 121.075 764.801 120.445C765.719 119.815 766.934 119.5 768.446 119.5C769.562 119.5 770.597 119.698 771.551 120.094C772.505 120.472 773.225 120.985 773.711 121.633C773.855 121.831 773.927 122.02 773.927 122.2C773.927 122.47 773.783 122.686 773.495 122.848C773.315 122.956 773.135 123.01 772.955 123.01C772.649 123.01 772.361 122.875 772.091 122.605C771.623 122.137 771.11 121.795 770.552 121.579C769.994 121.345 769.283 121.228 768.419 121.228C767.465 121.228 766.736 121.381 766.232 121.687C765.728 121.993 765.476 122.425 765.476 122.983C765.476 123.397 765.575 123.73 765.773 123.982C765.989 124.216 766.322 124.432 766.772 124.63C767.24 124.81 768.05 125.089 769.202 125.467C770.498 125.899 771.497 126.313 772.199 126.709C772.919 127.087 773.432 127.51 773.738 127.978C774.062 128.446 774.224 129.022 774.224 129.706C774.224 130.786 773.747 131.65 772.793 132.298C771.857 132.946 770.633 133.27 769.121 133.27ZM776.859 136.348C776.769 136.24 776.724 136.123 776.724 135.997C776.724 135.799 776.859 135.592 777.129 135.376C778.173 134.512 778.722 133.738 778.776 133.054C778.686 133.09 778.542 133.108 778.344 133.108C777.948 133.108 777.606 132.973 777.318 132.703C777.03 132.433 776.886 132.1 776.886 131.704C776.886 131.182 777.039 130.777 777.345 130.489C777.651 130.183 778.083 130.03 778.641 130.03C779.199 130.03 779.64 130.219 779.964 130.597C780.288 130.975 780.45 131.497 780.45 132.163C780.45 132.829 780.243 133.504 779.829 134.188C779.415 134.89 778.839 135.529 778.101 136.105C777.723 136.393 777.435 136.537 777.237 136.537C777.093 136.537 776.967 136.474 776.859 136.348ZM791.789 133.27C791.483 133.27 791.24 133.18 791.06 133C790.898 132.802 790.817 132.532 790.817 132.19V120.58C790.817 120.238 790.898 119.977 791.06 119.797C791.24 119.599 791.483 119.5 791.789 119.5C792.113 119.5 792.356 119.599 792.518 119.797C792.698 119.995 792.788 120.256 792.788 120.58V122.119C793.274 121.309 793.895 120.67 794.651 120.202C795.425 119.734 796.235 119.5 797.081 119.5C797.927 119.5 798.674 119.734 799.322 120.202C799.97 120.652 800.447 121.291 800.753 122.119C801.383 121.273 802.076 120.625 802.832 120.175C803.606 119.725 804.407 119.5 805.235 119.5C806.657 119.5 807.728 119.941 808.448 120.823C809.168 121.687 809.528 122.974 809.528 124.684V132.19C809.528 132.532 809.438 132.802 809.258 133C809.078 133.18 808.835 133.27 808.529 133.27C807.881 133.27 807.557 132.91 807.557 132.19V124.63C807.557 123.478 807.359 122.623 806.963 122.065C806.585 121.489 805.928 121.201 804.992 121.201C804.2 121.201 803.489 121.444 802.859 121.93C802.229 122.398 801.725 123.082 801.347 123.982V132.19C801.347 132.532 801.257 132.802 801.077 133C800.897 133.18 800.654 133.27 800.348 133.27C800.042 133.27 799.799 133.18 799.619 133C799.457 132.802 799.376 132.532 799.376 132.19V125.035C799.376 123.793 799.151 122.848 798.701 122.2C798.269 121.534 797.648 121.201 796.838 121.201C796.064 121.201 795.371 121.417 794.759 121.849C794.147 122.263 793.661 122.839 793.301 123.577C792.959 124.315 792.788 125.152 792.788 126.088V132.19C792.788 132.514 792.698 132.775 792.518 132.973C792.356 133.171 792.113 133.27 791.789 133.27ZM818.065 133.27C816.301 133.27 814.915 132.883 813.907 132.109C812.917 131.335 812.422 130.264 812.422 128.896C812.422 127.546 812.944 126.475 813.988 125.683C815.05 124.891 816.49 124.495 818.308 124.495C819.37 124.495 820.306 124.639 821.116 124.927C821.944 125.215 822.583 125.602 823.033 126.088V124.36C823.033 123.334 822.691 122.551 822.007 122.011C821.341 121.471 820.36 121.201 819.064 121.201C817.39 121.201 815.941 121.597 814.717 122.389C814.411 122.569 814.159 122.659 813.961 122.659C813.781 122.659 813.601 122.587 813.421 122.443C813.223 122.281 813.124 122.074 813.124 121.822C813.124 121.552 813.241 121.327 813.475 121.147C814.123 120.643 814.942 120.247 815.932 119.959C816.94 119.653 817.966 119.5 819.01 119.5C820.918 119.5 822.394 119.932 823.438 120.796C824.5 121.66 825.031 122.875 825.031 124.441V132.217C825.031 132.919 824.707 133.27 824.059 133.27C823.771 133.27 823.537 133.18 823.357 133C823.177 132.802 823.087 132.55 823.087 132.244V131.272C821.971 132.604 820.297 133.27 818.065 133.27ZM818.308 131.623C819.712 131.623 820.855 131.362 821.737 130.84C822.619 130.3 823.06 129.607 823.06 128.761C823.06 127.915 822.646 127.267 821.818 126.817C821.008 126.349 819.856 126.115 818.362 126.115C817.102 126.115 816.13 126.358 815.446 126.844C814.762 127.312 814.42 127.996 814.42 128.896C814.42 129.778 814.753 130.453 815.419 130.921C816.085 131.389 817.048 131.623 818.308 131.623ZM835.161 133.27C832.929 133.27 831.165 132.667 829.869 131.461C828.591 130.237 827.952 128.572 827.952 126.466C827.952 125.134 828.231 123.946 828.789 122.902C829.365 121.84 830.193 121.012 831.273 120.418C832.371 119.806 833.685 119.5 835.215 119.5C836.511 119.5 837.609 119.743 838.509 120.229C839.427 120.715 840.237 121.39 840.939 122.254L840.966 113.587C840.966 113.245 841.047 112.984 841.209 112.804C841.389 112.606 841.641 112.507 841.965 112.507C842.271 112.507 842.505 112.606 842.667 112.804C842.847 112.984 842.937 113.245 842.937 113.587V132.19C842.937 132.532 842.847 132.802 842.667 133C842.505 133.18 842.271 133.27 841.965 133.27C841.659 133.27 841.416 133.18 841.236 133C841.056 132.802 840.966 132.532 840.966 132.19V130.462C840.336 131.38 839.526 132.082 838.536 132.568C837.564 133.036 836.439 133.27 835.161 133.27ZM835.323 131.569C837.069 131.569 838.446 131.11 839.454 130.192C840.462 129.256 840.966 127.987 840.966 126.385C840.966 125.323 840.705 124.405 840.183 123.631C839.679 122.839 838.995 122.236 838.131 121.822C837.285 121.408 836.358 121.201 835.35 121.201C833.658 121.201 832.335 121.687 831.381 122.659C830.427 123.613 829.95 124.882 829.95 126.466C829.95 128.158 830.418 129.436 831.354 130.3C832.29 131.146 833.613 131.569 835.323 131.569ZM853.305 133.27C850.965 133.27 849.156 132.667 847.878 131.461C846.6 130.255 845.961 128.545 845.961 126.331C845.961 124.207 846.609 122.542 847.905 121.336C849.201 120.112 850.974 119.5 853.224 119.5C854.61 119.5 855.843 119.725 856.923 120.175C858.003 120.607 858.84 121.228 859.434 122.038C860.046 122.83 860.352 123.739 860.352 124.765C860.352 125.521 860.136 126.106 859.704 126.52C859.29 126.934 858.714 127.141 857.976 127.141H847.986C847.986 128.527 848.454 129.616 849.39 130.408C850.326 131.182 851.631 131.569 853.305 131.569C854.331 131.569 855.213 131.461 855.951 131.245C856.689 131.011 857.382 130.642 858.03 130.138C858.372 129.85 858.651 129.706 858.867 129.706C859.029 129.706 859.182 129.778 859.326 129.922C859.578 130.138 859.704 130.363 859.704 130.597C859.704 130.777 859.596 130.975 859.38 131.191C858.642 131.893 857.778 132.415 856.788 132.757C855.798 133.099 854.637 133.27 853.305 133.27ZM857.382 125.548C857.706 125.548 857.949 125.485 858.111 125.359C858.273 125.215 858.354 124.963 858.354 124.603C858.354 123.955 858.138 123.37 857.706 122.848C857.274 122.326 856.662 121.921 855.87 121.633C855.096 121.345 854.214 121.201 853.224 121.201C851.622 121.201 850.353 121.597 849.417 122.389C848.499 123.163 848.04 124.216 848.04 125.548H857.382ZM874.303 116.557C873.907 116.557 873.565 116.422 873.277 116.152C872.989 115.882 872.845 115.567 872.845 115.207C872.845 114.829 872.989 114.505 873.277 114.235C873.565 113.965 873.907 113.83 874.303 113.83C874.699 113.83 875.041 113.965 875.329 114.235C875.635 114.505 875.788 114.829 875.788 115.207C875.788 115.567 875.635 115.882 875.329 116.152C875.041 116.422 874.699 116.557 874.303 116.557ZM870.604 140.884C870.316 140.884 870.082 140.803 869.902 140.641C869.722 140.479 869.632 140.263 869.632 139.993C869.632 139.741 869.722 139.534 869.902 139.372C870.082 139.228 870.316 139.156 870.604 139.156C871.342 139.156 871.9 139.066 872.278 138.886C872.656 138.724 872.917 138.427 873.061 137.995C873.223 137.581 873.304 136.96 873.304 136.132L873.331 120.58C873.331 120.238 873.412 119.977 873.574 119.797C873.736 119.599 873.979 119.5 874.303 119.5C874.627 119.5 874.87 119.599 875.032 119.797C875.212 119.977 875.302 120.238 875.302 120.58L875.275 136.132C875.275 137.698 874.924 138.877 874.222 139.669C873.52 140.479 872.314 140.884 870.604 140.884ZM885.184 133.27C883.42 133.27 882.034 132.766 881.026 131.758C880.036 130.75 879.541 129.346 879.541 127.546V120.58C879.541 120.238 879.631 119.977 879.811 119.797C879.991 119.599 880.234 119.5 880.54 119.5C880.846 119.5 881.08 119.599 881.242 119.797C881.422 119.977 881.512 120.238 881.512 120.58V127.546C881.512 128.824 881.854 129.814 882.538 130.516C883.222 131.218 884.176 131.569 885.4 131.569C886.372 131.569 887.236 131.353 887.992 130.921C888.748 130.489 889.333 129.886 889.747 129.112C890.179 128.338 890.395 127.447 890.395 126.439V120.58C890.395 120.238 890.476 119.977 890.638 119.797C890.818 119.599 891.07 119.5 891.394 119.5C891.7 119.5 891.934 119.599 892.096 119.797C892.276 119.977 892.366 120.238 892.366 120.58V132.19C892.366 132.532 892.276 132.802 892.096 133C891.934 133.18 891.7 133.27 891.394 133.27C891.07 133.27 890.818 133.171 890.638 132.973C890.476 132.775 890.395 132.514 890.395 132.19V130.597C889.729 131.461 888.955 132.127 888.073 132.595C887.191 133.045 886.228 133.27 885.184 133.27ZM901.906 133.27C900.646 133.27 899.458 133.036 898.342 132.568C897.226 132.082 896.344 131.416 895.696 130.57C895.57 130.39 895.507 130.21 895.507 130.03C895.507 129.85 895.552 129.697 895.642 129.571C895.75 129.427 895.885 129.319 896.047 129.247C896.191 129.193 896.308 129.166 896.398 129.166C896.56 129.166 896.695 129.211 896.803 129.301C896.929 129.373 897.073 129.499 897.235 129.679C898.405 130.921 899.962 131.542 901.906 131.542C902.842 131.542 903.598 131.38 904.174 131.056C904.75 130.732 905.038 130.282 905.038 129.706C905.038 129.292 904.921 128.959 904.687 128.707C904.471 128.437 904.093 128.194 903.553 127.978C903.031 127.744 902.167 127.42 900.961 127.006C899.791 126.61 898.873 126.232 898.207 125.872C897.541 125.512 897.046 125.107 896.722 124.657C896.398 124.189 896.236 123.622 896.236 122.956C896.236 121.912 896.686 121.075 897.586 120.445C898.504 119.815 899.719 119.5 901.231 119.5C902.347 119.5 903.382 119.698 904.336 120.094C905.29 120.472 906.01 120.985 906.496 121.633C906.64 121.831 906.712 122.02 906.712 122.2C906.712 122.47 906.568 122.686 906.28 122.848C906.1 122.956 905.92 123.01 905.74 123.01C905.434 123.01 905.146 122.875 904.876 122.605C904.408 122.137 903.895 121.795 903.337 121.579C902.779 121.345 902.068 121.228 901.204 121.228C900.25 121.228 899.521 121.381 899.017 121.687C898.513 121.993 898.261 122.425 898.261 122.983C898.261 123.397 898.36 123.73 898.558 123.982C898.774 124.216 899.107 124.432 899.557 124.63C900.025 124.81 900.835 125.089 901.987 125.467C903.283 125.899 904.282 126.313 904.984 126.709C905.704 127.087 906.217 127.51 906.523 127.978C906.847 128.446 907.009 129.022 907.009 129.706C907.009 130.786 906.532 131.65 905.578 132.298C904.642 132.946 903.418 133.27 901.906 133.27ZM919.121 130.327C919.319 130.489 919.418 130.678 919.418 130.894C919.418 131.074 919.337 131.29 919.175 131.542C918.797 132.064 918.275 132.487 917.609 132.811C916.943 133.117 916.259 133.27 915.557 133.27C914.369 133.27 913.433 132.919 912.749 132.217C912.065 131.515 911.723 130.552 911.723 129.328V121.417H910.265C909.545 121.417 909.185 121.138 909.185 120.58C909.185 120.328 909.275 120.13 909.455 119.986C909.653 119.842 909.923 119.77 910.265 119.77H911.723V115.153C911.723 114.811 911.804 114.55 911.966 114.37C912.146 114.172 912.398 114.073 912.722 114.073C913.028 114.073 913.262 114.172 913.424 114.37C913.604 114.55 913.694 114.811 913.694 115.153V119.77H917.366C917.69 119.77 917.942 119.842 918.122 119.986C918.32 120.112 918.419 120.31 918.419 120.58C918.419 121.138 918.068 121.417 917.366 121.417H913.694V129.49C913.694 130.876 914.342 131.569 915.638 131.569C916.052 131.569 916.43 131.488 916.772 131.326C917.114 131.164 917.456 130.903 917.798 130.543C918.068 130.255 918.329 130.111 918.581 130.111C918.743 130.111 918.923 130.183 919.121 130.327ZM938.5 114.262C938.68 114.424 938.77 114.622 938.77 114.856C938.77 115.09 938.671 115.306 938.473 115.504C938.293 115.648 938.122 115.72 937.96 115.72C937.726 115.72 937.411 115.603 937.015 115.369C936.367 114.991 935.674 114.802 934.936 114.802C933.604 114.802 932.938 115.522 932.938 116.962V119.77H936.772C937.474 119.77 937.825 120.049 937.825 120.607C937.825 120.859 937.735 121.057 937.555 121.201C937.375 121.345 937.114 121.417 936.772 121.417H932.938V132.19C932.938 132.532 932.848 132.802 932.668 133C932.506 133.18 932.272 133.27 931.966 133.27C931.66 133.27 931.417 133.18 931.237 133C931.057 132.802 930.967 132.532 930.967 132.19V121.417H929.671C929.329 121.417 929.059 121.345 928.861 121.201C928.681 121.057 928.591 120.859 928.591 120.607C928.591 120.049 928.951 119.77 929.671 119.77H930.967V117.07C930.967 115.864 931.318 114.901 932.02 114.181C932.74 113.443 933.685 113.074 934.855 113.074C935.593 113.074 936.277 113.182 936.907 113.398C937.537 113.596 938.068 113.884 938.5 114.262ZM946.278 133.27C944.712 133.27 943.371 132.955 942.255 132.325C941.139 131.695 940.293 130.858 939.717 129.814C939.159 128.752 938.88 127.609 938.88 126.385C938.88 125.161 939.159 124.027 939.717 122.983C940.293 121.921 941.139 121.075 942.255 120.445C943.371 119.815 944.712 119.5 946.278 119.5C947.844 119.5 949.176 119.815 950.274 120.445C951.39 121.075 952.227 121.921 952.785 122.983C953.361 124.027 953.649 125.161 953.649 126.385C953.649 127.609 953.361 128.752 952.785 129.814C952.227 130.858 951.39 131.695 950.274 132.325C949.176 132.955 947.844 133.27 946.278 133.27ZM946.278 131.569C947.898 131.569 949.194 131.11 950.166 130.192C951.156 129.274 951.651 128.005 951.651 126.385C951.651 124.765 951.156 123.496 950.166 122.578C949.194 121.66 947.898 121.201 946.278 121.201C944.64 121.201 943.326 121.66 942.336 122.578C941.364 123.496 940.878 124.765 940.878 126.385C940.878 128.005 941.364 129.274 942.336 130.192C943.326 131.11 944.64 131.569 946.278 131.569ZM957.746 133.27C957.44 133.27 957.197 133.18 957.017 133C956.855 132.802 956.774 132.532 956.774 132.19V120.58C956.774 120.238 956.855 119.977 957.017 119.797C957.179 119.599 957.422 119.5 957.746 119.5C958.052 119.5 958.286 119.599 958.448 119.797C958.628 119.977 958.718 120.238 958.718 120.58V122.2C959.942 120.58 961.634 119.77 963.794 119.77H964.469C964.811 119.77 965.081 119.851 965.279 120.013C965.477 120.157 965.576 120.364 965.576 120.634C965.576 120.904 965.477 121.111 965.279 121.255C965.081 121.399 964.811 121.471 964.469 121.471H963.713C962.183 121.471 960.968 121.912 960.068 122.794C959.186 123.658 958.745 124.837 958.745 126.331V132.19C958.745 132.514 958.655 132.775 958.475 132.973C958.313 133.171 958.07 133.27 957.746 133.27ZM981.673 139.75C980.341 139.75 979.153 139.552 978.109 139.156C977.065 138.76 976.3 138.22 975.814 137.536C975.688 137.356 975.625 137.176 975.625 136.996C975.625 136.708 975.769 136.456 976.057 136.24C976.165 136.15 976.327 136.105 976.543 136.105C976.849 136.105 977.137 136.249 977.407 136.537C977.803 137.005 978.379 137.374 979.135 137.644C979.909 137.932 980.728 138.076 981.592 138.076C983.212 138.076 984.49 137.59 985.426 136.618C986.38 135.646 986.857 134.332 986.857 132.676V130.84C986.299 131.578 985.588 132.145 984.724 132.541C983.86 132.919 982.906 133.108 981.862 133.108C979.666 133.108 977.947 132.487 976.705 131.245C975.481 129.985 974.869 128.239 974.869 126.007V120.499C974.869 120.229 974.968 120.004 975.166 119.824C975.364 119.626 975.607 119.527 975.895 119.527C976.183 119.527 976.417 119.626 976.597 119.824C976.795 120.004 976.894 120.229 976.894 120.499V126.007C976.894 127.735 977.326 129.085 978.19 130.057C979.072 131.011 980.296 131.488 981.862 131.488C983.41 131.488 984.607 131.029 985.453 130.111C986.299 129.193 986.722 127.888 986.722 126.196V120.769C986.722 120.373 986.812 120.067 986.992 119.851C987.19 119.617 987.46 119.5 987.802 119.5C988.126 119.5 988.378 119.617 988.558 119.851C988.756 120.067 988.855 120.373 988.855 120.769V132.541C988.855 133.963 988.549 135.214 987.937 136.294C987.343 137.392 986.506 138.238 985.426 138.832C984.346 139.444 983.095 139.75 981.673 139.75ZM999.25 133.27C997.684 133.27 996.343 132.955 995.227 132.325C994.111 131.695 993.265 130.858 992.689 129.814C992.131 128.752 991.852 127.609 991.852 126.385C991.852 125.161 992.131 124.027 992.689 122.983C993.265 121.921 994.111 121.075 995.227 120.445C996.343 119.815 997.684 119.5 999.25 119.5C1000.82 119.5 1002.15 119.815 1003.25 120.445C1004.36 121.075 1005.2 121.921 1005.76 122.983C1006.33 124.027 1006.62 125.161 1006.62 126.385C1006.62 127.609 1006.33 128.752 1005.76 129.814C1005.2 130.858 1004.36 131.695 1003.25 132.325C1002.15 132.955 1000.82 133.27 999.25 133.27ZM999.25 131.569C1000.87 131.569 1002.17 131.11 1003.14 130.192C1004.13 129.274 1004.62 128.005 1004.62 126.385C1004.62 124.765 1004.13 123.496 1003.14 122.578C1002.17 121.66 1000.87 121.201 999.25 121.201C997.612 121.201 996.298 121.66 995.308 122.578C994.336 123.496 993.85 124.765 993.85 126.385C993.85 128.005 994.336 129.274 995.308 130.192C996.298 131.11 997.612 131.569 999.25 131.569ZM1015.25 133.27C1013.49 133.27 1012.1 132.766 1011.1 131.758C1010.11 130.75 1009.61 129.346 1009.61 127.546V120.58C1009.61 120.238 1009.7 119.977 1009.88 119.797C1010.06 119.599 1010.3 119.5 1010.61 119.5C1010.92 119.5 1011.15 119.599 1011.31 119.797C1011.49 119.977 1011.58 120.238 1011.58 120.58V127.546C1011.58 128.824 1011.92 129.814 1012.61 130.516C1013.29 131.218 1014.25 131.569 1015.47 131.569C1016.44 131.569 1017.31 131.353 1018.06 130.921C1018.82 130.489 1019.4 129.886 1019.82 129.112C1020.25 128.338 1020.46 127.447 1020.46 126.439V120.58C1020.46 120.238 1020.55 119.977 1020.71 119.797C1020.89 119.599 1021.14 119.5 1021.46 119.5C1021.77 119.5 1022 119.599 1022.17 119.797C1022.35 119.977 1022.44 120.238 1022.44 120.58V132.19C1022.44 132.532 1022.35 132.802 1022.17 133C1022 133.18 1021.77 133.27 1021.46 133.27C1021.14 133.27 1020.89 133.171 1020.71 132.973C1020.55 132.775 1020.46 132.514 1020.46 132.19V130.597C1019.8 131.461 1019.02 132.127 1018.14 132.595C1017.26 133.045 1016.3 133.27 1015.25 133.27ZM1027.25 132.973C1026.82 132.973 1026.45 132.829 1026.14 132.541C1025.84 132.235 1025.68 131.884 1025.68 131.488C1025.68 131.074 1025.84 130.714 1026.14 130.408C1026.45 130.102 1026.82 129.949 1027.25 129.949C1027.66 129.949 1028.02 130.102 1028.33 130.408C1028.64 130.714 1028.79 131.074 1028.79 131.488C1028.79 131.884 1028.64 132.235 1028.33 132.541C1028.02 132.829 1027.66 132.973 1027.25 132.973Z" fill="#FFFEFB"/>
<path d="M369.975 60.2135L369.975 60.2135L369.975 60.201L370.006 59.5131L370.007 59.5131L370.007 59.5006C370.08 55.8404 368.745 52.292 366.275 49.5892C363.955 47.0488 360.8 45.4381 357.397 45.0406C358.236 43.654 358.832 42.132 359.158 40.5403C359.532 38.7077 359.54 36.8191 359.181 34.9834C358.822 33.1477 358.103 31.4013 357.065 29.845C356.027 28.2888 354.692 26.9534 353.135 25.916L353.135 25.9159L353.124 25.9088L352.506 25.5203L352.506 25.5202L352.496 25.5142C349.369 23.6481 345.647 23.0452 342.09 23.8284C338.721 24.5705 335.74 26.5036 333.689 29.2619C331.981 26.1293 329.158 23.7414 325.77 22.5798C322.199 21.3557 318.289 21.5929 314.892 23.2396C313.209 24.0493 311.703 25.1836 310.461 26.5774C309.218 27.9714 308.263 29.5973 307.651 31.3618L307.648 31.369L307.646 31.3764L307.397 32.1732L307.394 32.1806L307.392 32.1881C306.523 35.3018 306.747 38.6117 308.013 41.5703C304.465 41.4841 301.001 42.7247 298.31 45.063C295.453 47.5449 293.699 51.0599 293.433 54.835L293.433 54.835L293.433 54.8475L293.402 55.5355L293.401 55.5355L293.401 55.548C293.328 59.2081 294.663 62.7566 297.133 65.4594C299.454 68.0007 302.611 69.6116 306.015 70.0084C305.175 71.3963 304.579 72.9199 304.254 74.5132C303.88 76.3447 303.873 78.2321 304.232 80.0666C304.591 81.901 305.31 83.6462 306.347 85.2016C307.384 86.7569 308.718 88.0917 310.273 89.129L310.273 89.1291L310.282 89.1346L310.896 89.5263L310.902 89.5303L310.909 89.5341C314.036 91.4002 317.758 92.0032 321.314 91.2199C324.684 90.4778 327.665 88.5445 329.716 85.786C331.424 88.9173 334.244 91.3048 337.631 92.4669C341.203 93.6925 345.115 93.4559 348.513 91.8087C350.195 90.9994 351.701 89.8656 352.943 88.4725C354.186 87.0791 355.141 85.4539 355.754 83.6901L355.756 83.6826L355.759 83.6749L356.008 82.8746L356.01 82.8675L356.012 82.8604C356.882 79.747 356.66 76.4372 355.394 73.4782C358.943 73.5645 362.406 72.3239 365.098 69.9855C367.955 67.5037 369.709 63.9886 369.975 60.2135ZM339.123 51.0798C340.832 53.0474 341.689 55.6133 341.507 58.2131C341.324 60.8129 340.116 63.2337 338.148 64.9429C336.181 66.652 333.615 67.5096 331.015 67.3269C328.415 67.1442 325.995 65.9362 324.285 63.9687C322.576 62.0012 321.719 59.4353 321.901 56.8354C322.084 54.2356 323.292 51.8149 325.26 50.1057C327.227 48.3965 329.793 47.539 332.393 47.7216C334.993 47.9043 337.413 49.1123 339.123 51.0798Z" fill="#FFEBA2" stroke="#C19758"/>
<path d="M712.665 99C711.848 99 711.172 98.79 710.635 98.37C710.122 97.9267 709.772 97.3783 709.585 96.725C709.398 96.0717 709.282 95.3483 709.235 94.555C709.188 93.7383 709.165 92.9217 709.165 92.105C709.188 91.265 709.188 90.495 709.165 89.795C709.142 89.095 709.072 88.535 708.955 88.115C708.838 87.695 708.617 87.485 708.29 87.485C707.823 87.485 707.497 87.6833 707.31 88.08C707.123 88.4533 707.03 88.9667 707.03 89.62C707.03 90.25 707.065 90.9383 707.135 91.685C707.228 92.4317 707.322 93.1783 707.415 93.925C707.508 94.6483 707.555 95.29 707.555 95.85C707.555 97.0167 707.287 97.8217 706.75 98.265C706.237 98.7083 705.525 98.93 704.615 98.93C703.705 98.93 702.9 98.5567 702.2 97.81C701.523 97.04 700.952 96.06 700.485 94.87C700.042 93.6567 699.703 92.35 699.47 90.95C699.237 89.55 699.12 88.22 699.12 86.96C699.12 85.42 699.283 83.9267 699.61 82.48C699.96 81.0333 700.473 79.7383 701.15 78.595C701.85 77.4517 702.713 76.5417 703.74 75.865C704.767 75.1883 705.98 74.85 707.38 74.85C708.477 74.85 709.387 75.095 710.11 75.585C710.833 76.0517 711.405 76.6467 711.825 77.37C712.268 78.0933 712.572 78.8283 712.735 79.575C712.898 78.8283 713.19 78.0933 713.61 77.37C714.03 76.6467 714.602 76.0517 715.325 75.585C716.048 75.095 716.947 74.85 718.02 74.85C719.793 74.85 721.298 75.3983 722.535 76.495C723.795 77.5917 724.752 79.1083 725.405 81.045C726.058 82.9583 726.385 85.1867 726.385 87.73C726.385 88.92 726.257 90.18 726 91.51C725.743 92.8167 725.37 94.0417 724.88 95.185C724.413 96.305 723.842 97.2267 723.165 97.95C722.488 98.65 721.718 99 720.855 99C719.922 99 719.187 98.7667 718.65 98.3C718.113 97.8333 717.845 97.0167 717.845 95.85C717.845 95.29 717.892 94.6483 717.985 93.925C718.078 93.1783 718.172 92.4317 718.265 91.685C718.358 90.9383 718.405 90.25 718.405 89.62C718.405 88.9667 718.312 88.4533 718.125 88.08C717.962 87.6833 717.647 87.485 717.18 87.485C716.853 87.485 716.62 87.695 716.48 88.115C716.363 88.535 716.282 89.095 716.235 89.795C716.212 90.4717 716.2 91.23 716.2 92.07C716.2 92.8867 716.177 93.7033 716.13 94.52C716.107 95.3367 716.002 96.0717 715.815 96.725C715.652 97.3783 715.302 97.9267 714.765 98.37C714.228 98.79 713.528 99 712.665 99ZM736.24 99C734.49 99 732.95 98.6617 731.62 97.985C730.313 97.285 729.287 96.34 728.54 95.15C727.817 93.9367 727.455 92.5483 727.455 90.985C727.455 89.4683 727.817 88.0683 728.54 86.785C729.287 85.5017 730.302 84.475 731.585 83.705C732.892 82.935 734.385 82.55 736.065 82.55C737.628 82.55 738.97 82.865 740.09 83.495C741.21 84.125 742.062 84.93 742.645 85.91C743.252 86.8667 743.555 87.8817 743.555 88.955C743.555 90.0283 743.31 90.915 742.82 91.615C742.33 92.2917 741.688 92.8167 740.895 93.19C740.125 93.54 739.297 93.7733 738.41 93.89C737.523 94.0067 736.672 94.03 735.855 93.96C735.038 93.8667 734.35 93.7267 733.79 93.54C734.21 94.2167 734.735 94.6833 735.365 94.94C736.018 95.1733 736.695 95.2783 737.395 95.255C738.118 95.2083 738.772 95.1267 739.355 95.01C740.078 94.8467 740.673 94.8817 741.14 95.115C741.607 95.3483 741.852 95.7217 741.875 96.235C741.898 96.655 741.747 97.075 741.42 97.495C741.117 97.915 740.557 98.2767 739.74 98.58C738.923 98.86 737.757 99 736.24 99ZM733.895 89.27C734.128 89.6433 734.467 89.9117 734.91 90.075C735.353 90.215 735.797 90.2617 736.24 90.215C736.707 90.1683 737.092 90.04 737.395 89.83C737.722 89.62 737.885 89.3283 737.885 88.955C737.885 88.5583 737.722 88.2083 737.395 87.905C737.092 87.5783 736.602 87.415 735.925 87.415C735.272 87.415 734.77 87.625 734.42 88.045C734.07 88.4417 733.895 88.85 733.895 89.27ZM758.438 99C757.505 99 756.84 98.7433 756.443 98.23C756.07 97.6933 755.848 97.0283 755.778 96.235C755.708 95.4183 755.673 94.6017 755.673 93.785C755.673 92.5483 755.498 91.5567 755.148 90.81C754.798 90.04 754.18 89.655 753.293 89.655C752.5 89.655 751.917 90.04 751.543 90.81C751.17 91.5567 750.983 92.5483 750.983 93.785C750.983 94.6017 750.948 95.4067 750.878 96.2C750.832 96.9933 750.622 97.6583 750.248 98.195C749.875 98.7083 749.198 98.965 748.218 98.965C747.495 98.965 746.888 98.6967 746.398 98.16C745.932 97.6233 745.57 96.9233 745.313 96.06C745.057 95.1967 744.87 94.2633 744.753 93.26C744.66 92.2567 744.613 91.2883 744.613 90.355C744.613 89.4217 744.66 88.465 744.753 87.485C744.847 86.505 745.01 85.595 745.243 84.755C745.5 83.915 745.862 83.2383 746.328 82.725C746.795 82.2117 747.402 81.955 748.148 81.955C749.478 81.955 750.307 82.5617 750.633 83.775C750.913 83.4717 751.357 83.1917 751.963 82.935C752.593 82.655 753.305 82.515 754.098 82.515C755.895 82.515 757.365 82.97 758.508 83.88C759.652 84.79 760.48 86.05 760.993 87.66C761.53 89.2467 761.787 91.09 761.763 93.19C761.763 94.2633 761.658 95.2433 761.448 96.13C761.262 96.9933 760.923 97.6933 760.433 98.23C759.967 98.7433 759.302 99 758.438 99ZM771.301 99C769.574 99 768.069 98.58 766.786 97.74C765.526 96.8767 764.546 95.6867 763.846 94.17C763.169 92.63 762.831 90.8567 762.831 88.85C762.831 86.89 763.134 85.35 763.741 84.23C764.371 83.11 765.258 82.55 766.401 82.55C767.218 82.55 767.836 82.7017 768.256 83.005C768.699 83.3083 768.991 83.6933 769.131 84.16C769.294 84.6033 769.376 85.0817 769.376 85.595C769.376 86.2483 769.329 86.9133 769.236 87.59C769.166 88.2667 769.131 88.99 769.131 89.76C769.131 90.8567 769.353 91.6617 769.796 92.175C770.263 92.665 770.764 92.91 771.301 92.91C771.884 92.91 772.386 92.665 772.806 92.175C773.249 91.6617 773.471 90.8567 773.471 89.76C773.471 88.99 773.436 88.3017 773.366 87.695C773.296 87.0883 773.261 86.4 773.261 85.63C773.261 84.8133 773.459 84.1017 773.856 83.495C774.253 82.865 775.046 82.55 776.236 82.55C777.379 82.55 778.254 83.11 778.861 84.23C779.468 85.35 779.771 86.89 779.771 88.85C779.771 90.8567 779.456 92.63 778.826 94.17C778.196 95.6867 777.251 96.8767 775.991 97.74C774.754 98.58 773.191 99 771.301 99Z" fill="#FFFEFB"/>
</svg>
