<svg width="31" height="20" viewBox="0 0 31 20" fill="none" xmlns="http://www.w3.org/2000/svg">
<ellipse cx="20.1286" cy="14.8776" rx="2.31792" ry="3.04822" transform="rotate(-35.3546 20.1286 14.8776)" fill="#FFFEFB"/>
<path d="M21.3039 12.799C20.3998 14.8152 18.2401 15.8098 16.4799 15.0205C14.7198 14.2313 14.0258 11.9571 14.9298 9.9409C15.8339 7.92473 17.9936 6.93011 19.7537 7.71935C21.5139 8.50859 22.2079 10.7828 21.3039 12.799Z" fill="#FFFEFB"/>
<path d="M15.2731 13.4235C15.4838 15.2252 13.7342 16.9102 11.3654 17.1871C8.9966 17.4641 7.31799 16.1542 7.10736 14.3526C6.89673 12.5509 8.23385 10.9396 10.6026 10.6627C12.9715 10.3858 15.0625 11.6218 15.2731 13.4235Z" fill="#FFFEFB"/>
<path d="M23.9996 13.9387C23.9698 15.7524 22.3511 17.0932 19.9664 17.0541C17.5818 17.015 15.6728 15.513 15.7026 13.6993C15.7323 11.8856 17.6896 10.447 20.0742 10.4861C22.4588 10.5252 24.0293 12.125 23.9996 13.9387Z" fill="#FFFEFB"/>
<path d="M19.6495 14.8606C19.6495 17.0702 17.972 18.8614 15.9027 18.8614C13.8335 18.8614 12.156 17.0702 12.156 14.8606C12.156 12.651 13.8335 10.8598 15.9027 10.8598C17.972 10.8598 19.6495 12.651 19.6495 14.8606Z" fill="#FFFEFB"/>
<path d="M12.8933 12.8074C14.0108 13.5592 14.1662 15.2846 13.2402 16.6611C12.3142 18.0376 10.6576 18.5441 9.54 17.7923C8.42242 17.0405 8.2671 15.3152 9.19308 13.9387C10.1191 12.5621 11.7757 12.0556 12.8933 12.8074Z" fill="#FFFEFB"/>
<path d="M15.3718 13.2763C16.313 13.9094 16.3253 15.5386 15.3993 16.9151C14.4734 18.2917 12.9597 18.8943 12.0185 18.2612C11.0773 17.628 11.065 15.9989 11.991 14.6223C12.917 13.2458 14.4306 12.6431 15.3718 13.2763Z" fill="#FFFEFB"/>
<path d="M21.127 14.965C21.5243 16.6009 20.8379 18.172 19.594 18.4741C18.35 18.7763 17.0194 17.695 16.6221 16.0591C16.2248 14.4231 16.9112 12.852 18.1552 12.5499C19.3992 12.2478 20.7297 13.3291 21.127 14.965Z" fill="#FFFEFB"/>
<path d="M19.5225 10.3518C19.5225 12.5613 17.7597 14.3526 15.5852 14.3526C13.4107 14.3526 11.6479 12.5613 11.6479 10.3518C11.6479 8.1422 13.4107 6.35098 15.5852 6.35098C17.7597 6.35098 19.5225 8.1422 19.5225 10.3518Z" fill="#FFFEFB"/>
<path d="M15.6919 10.8232C16.4258 12.9073 15.5458 15.1162 13.7263 15.7569C11.9068 16.3976 9.83689 15.2275 9.10299 13.1434C8.3691 11.0593 9.24914 8.85033 11.0686 8.20963C12.8881 7.56893 14.958 8.73906 15.6919 10.8232Z" fill="#FFFEFB"/>
<path d="M22.1155 12.6052C21.6703 14.7694 19.722 16.1974 17.7639 15.7946C15.8057 15.3918 14.5792 13.3108 15.0244 11.1466C15.4696 8.98231 17.4179 7.55435 19.376 7.95714C21.3341 8.35992 22.5606 10.4409 22.1155 12.6052Z" fill="#FFFEFB"/>
<ellipse cx="12.1877" cy="11.8441" rx="0.539789" ry="0.476284" fill="#A66D45"/>
<ellipse cx="19.3003" cy="11.8441" rx="0.539789" ry="0.476284" fill="#A66D45"/>
<path d="M14.8716 13.0897C14.8811 13.2079 15.0255 13.3352 15.1416 13.3694C15.2007 13.3868 15.2646 13.4009 15.3256 13.4027C15.3949 13.4048 15.4369 13.369 15.4999 13.359C15.571 13.3477 15.6457 13.2712 15.6904 13.2215C15.7194 13.1894 15.7402 13.1563 15.7582 13.1178C15.7733 13.0857 15.7835 13.0531 15.7872 13.0993C15.793 13.17 15.8272 13.2968 15.8771 13.3512C15.9691 13.4515 16.1582 13.4276 16.2773 13.4179C16.356 13.4115 16.4611 13.4247 16.5165 13.3595C16.5632 13.3046 16.6177 13.1866 16.612 13.1163" stroke="#A66D45" stroke-width="0.245586" stroke-linecap="round"/>
<ellipse cx="11.648" cy="13.4317" rx="0.762055" ry="0.349275" fill="#F6B6A7"/>
<ellipse cx="19.967" cy="13.4317" rx="0.762055" ry="0.349275" fill="#F6B6A7"/>
<path d="M21.0496 8.94655C21.6918 9.45783 22.0276 10.1295 22.0276 10.9691C24.5705 12.6832 24.4365 14.8105 22.6111 16.468C22.0805 17.5114 21.5616 17.5304 20.7039 17.7377C20.1 18.5947 19.095 18.6504 18.0339 18.2456C16.5078 18.9715 15.4683 19.1471 13.9335 18.2456C13.2774 18.4804 12.4395 18.7852 11.7402 17.9599C10.1339 18.3851 9.33548 17.9453 8.65698 16.722C5.51014 14.4048 7.58377 11.6482 8.85522 11.0451M17.7478 7.00886C15.9104 5.45111 12.5984 7.00886 12.4077 8.0881" stroke="#A66D45" stroke-width="0.503761"/>
<path d="M8.85522 11.2131C9.141 9.02215 10.7396 7.89556 12.5495 8.02257" stroke="#A66D45" stroke-width="0.503761"/>
<path d="M19.57 8.89576C19.128 9.28653 18.43 8.99614 18.3957 8.40718L18.3287 7.25886C18.2983 6.73752 18.8241 6.36422 19.3063 6.56483L20.235 6.95125C20.7171 7.15186 20.823 7.78795 20.4317 8.13386L19.57 8.89576Z" fill="#FF7070"/>
<ellipse cx="19.4766" cy="8.47583" rx="0.058926" ry="0.117852" transform="rotate(-144.957 19.4766 8.47583)" fill="#C41212"/>
<ellipse cx="20.1383" cy="8.11287" rx="0.058926" ry="0.117852" transform="rotate(-144.957 20.1383 8.11287)" fill="#C41212"/>
<ellipse cx="19.8841" cy="7.49655" rx="0.058926" ry="0.117852" transform="rotate(-144.957 19.8841 7.49655)" fill="#C41212"/>
<ellipse cx="18.9189" cy="8.63396" rx="0.058926" ry="0.117852" transform="rotate(-160.762 18.9189 8.63396)" fill="#C41212"/>
<ellipse cx="19.2131" cy="7.85247" rx="0.058926" ry="0.117852" transform="rotate(-154.921 19.2131 7.85247)" fill="#C41212"/>
<ellipse cx="18.7233" cy="7.52402" rx="0.058926" ry="0.117852" transform="rotate(-170.113 18.7233 7.52402)" fill="#C41212"/>
<ellipse cx="18.5364" cy="8.13399" rx="0.058926" ry="0.117852" transform="rotate(174.03 18.5364 8.13399)" fill="#C41212"/>
<ellipse cx="19.2075" cy="6.95771" rx="0.058926" ry="0.117852" transform="rotate(-173.736 19.2075 6.95771)" fill="#C41212"/>
<ellipse cx="20.5096" cy="7.12935" rx="0.707112" ry="0.235704" transform="rotate(-157.409 20.5096 7.12935)" fill="#58C364"/>
<ellipse cx="19.2391" cy="6.40446" rx="0.707112" ry="0.235704" transform="rotate(-141.835 19.2391 6.40446)" fill="#58C364"/>
<ellipse cx="19.6921" cy="6.36145" rx="0.707112" ry="0.235704" transform="rotate(-118.057 19.6921 6.36145)" fill="#58C364"/>
<ellipse cx="20.4098" cy="6.66661" rx="0.707112" ry="0.235704" transform="rotate(-1.80717 20.4098 6.66661)" fill="#58C364"/>
<path d="M20.4633 8.00778C20.5393 8.00778 20.6121 8.03659 20.6658 8.08787C20.7196 8.13915 20.7497 8.2087 20.7497 8.28122L20.7496 8.28498L20.7517 8.28375C20.8121 8.25033 20.8832 8.23926 20.9515 8.25264L20.9685 8.25647C21.0047 8.26581 21.0385 8.28188 21.0682 8.30376C21.0978 8.32563 21.1226 8.35289 21.1412 8.38396C21.179 8.44671 21.1892 8.52118 21.1697 8.59111C21.1502 8.66105 21.1025 8.72077 21.037 8.75726L21.0321 8.75973L21.0372 8.76239C21.1003 8.79762 21.147 8.85451 21.1677 8.92145C21.1884 8.98839 21.1816 9.06035 21.1486 9.12264L21.1413 9.13536C21.1228 9.16647 21.0979 9.19376 21.0682 9.21566C21.0386 9.23757 21.0046 9.25364 20.9684 9.26297C20.9322 9.2723 20.8944 9.27469 20.8572 9.27001C20.82 9.26533 20.7842 9.25367 20.7517 9.23571L20.7496 9.23434L20.7497 9.23823C20.7497 9.30839 20.7215 9.37586 20.6708 9.42669C20.6202 9.47752 20.551 9.50782 20.4776 9.51133L20.4633 9.51167C20.3873 9.51167 20.3145 9.48286 20.2608 9.43158C20.207 9.3803 20.1769 9.31075 20.1769 9.23823L20.1769 9.23441L20.1749 9.23571C20.1145 9.26915 20.0434 9.28024 19.9751 9.26688L19.9582 9.26305C19.922 9.25372 19.8881 9.23766 19.8585 9.21578C19.8288 9.1939 19.804 9.16663 19.7854 9.13556C19.7476 9.07283 19.7374 8.99839 19.7569 8.92848C19.7764 8.85856 19.824 8.79884 19.8894 8.76232L19.8945 8.75973L19.8894 8.75713C19.8263 8.7219 19.7796 8.66501 19.7589 8.59807C19.7382 8.53113 19.745 8.45917 19.778 8.39688L19.7852 8.3841C19.8038 8.35296 19.8286 8.32564 19.8583 8.30372C19.888 8.2818 19.9219 8.26571 19.9582 8.25638C19.9944 8.24705 20.0323 8.24466 20.0695 8.24936C20.1067 8.25406 20.1426 8.26574 20.175 8.28375L20.1769 8.28498L20.1769 8.28122C20.1769 8.21106 20.2051 8.14359 20.2558 8.09276C20.3064 8.04193 20.3756 8.01163 20.449 8.00812L20.4633 8.00778ZM20.4633 8.55465C20.4063 8.55465 20.3517 8.57626 20.3114 8.61472C20.2711 8.65317 20.2485 8.70534 20.2485 8.75973C20.2485 8.81411 20.2711 8.86628 20.3114 8.90474C20.3517 8.94319 20.4063 8.9648 20.4633 8.9648C20.5203 8.9648 20.5749 8.94319 20.6152 8.90474C20.6555 8.86628 20.6781 8.81411 20.6781 8.75973C20.6781 8.70534 20.6555 8.65317 20.6152 8.61472C20.5749 8.57626 20.5203 8.55465 20.4633 8.55465Z" fill="#E4B1FF"/>
<path d="M17.716 6.5755C17.8196 6.5755 17.919 6.61665 17.9922 6.68991C18.0655 6.76317 18.1066 6.86252 18.1066 6.96612L18.1064 6.97149L18.1094 6.96973C18.1917 6.922 18.2886 6.90618 18.3818 6.9253L18.405 6.93077C18.4543 6.94411 18.5005 6.96706 18.5409 6.99832C18.5813 7.02958 18.6152 7.06851 18.6405 7.1129C18.692 7.20254 18.706 7.30892 18.6794 7.40883C18.6528 7.50873 18.5877 7.59406 18.4984 7.64619L18.4918 7.64971L18.4987 7.65351C18.5848 7.70384 18.6484 7.78511 18.6766 7.88074C18.7049 7.97637 18.6955 8.07916 18.6506 8.16816L18.6407 8.18632C18.6154 8.23076 18.5815 8.26975 18.541 8.30104C18.5005 8.33233 18.4543 8.3553 18.4049 8.36863C18.3555 8.38196 18.304 8.38537 18.2532 8.37869C18.2025 8.372 18.1536 8.35535 18.1094 8.32968L18.1064 8.32772L18.1066 8.33329C18.1066 8.43351 18.0681 8.52989 17.999 8.60251C17.93 8.67512 17.8356 8.71841 17.7355 8.72342L17.716 8.72391C17.6124 8.72391 17.5131 8.68276 17.4398 8.6095C17.3666 8.53624 17.3254 8.43689 17.3254 8.33329L17.3255 8.32782L17.3227 8.32968C17.2404 8.37745 17.1434 8.3933 17.0502 8.37421L17.0272 8.36874C16.9778 8.35541 16.9316 8.33246 16.8912 8.30121C16.8507 8.26995 16.8169 8.231 16.7915 8.18661C16.74 8.097 16.726 7.99066 16.7526 7.89078C16.7792 7.7909 16.8442 7.70558 16.9334 7.65342L16.9402 7.64971L16.9333 7.64599C16.8472 7.59567 16.7836 7.5144 16.7554 7.41877C16.7272 7.32314 16.7365 7.22035 16.7815 7.13135L16.7912 7.11309C16.8166 7.06861 16.8505 7.02958 16.891 6.99827C16.9314 6.96695 16.9777 6.94397 17.0272 6.93064C17.0766 6.91731 17.1282 6.9139 17.1789 6.92061C17.2297 6.92732 17.2786 6.94402 17.3229 6.96973L17.3254 6.97149L17.3254 6.96612C17.3254 6.8659 17.3639 6.76952 17.433 6.6969C17.5021 6.62429 17.5964 6.581 17.6965 6.57599L17.716 6.5755ZM17.716 7.35674C17.6383 7.35674 17.5638 7.38761 17.5089 7.44255C17.4539 7.49749 17.4231 7.57201 17.4231 7.64971C17.4231 7.7274 17.4539 7.80192 17.5089 7.85686C17.5638 7.9118 17.6383 7.94267 17.716 7.94267C17.7937 7.94267 17.8682 7.9118 17.9232 7.85686C17.9781 7.80192 18.009 7.7274 18.009 7.64971C18.009 7.57201 17.9781 7.49749 17.9232 7.44255C17.8682 7.38761 17.7937 7.35674 17.716 7.35674Z" fill="#FFD17B"/>
<path d="M3.04969 8.03122C2.99336 8.08471 2.93397 8.11363 2.87152 8.11797C2.80927 8.11907 2.75193 8.10177 2.6995 8.06606C2.64706 8.03035 2.59522 7.98493 2.54397 7.92978C2.4913 7.87292 2.44025 7.81454 2.3908 7.75462C2.34155 7.69146 2.29493 7.63497 2.25094 7.58514C2.20695 7.53532 2.16822 7.49882 2.13474 7.47564C2.10126 7.45247 2.07326 7.45159 2.05073 7.47298C2.01854 7.50355 2.00801 7.5395 2.01915 7.58083C2.02888 7.62045 2.05352 7.66422 2.09308 7.71215C2.13122 7.75837 2.17532 7.80658 2.22535 7.85678C2.277 7.90544 2.32864 7.95411 2.38029 8.00278C2.43052 8.04973 2.47259 8.09375 2.5065 8.13484C2.57713 8.22043 2.60736 8.29707 2.59719 8.36474C2.58862 8.43089 2.55296 8.49377 2.49019 8.55338C2.42742 8.61299 2.34929 8.63833 2.2558 8.6294C2.1625 8.61723 2.06373 8.58278 1.9595 8.52604C1.85545 8.46606 1.753 8.39236 1.65214 8.30493C1.55128 8.2175 1.46271 8.12757 1.38642 8.03513C1.29318 7.92214 1.21403 7.80188 1.14897 7.67435C1.08553 7.54529 1.04253 7.41665 1.01998 7.28845C0.999036 7.15872 1.00349 7.0354 1.03334 6.91851C1.06318 6.80161 1.12639 6.69731 1.22296 6.60561C1.2986 6.53378 1.3762 6.49214 1.45576 6.48071C1.53391 6.46757 1.60937 6.47378 1.68213 6.49933C1.75651 6.52336 1.82193 6.55742 1.87841 6.6015C1.84447 6.53602 1.82008 6.46299 1.80526 6.38241C1.79043 6.30183 1.79384 6.22073 1.81548 6.13911C1.8357 6.05578 1.88283 5.97897 1.95687 5.90866C2.07919 5.7925 2.2162 5.73415 2.3679 5.7336C2.52121 5.73153 2.67902 5.78013 2.84135 5.87942C3.00226 5.977 3.1597 6.11909 3.31369 6.30568C3.38574 6.39299 3.45318 6.49384 3.516 6.60823C3.57741 6.7209 3.62583 6.83523 3.66125 6.95121C3.69688 7.06395 3.71325 7.16901 3.71037 7.2664C3.70608 7.36208 3.67416 7.4382 3.61461 7.49475C3.55023 7.55589 3.4854 7.58691 3.42013 7.58783C3.35486 7.58874 3.2869 7.5464 3.21627 7.46081C3.18236 7.41973 3.14673 7.36959 3.10937 7.31041C3.0706 7.24952 3.03183 7.18862 2.99306 7.12773C2.95429 7.06684 2.91584 7.01328 2.87769 6.96706C2.83813 6.91913 2.80062 6.88758 2.76514 6.87242C2.72985 6.85401 2.69612 6.8601 2.66393 6.89066C2.6414 6.91206 2.63802 6.94275 2.65379 6.98274C2.67117 7.02119 2.69944 7.06763 2.73861 7.12204C2.77797 7.17321 2.82308 7.22961 2.87394 7.29124C2.92338 7.35116 2.97122 7.4126 3.01745 7.47557C3.06528 7.53702 3.10254 7.59782 3.12922 7.65798C3.15751 7.71661 3.16657 7.77976 3.15639 7.84744C3.14481 7.91341 3.10924 7.97467 3.04969 8.03122Z" fill="#A66D45"/>
<path d="M4.88204 6.50476C4.75129 6.60443 4.61736 6.66235 4.48024 6.67851C4.34371 6.69149 4.21446 6.66875 4.0925 6.61028C3.97112 6.54862 3.86898 6.45753 3.78609 6.33702C3.70258 6.21146 3.65811 6.07901 3.65267 5.93969C3.64603 5.7985 3.6749 5.66132 3.73929 5.52814C3.80367 5.39496 3.90094 5.28013 4.03111 5.18366C4.1583 5.08663 4.28956 5.0307 4.42489 5.01585C4.56201 4.99969 4.69183 5.01925 4.81438 5.07453C4.93692 5.12981 5.04084 5.21957 5.12613 5.34382C5.20604 5.46378 5.24991 5.5953 5.25775 5.73835C5.26439 5.87954 5.23612 6.01765 5.17294 6.1527C5.10856 6.28588 5.01159 6.40323 4.88204 6.50476ZM4.62686 6.09017C4.675 6.05449 4.70428 6.00383 4.71471 5.93822C4.72513 5.8726 4.71352 5.81367 4.67987 5.76142C4.64621 5.70917 4.59954 5.6776 4.53984 5.66672C4.47893 5.65396 4.42441 5.66543 4.37626 5.70111C4.32812 5.7368 4.29883 5.78745 4.28841 5.85307C4.27679 5.91682 4.2878 5.97482 4.32145 6.02707C4.3551 6.07931 4.40238 6.11181 4.46328 6.12457C4.52419 6.13732 4.57871 6.12585 4.62686 6.09017Z" fill="#A66D45"/>
<path d="M6.57025 5.3844C6.44691 5.45464 6.31653 5.49173 6.1791 5.49567C6.04066 5.49763 5.91063 5.46504 5.78903 5.39789C5.66934 5.32961 5.57504 5.22833 5.50615 5.09404C5.4322 4.94988 5.40188 4.80825 5.4152 4.66918C5.42941 4.52699 5.47541 4.39821 5.55318 4.28284C5.63185 4.16435 5.73043 4.07014 5.84894 4.00018C5.97126 3.92797 6.09096 3.88947 6.20804 3.88468C6.3241 3.87792 6.42673 3.89838 6.51593 3.94606C6.60604 3.99064 6.67186 4.05342 6.7134 4.13438C6.74784 4.20153 6.75513 4.2667 6.73525 4.32989C6.71627 4.38998 6.66473 4.44484 6.58063 4.49449C6.53476 4.52157 6.49484 4.53355 6.46088 4.53045C6.42781 4.52424 6.39659 4.51436 6.36724 4.50082C6.33979 4.48615 6.31004 4.4767 6.27798 4.47246C6.24683 4.46513 6.21022 4.47387 6.16817 4.49869C6.11848 4.52803 6.08364 4.57175 6.06364 4.62987C6.04556 4.68685 6.05172 4.74497 6.08211 4.80421C6.11352 4.86543 6.1565 4.9031 6.21105 4.9172C6.26459 4.92934 6.31716 4.92017 6.36877 4.88971C6.40891 4.86602 6.43645 4.84204 6.45139 4.81778C6.46533 4.79154 6.47538 4.76502 6.48155 4.73822C6.48964 4.7103 6.50306 4.68307 6.52183 4.65656C6.53959 4.62806 6.57236 4.59972 6.62014 4.57151C6.70424 4.52186 6.77756 4.50945 6.8401 4.53428C6.90354 4.55601 6.94843 4.59255 6.97478 4.64389C7.00821 4.70906 7.01527 4.78594 6.99597 4.87452C6.97667 4.9631 6.93172 5.05267 6.86114 5.14322C6.78954 5.2318 6.69258 5.31219 6.57025 5.3844Z" fill="#A66D45"/>
<path d="M7.98978 4.63151C7.88856 4.67702 7.79589 4.67129 7.71175 4.61434C7.62761 4.55738 7.54331 4.44823 7.45885 4.28691C7.37359 4.12351 7.27804 3.9064 7.17222 3.63559C7.09305 3.43299 7.02904 3.25396 6.98019 3.09849C6.93337 2.94212 6.91769 2.81063 6.93315 2.70402C6.94861 2.59742 7.00999 2.51999 7.11728 2.47175C7.20027 2.43443 7.27232 2.42999 7.33341 2.45842C7.39369 2.48479 7.44586 2.53303 7.48992 2.60315C7.5352 2.67029 7.57662 2.74889 7.61419 2.83894C7.65095 2.92692 7.6867 3.01536 7.72143 3.10426C7.74938 3.07224 7.77652 3.04424 7.80285 3.02025C7.8312 2.99535 7.87978 2.96743 7.94861 2.93648C8.09234 2.87185 8.22692 2.85387 8.35236 2.88254C8.4778 2.9112 8.58925 2.97411 8.68671 3.07126C8.78418 3.16841 8.86118 3.28934 8.91773 3.43405C8.94681 3.50847 8.97326 3.58529 8.99707 3.66452C9.02089 3.74374 9.0352 3.81994 9.04 3.89313C9.0448 3.96632 9.03604 4.03223 9.01374 4.09088C8.99062 4.14745 8.94668 4.1903 8.8819 4.21943C8.7989 4.25675 8.72989 4.2659 8.67487 4.2469C8.62105 4.22491 8.57536 4.18105 8.53777 4.11531C8.49937 4.04751 8.4616 3.96606 8.42444 3.87096C8.38162 3.76139 8.33393 3.67589 8.28137 3.61446C8.23083 3.55212 8.17215 3.53596 8.10535 3.566C8.03855 3.59604 8.00613 3.65315 8.00808 3.73734C8.01207 3.82062 8.03445 3.9175 8.07524 4.02798C8.1124 4.12307 8.13905 4.20953 8.15517 4.28735C8.17333 4.36425 8.17125 4.43203 8.14894 4.49067C8.12583 4.54724 8.07277 4.59419 7.98978 4.63151Z" fill="#A66D45"/>
<path d="M9.60287 2.25093C9.49965 2.28518 9.40146 2.27687 9.30831 2.22599C9.21455 2.17298 9.15198 2.0921 9.12062 1.98333C9.09971 1.91082 9.09675 1.84054 9.11175 1.77247C9.12885 1.7037 9.15986 1.64317 9.2048 1.59088C9.25122 1.53575 9.30919 1.49665 9.37871 1.47358C9.44612 1.45121 9.51244 1.44907 9.57766 1.46715C9.64438 1.4824 9.70289 1.51322 9.7532 1.55962C9.80351 1.60601 9.83912 1.66547 9.86003 1.73798C9.88094 1.81049 9.88315 1.88219 9.86667 1.95309C9.84957 2.02185 9.81781 2.0838 9.77138 2.13893C9.72645 2.19123 9.67028 2.22856 9.60287 2.25093ZM10.0503 3.80242C9.96601 3.83038 9.89574 3.82683 9.83946 3.79176C9.78529 3.75599 9.73638 3.69043 9.69273 3.59509C9.65057 3.49692 9.60538 3.36821 9.55715 3.20896C9.51102 3.04901 9.47952 2.91576 9.46264 2.8092C9.44787 2.70194 9.45478 2.61786 9.48338 2.55696C9.51137 2.49393 9.5675 2.44843 9.65176 2.42047C9.73602 2.39251 9.80524 2.39642 9.85941 2.43218C9.91507 2.46512 9.96504 2.53033 10.0093 2.6278C10.0536 2.72527 10.0988 2.85399 10.1449 3.01393C10.1931 3.17318 10.2246 3.30644 10.2394 3.4137C10.2535 3.51882 10.2466 3.6029 10.2186 3.66593C10.1907 3.72897 10.1345 3.77446 10.0503 3.80242Z" fill="#A66D45"/>
<path d="M13.7934 2.95522C13.5847 2.98536 13.3894 2.97097 13.2076 2.91203C13.0255 2.85089 12.8731 2.74173 12.7505 2.58455C12.6279 2.42737 12.5504 2.21995 12.518 1.96229C12.499 1.81033 12.5072 1.66227 12.5428 1.51812C12.5781 1.37176 12.6362 1.23781 12.7171 1.11625C12.8002 0.994379 12.9027 0.893251 13.0246 0.812867C13.1465 0.732483 13.2854 0.681026 13.4414 0.658498C13.6369 0.630258 13.8128 0.641846 13.9691 0.693261C14.1251 0.742474 14.2515 0.822874 14.3483 0.93446C14.4472 1.04573 14.5062 1.17734 14.5253 1.3293C14.5328 1.38876 14.5279 1.44776 14.5106 1.50631C14.4953 1.56234 14.4657 1.61146 14.4218 1.65367C14.3801 1.69557 14.3219 1.72192 14.2472 1.73271C14.1769 1.74286 14.1195 1.73994 14.075 1.72395C14.0327 1.70763 13.9953 1.68613 13.9629 1.65942C13.9324 1.63019 13.9008 1.60113 13.8681 1.57222C13.8353 1.54331 13.7967 1.52086 13.7522 1.50486C13.7077 1.48887 13.6492 1.48611 13.5768 1.49658C13.5087 1.50641 13.4483 1.53308 13.3956 1.57656C13.3429 1.62005 13.3028 1.67516 13.2754 1.7419C13.2499 1.80612 13.242 1.87677 13.2517 1.95385C13.2661 2.06837 13.3083 2.16429 13.3784 2.24161C13.4507 2.31861 13.5428 2.34902 13.6549 2.33284C13.7428 2.32015 13.8103 2.29694 13.8575 2.26321C13.9069 2.22917 13.9471 2.19309 13.9781 2.15498C14.011 2.11435 14.0467 2.07781 14.0851 2.04535C14.1257 2.01258 14.1801 1.99128 14.2482 1.98144C14.3449 1.96748 14.4214 1.98894 14.4777 2.04583C14.5362 2.10239 14.5669 2.17756 14.5697 2.27132C14.5728 2.36729 14.5424 2.46361 14.4785 2.56029C14.4168 2.65665 14.3268 2.7414 14.2085 2.81454C14.0921 2.88516 13.9538 2.93206 13.7934 2.95522Z" fill="#A66D45"/>
<path d="M15.6269 3.05448C15.5138 3.05952 15.4279 3.02114 15.3692 2.93933C15.3104 2.85531 15.2688 2.7283 15.2445 2.55831C15.22 2.38611 15.2028 2.17026 15.1927 1.91077C15.1861 1.74 15.1823 1.58354 15.1812 1.44139C15.1824 1.29915 15.1932 1.17648 15.2136 1.07337C15.234 0.968042 15.2697 0.886468 15.3207 0.828649C15.3717 0.768611 15.4449 0.736467 15.5402 0.732216C15.6356 0.727965 15.711 0.753486 15.7664 0.808778C15.8218 0.861852 15.8637 0.939966 15.8921 1.04312C15.9205 1.14405 15.9396 1.26539 15.9495 1.40714C15.9617 1.54879 15.9711 1.705 15.9777 1.87578C15.9928 2.26612 15.9764 2.55901 15.9284 2.75444C15.8826 2.94755 15.7821 3.04756 15.6269 3.05448Z" fill="#A66D45"/>
<path d="M17.1251 2.90569C16.961 2.89896 16.8185 2.85786 16.6976 2.78236C16.5791 2.70477 16.4872 2.60418 16.422 2.4806C16.359 2.35491 16.3288 2.21879 16.3313 2.07222C16.3362 1.92134 16.3769 1.79019 16.4533 1.67877C16.5298 1.56513 16.6328 1.47739 16.7624 1.41555C16.892 1.35371 17.0376 1.32719 17.1994 1.33601C17.3591 1.34249 17.4983 1.38342 17.6169 1.45879C17.7378 1.53429 17.832 1.63278 17.8995 1.75427C17.9671 1.87576 17.9995 2.012 17.9968 2.16301C17.9922 2.30724 17.9516 2.43728 17.875 2.55313C17.7985 2.66677 17.6955 2.75562 17.5658 2.81968C17.4362 2.88152 17.2893 2.91019 17.1251 2.90569ZM17.1581 2.4207C17.2179 2.42396 17.2711 2.40352 17.3176 2.35937C17.3641 2.31523 17.3889 2.26212 17.3918 2.20005C17.3948 2.13797 17.3751 2.08355 17.3329 2.03679C17.2908 1.98782 17.2398 1.9617 17.18 1.95844C17.1201 1.95518 17.0669 1.97562 17.0204 2.01976C16.974 2.06169 16.9493 2.11369 16.9463 2.17576C16.9434 2.23784 16.963 2.29337 17.0051 2.34234C17.0472 2.39132 17.0982 2.41743 17.1581 2.4207Z" fill="#A66D45"/>
<path d="M19.0769 3.15516C18.9149 3.12768 18.7796 3.0642 18.6709 2.96472C18.5647 2.86342 18.4894 2.73584 18.4448 2.58197C18.4027 2.42628 18.3956 2.25401 18.4234 2.06517C18.4506 1.88073 18.5004 1.74063 18.5729 1.64489C18.6475 1.54952 18.7384 1.51094 18.8457 1.52914C18.9222 1.54214 18.9781 1.56625 19.0133 1.60148C19.0507 1.63708 19.0727 1.67796 19.0793 1.7241C19.0885 1.76842 19.0895 1.81473 19.0824 1.86304C19.0733 1.92452 19.0597 1.98636 19.0416 2.04855C19.0256 2.11112 19.0123 2.17863 19.0016 2.25109C18.9864 2.35429 18.996 2.43357 19.0305 2.48894C19.0674 2.54248 19.1111 2.57352 19.1614 2.58206C19.2161 2.59135 19.2665 2.57628 19.3127 2.53685C19.3614 2.4956 19.3934 2.42337 19.4086 2.32017C19.4193 2.24771 19.4256 2.18238 19.4274 2.12417C19.4293 2.06597 19.4356 2.00064 19.4463 1.92817C19.4576 1.85132 19.4861 1.78751 19.5317 1.73673C19.5776 1.68376 19.6564 1.66674 19.768 1.68569C19.8752 1.70388 19.9495 1.77051 19.9909 1.88557C20.0322 2.00062 20.0393 2.15037 20.0121 2.33482C19.9842 2.52365 19.9301 2.68552 19.8496 2.82041C19.7695 2.95311 19.6643 3.05005 19.5342 3.11124C19.4066 3.1706 19.2541 3.18524 19.0769 3.15516Z" fill="#A66D45"/>
<path d="M21.1888 3.67764C21.0312 3.63128 20.9046 3.55355 20.8088 3.44446C20.7152 3.33599 20.6529 3.21247 20.622 3.07388C20.5931 2.93592 20.5955 2.80135 20.629 2.67018C20.6719 2.50245 20.7401 2.37454 20.8336 2.28644C20.9292 2.19897 21.0358 2.14478 21.1533 2.12387C21.2714 2.1008 21.3869 2.10587 21.4997 2.13908C21.553 2.15474 21.6056 2.17717 21.6577 2.20636C21.7103 2.2334 21.7575 2.2681 21.7993 2.31046C21.8145 2.21549 21.8184 2.11954 21.8111 2.0226C21.8065 1.92414 21.8161 1.82868 21.8397 1.73621C21.8639 1.6416 21.9105 1.58017 21.9795 1.55193C22.0486 1.52368 22.1161 1.51927 22.1821 1.53869C22.2588 1.56125 22.3185 1.6054 22.3612 1.67114C22.4039 1.73689 22.434 1.81626 22.4514 1.90925C22.471 2.00287 22.4793 2.10473 22.4763 2.21484C22.4739 2.3228 22.4642 2.4321 22.4474 2.54275C22.4306 2.6534 22.4095 2.75819 22.3842 2.8571C22.3759 2.88936 22.3612 2.93819 22.3399 3.0036C22.3207 3.06963 22.2921 3.141 22.2542 3.2177C22.2163 3.2944 22.1674 3.36905 22.1077 3.44164C22.05 3.51485 21.9781 3.57692 21.8918 3.62783C21.8076 3.67937 21.7076 3.71237 21.5917 3.72683C21.4764 3.73914 21.3421 3.72274 21.1888 3.67764ZM21.3382 3.17364C21.3957 3.19055 21.4513 3.18377 21.5049 3.1533C21.559 3.12067 21.5937 3.07425 21.6091 3.01404C21.6245 2.95383 21.6167 2.89488 21.5857 2.83719C21.5546 2.7795 21.5104 2.7422 21.4529 2.72529C21.3954 2.70837 21.3385 2.71592 21.2823 2.74792C21.2281 2.78055 21.1934 2.82697 21.178 2.88718C21.1626 2.94739 21.1704 3.00634 21.2014 3.06402C21.2351 3.12019 21.2808 3.15672 21.3382 3.17364Z" fill="#A66D45"/>
<path d="M24.8816 5.26503C24.6942 5.16847 24.5407 5.04206 24.4213 4.8858C24.3028 4.72751 24.2335 4.54599 24.2135 4.34122C24.1934 4.13645 24.2365 3.91555 24.3426 3.67853C24.4051 3.53875 24.4882 3.41826 24.5918 3.31705C24.6963 3.21382 24.8132 3.13442 24.9425 3.07886C25.0737 3.02432 25.2102 2.99867 25.3521 3.00192C25.4939 3.00517 25.6348 3.04287 25.7749 3.11504C25.9505 3.2055 26.0895 3.3182 26.1917 3.45316C26.2949 3.58608 26.3576 3.72807 26.3798 3.87913C26.404 4.0312 26.3848 4.17712 26.3223 4.3169C26.2978 4.3716 26.2633 4.41868 26.219 4.45814C26.1775 4.4966 26.1278 4.52085 26.0698 4.53091C26.0139 4.54197 25.9524 4.53023 25.8853 4.49567C25.8222 4.46314 25.7764 4.4271 25.748 4.38753C25.7215 4.34897 25.7018 4.30891 25.6888 4.26733C25.6788 4.22475 25.6677 4.18166 25.6557 4.13806C25.6436 4.09446 25.6234 4.05287 25.595 4.0133C25.5665 3.97373 25.5198 3.93717 25.4547 3.90363C25.3935 3.87212 25.33 3.85936 25.2642 3.86535C25.1984 3.87133 25.137 3.89456 25.08 3.93502C25.0259 3.97447 24.983 4.02965 24.9513 4.10055C24.9041 4.20589 24.8895 4.31179 24.9074 4.41824C24.9273 4.5257 24.9876 4.60536 25.0882 4.65719C25.1671 4.69785 25.2347 4.71771 25.291 4.71678C25.3492 4.71687 25.4009 4.70984 25.4461 4.69572C25.4941 4.68059 25.5424 4.67052 25.5907 4.66552C25.6411 4.66154 25.6968 4.67531 25.758 4.70681C25.8448 4.75154 25.8968 4.81445 25.9139 4.89556C25.933 4.97769 25.9195 5.05926 25.8735 5.14028C25.8266 5.22332 25.752 5.28707 25.6495 5.33152C25.549 5.37698 25.4312 5.39607 25.2961 5.38878C25.1638 5.38048 25.0257 5.33923 24.8816 5.26503Z" fill="#A66D45"/>
<path d="M26.1329 6.07189C26.042 6.0122 25.9667 5.94293 25.9071 5.86406C25.8494 5.78642 25.8148 5.70406 25.8033 5.61699C25.7928 5.528 25.8135 5.43819 25.8652 5.34758C25.9092 5.27047 25.9688 5.21954 26.0442 5.1948C26.1195 5.17006 26.2025 5.16759 26.2932 5.1874C26.3858 5.20843 26.4775 5.24878 26.5684 5.30847C26.6222 5.3438 26.6687 5.3809 26.7077 5.41978C26.7478 5.45672 26.7729 5.48646 26.783 5.50899C26.8083 5.46465 26.8127 5.41452 26.7962 5.35861C26.7807 5.30076 26.7294 5.24321 26.6422 5.18596C26.6014 5.15916 26.5667 5.1417 26.5382 5.13357C26.5126 5.12474 26.4878 5.11905 26.4637 5.11651C26.4397 5.11396 26.4134 5.10863 26.3849 5.1005C26.3593 5.09167 26.327 5.07446 26.2881 5.04888C26.2306 5.01112 26.193 4.96524 26.1753 4.91125C26.1606 4.85655 26.172 4.79643 26.2094 4.73088C26.2435 4.67112 26.2884 4.63039 26.3441 4.60868C26.4028 4.58627 26.4664 4.57766 26.5349 4.58285C26.6033 4.58804 26.6711 4.60338 26.7381 4.62887C26.8071 4.65557 26.8694 4.6872 26.925 4.72374C27.0902 4.83216 27.2065 4.95228 27.2741 5.08412C27.3428 5.21402 27.3736 5.34555 27.3665 5.47868C27.3594 5.61182 27.3223 5.73719 27.2552 5.85478C27.2178 5.92033 27.1776 5.9774 27.1346 6.026C27.0934 6.07582 27.0557 6.11066 27.0214 6.13055C27.0342 6.17073 27.0382 6.21051 27.0336 6.24989C27.0309 6.29048 27.0201 6.32716 27.0014 6.35993C26.9706 6.41391 26.9255 6.45053 26.8661 6.4698C26.8096 6.48836 26.7498 6.47693 26.6867 6.43551C26.6385 6.40384 26.6048 6.37115 26.5858 6.33746C26.5668 6.30377 26.5505 6.26525 26.5369 6.22192C26.477 6.21967 26.4158 6.2086 26.3531 6.18869C26.2916 6.16686 26.2182 6.12793 26.1329 6.07189ZM26.3552 5.81637C26.3978 5.84439 26.4343 5.85642 26.4646 5.85247C26.4979 5.84781 26.5211 5.83391 26.5343 5.81078C26.5475 5.78765 26.548 5.7601 26.5356 5.72813C26.5262 5.69545 26.5001 5.6651 26.4575 5.63708C26.4166 5.61028 26.3796 5.59921 26.3463 5.60388C26.3142 5.60661 26.2915 5.61954 26.2783 5.64267C26.2651 5.66581 26.2641 5.69432 26.2754 5.72822C26.2878 5.76019 26.3143 5.78957 26.3552 5.81637Z" fill="#A66D45"/>
<path d="M27.9227 7.4278C27.8572 7.37475 27.8218 7.30766 27.8165 7.22653C27.8113 7.1454 27.8283 7.05379 27.8676 6.9517C27.9099 6.84919 27.9678 6.73794 28.0413 6.61797C27.9425 6.52374 27.8758 6.43564 27.8414 6.35368C27.8087 6.27311 27.8224 6.19016 27.8824 6.10482C27.9424 6.01948 28.013 5.9826 28.0942 5.99416C28.1784 6.00531 28.2769 6.04802 28.3898 6.12228C28.5121 5.96766 28.6362 5.84306 28.7623 5.74849C28.89 5.65531 29.0222 5.60982 29.1587 5.61202C29.2965 5.6124 29.4447 5.6768 29.6035 5.80523C29.6915 5.87643 29.753 5.96034 29.7879 6.05696C29.8246 6.15498 29.8103 6.25029 29.7452 6.34289C29.6776 6.43913 29.5985 6.48621 29.5079 6.48414C29.4203 6.48165 29.3302 6.45577 29.2376 6.4065C29.1648 6.36756 29.0989 6.36122 29.0398 6.38749C28.982 6.41195 28.928 6.45225 28.8777 6.5084C29.0304 6.63767 29.1365 6.75054 29.1959 6.84702C29.257 6.94489 29.2506 7.04649 29.1765 7.1518C29.128 7.2208 29.072 7.2581 29.0085 7.2637C28.9463 7.26749 28.8745 7.24642 28.7931 7.2005C28.7134 7.15598 28.6246 7.09553 28.5267 7.01918C28.4757 7.0918 28.4299 7.15878 28.3895 7.22009C28.3504 7.27959 28.3136 7.33385 28.2791 7.38288C28.2383 7.44098 28.1958 7.47639 28.1517 7.48911C28.1075 7.50183 28.0652 7.50038 28.0248 7.48475C27.9861 7.47051 27.9521 7.45153 27.9227 7.4278Z" fill="#A66D45"/>
<path d="M29.2923 8.73962C29.1738 8.62277 29.0904 8.4955 29.0421 8.35781C28.9969 8.21999 28.9858 8.08316 29.0089 7.94733C29.035 7.81138 29.0964 7.68693 29.1931 7.57398C29.287 7.46441 29.3981 7.38741 29.5265 7.34299C29.6565 7.30013 29.7888 7.29373 29.9234 7.32379C30.0596 7.3554 30.1845 7.4273 30.2984 7.53948C30.4043 7.64386 30.4757 7.7562 30.5126 7.8765C30.5495 7.9968 30.5574 8.11183 30.5363 8.22158C30.5182 8.3312 30.4759 8.42479 30.4095 8.50233C30.3431 8.57988 30.2716 8.62758 30.1951 8.64543C30.12 8.6616 30.0441 8.65669 29.9672 8.63069C29.8934 8.60456 29.8228 8.56611 29.7556 8.51533C29.6883 8.46456 29.6291 8.40938 29.5781 8.34979C29.5286 8.28852 29.4906 8.23244 29.4642 8.18156C29.4508 8.2585 29.4575 8.32727 29.4843 8.38787C29.5141 8.44836 29.5535 8.50112 29.6023 8.54618C29.6542 8.5911 29.7035 8.62883 29.7503 8.65935C29.8094 8.69585 29.8475 8.7381 29.8647 8.78612C29.8819 8.83414 29.8754 8.87747 29.8452 8.91611C29.8208 8.94802 29.7845 8.96823 29.7364 8.97676C29.6899 8.98685 29.6296 8.97559 29.5555 8.94298C29.4828 8.90868 29.3951 8.84089 29.2923 8.73962ZM29.7355 7.88008C29.7282 7.92263 29.7346 7.96461 29.7545 8.00601C29.7759 8.04573 29.803 8.0787 29.8359 8.10493C29.8704 8.13272 29.9045 8.14916 29.938 8.15424C29.9731 8.16088 30.0022 8.15071 30.0253 8.12374C30.0499 8.09508 30.0605 8.05889 30.0571 8.01516C30.0568 7.97131 30.0337 7.92679 29.9879 7.88161C29.9436 7.83799 29.8966 7.81966 29.8469 7.82663C29.7986 7.83192 29.7615 7.84974 29.7355 7.88008Z" fill="#A66D45"/>
</svg>
